<svg width="66" height="88" viewBox="0 0 66 88" fill="none" xmlns="http://www.w3.org/2000/svg">
<path d="M2.00013 2.40052C9.00661 1.21994 16.5777 5.14667 19.6318 11.5629C22.6859 17.9791 20.9921 26.3201 15.6538 31.0168C15.1148 31.4787 14.5245 31.9407 13.8316 32.0177C12.4457 32.1717 11.3421 30.9141 10.7005 29.6565C6.74811 21.9314 11.1881 12.1788 17.9893 6.78921C21.2744 4.19707 25.2268 2.22088 29.4101 2.01556C33.5935 1.81024 38.0078 3.6581 40.215 7.22551C41.7805 9.76632 42.0885 12.9231 41.7292 15.9002C41.2416 20.1092 39.4964 24.1643 36.8016 27.398C34.4917 30.1955 31.4376 32.4283 29.7438 35.6364C26.8693 41.0517 28.8968 48.4431 33.9528 51.9079C39.0087 55.3726 46.3489 54.7824 51.0455 50.83C55.7422 46.8776 57.59 40.0251 55.8962 34.1222C55.3572 32.1973 54.2536 30.1698 52.3288 29.5795C50.8915 29.1176 49.3003 29.6052 48.0171 30.4008C42.4991 33.8399 42.4991 42.2323 45.6559 47.9298C47.3241 50.9326 48.8127 53.4221 50.6349 56.3222C52.5341 59.3507 54.4589 62.3791 55.7165 65.7156C57.1281 69.3856 57.7184 73.3123 57.9493 77.239" stroke="#292929" stroke-width="4" stroke-miterlimit="10" stroke-linecap="round" stroke-linejoin="round"/>
<path d="M47.1701 73.9798C52.0207 76.5463 55.9987 80.6783 58.4112 85.606C61.1574 81.2429 62.9796 76.3153 63.7495 71.2337" stroke="#292929" stroke-width="4" stroke-miterlimit="10" stroke-linecap="round" stroke-linejoin="round"/>
</svg>
