<svg width="87" height="67" viewBox="0 0 87 67" fill="none" xmlns="http://www.w3.org/2000/svg">
<path d="M84.3469 42.6043L85.744 49.9642C85.744 49.9642 78.3764 69.3905 49.3971 66.5404C20.4178 63.6903 1.4366 46.5682 1 19.1596C1 19.1596 2.69182 6.89667 2.41895 2.47417L9.25173 1C9.25173 1 10.376 8.2944 12.4607 10.3364C14.5455 12.3456 19.7629 18.2205 23.6049 22.4792C27.4798 26.7379 33.4939 41.5014 54.7672 43.2049C76.0296 44.9302 84.3469 42.6043 84.3469 42.6043Z" fill="#FFC825"/>
<path d="M85.7113 49.9642C85.7113 49.9642 82.3822 51.8096 81.2907 47.2342C80.1992 42.6698 84.3141 42.6042 84.3141 42.6042C84.3141 42.6042 86.8355 46.8957 85.7113 49.9642Z" stroke="black" stroke-width="2" stroke-miterlimit="10" stroke-linecap="round" stroke-linejoin="round"/>
<path d="M77.6777 50.6849C77.6777 50.6849 51.2089 60.7311 32.7516 51.4056C13.4321 41.6434 4.51454 28.8127 4.87474 2.24487" stroke="black" stroke-width="2" stroke-miterlimit="10" stroke-linecap="round" stroke-linejoin="round"/>
<path d="M17.7547 26.7051C18.7807 26.8907 18.4969 28.4959 17.4709 28.3103C16.4231 28.1247 16.7178 26.5195 17.7547 26.7051Z" fill="black"/>
<path d="M21.1056 34.3163C22.4154 34.5566 22.0443 36.5986 20.7345 36.3474C19.4356 36.1072 19.8067 34.0761 21.1056 34.3163Z" fill="black"/>
<path d="M28.3638 37.4282C29.5863 37.6575 29.248 39.5685 28.0146 39.3392C26.7812 39.1098 27.1304 37.188 28.3638 37.4282Z" fill="black"/>
<path d="M1.80786 12.7279C1.86244 9.39741 2.24446 6.06689 2.92119 2.8128C2.96485 2.56164 3.04126 2.26681 3.25956 2.12485C3.42328 2.01565 3.61975 2.00474 3.81622 1.99382C5.71543 1.90646 7.64738 2.33233 9.53568 2.24497C9.52476 4.77836 10.1251 7.31174 11.2493 9.59397" stroke="black" stroke-width="2" stroke-miterlimit="10" stroke-linecap="round" stroke-linejoin="round"/>
</svg>
