<svg width="72" height="65" viewBox="0 0 72 65" fill="none" xmlns="http://www.w3.org/2000/svg">
<g clip-path="url(#clip0_673_6498)">
<path d="M71.2275 44.9711C67.1147 42.9832 62.8896 40.8328 58.6646 38.6699C55.125 36.7946 49.9777 34.7692 47.8216 31.206C46.7124 29.1931 46.6874 26.9427 46.6625 24.6797C46.5877 23.467 46.6999 22.1417 45.9396 21.3916C44.0203 19.6788 40.1193 21.3291 38.1626 22.1667C26.6341 27.7678 20.066 45.8713 31.9559 54.1354C31.7939 55.7607 34.1121 56.9484 35.1964 55.1981C35.3708 55.0856 35.2462 54.9105 35.4207 54.7855C35.7697 54.548 35.8195 54.2604 35.8694 53.9729C36.9537 52.2225 38.2 50.3597 40.2689 49.7095C42.1633 49.1719 44.469 49.6095 46.4382 50.2847C50.3641 51.6349 53.7416 54.3729 57.0444 56.6609C59.9483 58.7113 61.5685 59.6239 64.4226 57.1735C67.6256 54.4855 70.1806 51.2223 71.6513 47.4466C72.2744 46.5214 72.0376 45.4212 71.2275 44.9586V44.9711Z" fill="#A0DFDA"/>
<path d="M42.101 1.32528C39.1597 1.06273 36.5175 2.36298 34.81 4.28835C31.4823 -0.250021 24.6774 -1.40024 19.8666 1.88789C14.1958 5.76364 12.0272 13.2901 14.2706 19.5788C13.2362 19.5288 12.1394 19.7788 11.1673 20.1914C6.33156 21.2166 2.04421 24.1547 0.473844 29.2557C-1.19623 34.9317 1.73263 40.7454 6.78023 43.3584C4.78612 45.9839 5.29711 50.4222 7.56541 53.4103C10.245 56.6234 13.8967 57.9112 17.4612 57.2485C17.1995 60.1991 18.7823 62.8996 21.3871 64.1499C24.6276 65.9627 28.7653 64.6625 31.6942 62.6621C34.4486 60.7867 37.9881 57.8612 36.2807 54.2355C35.2213 51.935 32.953 50.4472 30.585 49.5471C32.9779 46.3965 32.0681 41.7331 30.2485 37.9323C35.2462 36.7821 37.6765 31.8437 38.4991 26.7552C46.1889 28.8181 52.6324 16.0906 51.0122 9.63938C49.878 5.37606 46.5504 1.58783 42.1135 1.33778L42.101 1.32528Z" fill="#32B2A8"/>
<path d="M32.1055 22.5169C33.8503 24.3547 35.9441 25.9425 38.2498 26.3926C40.5555 26.8302 45.3414 26.0926 47.834 21.6167" stroke="black" stroke-width="2" stroke-linecap="round" stroke-linejoin="round"/>
<path d="M13.8589 36.7446C13.8589 36.7446 8.00121 39.2326 6.54302 42.9958C5.42133 45.7839 5.34655 50.1222 7.0914 52.6977" stroke="black" stroke-width="2" stroke-linecap="round" stroke-linejoin="round"/>
<path d="M30.2854 37.6196C33.5632 42.4456 31.594 47.3215 28.2788 50.5846C27.369 51.4598 26.4467 52.335 25.2378 52.41" stroke="black" stroke-width="2" stroke-linecap="round" stroke-linejoin="round"/>
<path d="M20.9132 20.8289C19.8413 17.7783 20.963 14.2401 23.3061 12.1397C25.7613 10.2018 29.5626 9.87678 32.2298 11.5896" stroke="black" stroke-width="2" stroke-linecap="round" stroke-linejoin="round"/>
</g>
<defs>
<clipPath id="clip0_673_6498">
<rect width="72" height="65" fill="white"/>
</clipPath>
</defs>
</svg>
