<svg width="94" height="64" fill="none" xmlns="http://www.w3.org/2000/svg"><path d="M27.277 42.891c3.284 5.76 14.693 8.558 30.604-3.436C73.793 27.472 94.776 8.175 92.907 1.94c-1.88-6.235-34.062 4.122-45.273 9.068-11.212 4.947-29.63 15.663-20.357 31.883z" fill="#F38059"/><path d="M30.132 45.608c-2.46 7.942-9.169 14.42-17.2 16.592-1.984.534-4.735.441-5.362-1.521-.394-1.22.325-2.508 1.08-3.553a32.329 32.329 0 0110.294-9.207c2.704-1.521 5.722-2.717 7.741-5.074A46.978 46.978 0 018.882 49.01c-2.53.337-5.768.058-6.673-2.322-.639-1.66.278-3.541 1.531-4.807 3.018-3.088 7.626-3.878 11.896-4.516 3.354-.5 6.709-.999 10.063-1.487M46.972 40.302c-.998-1.846-1.985-3.704-2.983-5.55M48.933 22.816c-.708-1.625-1.416-3.24-2.124-4.865M64.392 26.95a17.074 17.074 0 00-2.252-5.213M76.276 13.017a43.68 43.68 0 00-3.226-6.258" stroke="#000" stroke-width="2" stroke-miterlimit="10" stroke-linecap="round" stroke-linejoin="round"/></svg>