<svg width="65" height="27" viewBox="0 0 65 27" fill="none" xmlns="http://www.w3.org/2000/svg">
<path d="M61.2495 15.4043C57.7672 11.4195 52.9854 8.59548 47.8225 7.45202C43.0061 6.37786 37.5314 6.89761 33.7891 10.1201C30.0469 13.3426 28.9034 19.6836 32.2645 23.3045C33.1827 24.2921 34.4301 25.0544 35.7815 25.0371C37.2368 25.0371 38.5362 24.1535 39.6104 23.1659C43.3006 19.7356 45.2237 14.2954 43.8724 9.46172C42.521 4.61067 37.618 0.816466 32.611 1.3189C28.349 1.75203 24.884 4.88789 22.1466 8.17968C19.4092 11.4715 16.949 15.1444 13.3281 17.4313C9.70713 19.7009 4.38829 20.0647 1.52964 16.8769" stroke="#292929" stroke-width="2" stroke-miterlimit="10" stroke-linecap="round" stroke-linejoin="round"/>
<path d="M52.1538 14.6425C56.1212 14.5039 60.106 15.9073 63.1206 18.4887C61.9425 15.5088 60.6431 12.5635 59.2571 9.6702" stroke="#292929" stroke-width="2" stroke-miterlimit="10" stroke-linecap="round" stroke-linejoin="round"/>
</svg>
