<svg width="40" height="42" fill="none" xmlns="http://www.w3.org/2000/svg"><path d="M30.815.15c5.954-1.127 8.53 4.33 8.705 9.462.267 8.244-4.155 14.757-10.318 19.332a43.141 43.141 0 01-8.24 4.551 33.992 33.992 0 01-9.61 2.427l-.104-.104a4.774 4.774 0 01-1.74-.79C7.36 33.507 6.442 30.79 6.234 28.27c-.5-5.968 2.367-11.61 6.44-15.79 2.113-2.183 4.504-4.04 6.999-5.76C22.842 3.657 26.452.986 30.815.15z" fill="#32B2A8"/><path d="M35.62 4.492C31.21 11.47 25.245 17.31 19.326 23.08L1 40.96M38.487 16.555c-4.41 1.22-10.341 2.31-14.902 2.74M24.63 4.074c-1.44 4.61-1.196 10.38-1.045 15.21M29.202 28.944c-4.294.766-11.733.464-16.085.197M12.664 14.268c.012 4.11.441 10.763.441 14.873" stroke="#000" stroke-width="1.4" stroke-miterlimit="10" stroke-linecap="round" stroke-linejoin="round"/></svg>