<svg width="259" height="627" viewBox="0 0 259 627" fill="none" xmlns="http://www.w3.org/2000/svg">
<path d="M32.8535 322.244C32.8535 322.244 29.7272 340.849 32.7897 345.94C35.8394 351.031 48.7912 359.594 52.1599 359.887C52.1599 359.887 53.3211 333.792 49.174 314.766C49.174 314.766 44.3378 309.65 39.2592 311.347C34.1805 313.044 32.8535 322.244 32.8535 322.244Z" fill="#C6896B"/>
<path d="M140.028 93.3227C140.028 93.3227 137.591 86.9043 133.916 83.5611C130.241 80.2178 111.139 77.5382 103.189 77.3212C95.2392 77.1043 78.9953 80.6644 75.0778 83.3441C71.1604 86.0238 70.2672 93.3355 70.2672 93.3355C70.2672 93.3355 95.2265 130.175 117.761 123.935C140.296 117.695 140.028 93.3227 140.028 93.3227Z" fill="#F8CD3D"/>
<path d="M137.832 51.9224C134.233 51.405 131.876 47.0837 132.568 42.2706C133.26 37.4575 136.739 33.9753 140.338 34.4927C143.938 35.0102 146.295 39.3315 145.603 44.1445C144.911 48.9576 141.432 52.4399 137.832 51.9224Z" fill="#C6896B"/>
<path d="M89.9438 579.136L90.416 617.2C90.416 617.2 77.4259 624.04 69.9866 618.693C62.5473 613.346 64.2445 599.068 64.2445 599.068C64.2445 599.068 59.9059 578.855 59.3189 571.416C58.732 563.964 86.9707 560.097 89.9438 579.136Z" fill="#C6896B"/>
<path d="M90.8627 608.982L91.7432 624.729C91.7176 625.992 90.6713 627 89.408 627H25.0575C23.4497 627 22.2885 625.418 22.8244 623.899C24.2536 619.841 27.2395 612.823 39.8595 609.161C58.2982 603.814 64.2446 599.055 64.2446 599.055C64.2446 599.055 72.0029 602.934 75.6141 608.663C76.737 610.437 79.0211 611.151 80.9224 610.245C83.0661 609.225 86.2817 608.434 90.8627 608.982Z" fill="black"/>
<path d="M141.139 38.6064C139.276 40.1249 137.974 42.3325 137.553 44.7059" stroke="black" stroke-miterlimit="10" stroke-linecap="round" stroke-linejoin="round"/>
<path d="M137.157 15.242C137.157 15.242 141.726 39.6909 136.711 49.2867C136.711 49.2867 118.208 21.7753 117.762 15.9821C117.315 10.1889 135.652 6.02902 137.157 15.242Z" fill="black"/>
<path d="M53.0029 163.913L8.04811 155.555C8.04811 155.555 -2.70887 205.41 4.24554 238.089C7.61428 253.938 34.2324 253.759 38.0605 236.316C41.8759 218.885 53.0029 163.913 53.0029 163.913Z" fill="#C6896B"/>
<path d="M116.192 579.136L118.272 617.2C118.272 617.2 132.538 624.04 139.977 618.693C147.416 613.346 144.443 599.068 144.443 599.068C144.443 599.068 146.23 578.855 146.817 571.416C147.416 563.964 119.165 560.097 116.192 579.136Z" fill="#C6896B"/>
<path d="M174.035 266.43C180.594 324.184 188.442 499.664 157.23 589.421H113.73C111.075 568.226 104.146 336.548 104.146 336.548C104.146 336.548 96.7327 568.341 97.3835 589.421H52.0969C27.4566 513.714 31.4506 260.395 31.4506 260.395L174.035 266.43Z" fill="#AB8DDB"/>
<path d="M195.319 137.882L161.874 171.085C161.874 171.085 205.425 222.062 218.339 229.616C252.243 249.433 256.313 206.865 256.313 206.865L195.319 137.882Z" fill="#C6896B"/>
<path d="M105.104 86.9045C126.924 87.6828 160.331 97.9549 171.088 108.24C184.792 121.345 195.651 133.467 214.601 159.702L180.007 197.665L169.327 183.973C171.624 224.691 180.007 229.68 175.924 283.976C175.924 283.976 92.152 279.727 32.4335 289.807L42.8842 195.725L0.251785 188.324C0.251785 188.324 6.47885 160.085 10.0645 148.448C16.2788 128.299 27.4569 111.315 47.2993 101.617C59.4216 95.6964 82.99 86.1133 105.104 86.9045Z" fill="#F8CD3D"/>
<path d="M129.552 90.5027C129.552 90.5027 126.145 78.2145 124.409 67.2788C122.112 52.7703 90.9899 41.924 89.1907 56.7133C87.7232 68.8484 83.9334 89.8009 83.9334 89.8009C83.9334 89.8009 108.535 114.556 113.716 114.773C117.889 114.952 129.552 90.5027 129.552 90.5027Z" fill="#C6896B"/>
<path d="M136.839 35.7352C140.578 53.3062 141.778 71.4643 128.558 77.0916C115.351 82.7189 99.2601 78.61 89.7408 61.2432C78.9966 41.6305 83.0289 21.1501 103.177 15.5355C128.264 8.55557 132.246 14.2084 136.839 35.7352Z" fill="#C6896B"/>
<path d="M75.2306 27.071C77.9486 42.7535 84.4181 52.1196 86.3704 58.1808L93.0186 52.311C94.9326 43.1235 95.3155 34.523 92.7506 27.0837C92.7634 27.0837 77.3233 22.6686 75.2306 27.071Z" fill="black"/>
<path d="M83.3298 56.4207C79.8515 53.0227 79.0918 48.1594 81.633 45.5582C84.1741 42.9571 89.0538 43.6031 92.5321 47.0011C96.0104 50.3992 96.7701 55.2625 94.2289 57.8636C91.6878 60.4647 86.8081 59.8187 83.3298 56.4207Z" fill="#C6896B"/>
<path d="M168.624 150.26C172.082 183.194 166.838 182.582 172.656 206.865" stroke="black" stroke-width="1.4" stroke-miterlimit="10" stroke-linecap="round" stroke-linejoin="round"/>
<path d="M85.2743 48.6235C87.4691 49.6316 89.2683 51.4436 90.2764 53.6256" stroke="black" stroke-miterlimit="10" stroke-linecap="round" stroke-linejoin="round"/>
<path d="M121.692 44.4761L125.596 51.9664C126.63 53.9443 125.022 56.2666 122.802 56.0114L119.612 55.6414" stroke="black" stroke-miterlimit="10" stroke-linecap="round" stroke-linejoin="round"/>
<path d="M100.331 46.9389C100.331 46.9389 101.263 43.2511 107.337 43.2001C110.667 43.1746 113.729 46.8368 113.729 46.8368C113.729 46.8368 110.399 48.4829 106.277 48.9805C103.292 49.3506 100.331 46.9389 100.331 46.9389Z" fill="white"/>
<path d="M105.869 48.7636C104.389 48.7636 103.189 47.5639 103.189 46.0839C103.189 44.604 104.389 43.4043 105.869 43.4043C107.349 43.4043 108.549 44.604 108.549 46.0839C108.549 47.5639 107.349 48.7636 105.869 48.7636Z" fill="black"/>
<path d="M113.729 46.8495C113.729 46.8495 110.246 42.8938 106.635 43.2256C102.322 43.6339 100.331 46.9388 100.331 46.9388" stroke="black" stroke-miterlimit="10" stroke-linecap="round" stroke-linejoin="round"/>
<path d="M126.03 34.3187C129.309 33.0937 132.066 32.6981 135.307 32.8257C136.2 32.864 137.361 32.9151 137.757 32.1112C138.037 31.5625 137.808 30.8734 137.374 30.4396C136.94 30.0185 136.328 29.8143 135.728 29.6739C133.622 29.189 131.428 29.4059 129.297 29.7377C127.574 30.0057 125.66 30.4778 124.754 31.9708C124.435 32.5067 124.282 33.183 124.524 33.7573C124.779 34.3442 125.443 34.5356 126.03 34.3187Z" stroke="black" stroke-miterlimit="10" stroke-linecap="round" stroke-linejoin="round"/>
<path d="M100.101 41.6817C103.316 39.5762 106.162 38.4788 109.671 37.828C110.641 37.6494 111.891 37.4197 112.121 36.4754C112.287 35.8246 111.878 35.1356 111.304 34.7783C110.73 34.4338 110.028 34.3572 109.365 34.3572C107.004 34.3572 104.707 35.1228 102.5 35.9905C100.726 36.6924 98.7864 37.6621 98.1866 39.4869C97.9697 40.1377 97.9697 40.9033 98.378 41.4647C98.7736 42.0134 99.5265 42.0645 100.101 41.6817Z" stroke="black" stroke-miterlimit="10" stroke-linecap="round" stroke-linejoin="round"/>
<path d="M136.022 37.9684C136.022 37.9684 134.095 37.4197 130.931 38.3512C127.064 39.4996 126.375 44.1572 126.375 44.1572C126.375 44.1572 131.518 44.9866 134.759 42.5621C136.277 41.4265 136.022 37.9684 136.022 37.9684Z" fill="white"/>
<path d="M131.236 43.9401C129.756 43.9401 128.557 42.7404 128.557 41.2605C128.557 39.7805 129.756 38.5808 131.236 38.5808C132.716 38.5808 133.916 39.7805 133.916 41.2605C133.916 42.7404 132.716 43.9401 131.236 43.9401Z" fill="black"/>
<path d="M126.362 44.1571C126.362 44.1571 127.791 39.7802 130.917 38.3511C133.406 37.2154 136.009 37.9683 136.009 37.9683" stroke="black" stroke-miterlimit="10" stroke-linecap="round" stroke-linejoin="round"/>
<path d="M126.081 61.1028L111.904 62.1108C111.904 62.1108 114.865 69.0525 119.714 68.2358C125.711 67.215 126.081 61.1028 126.081 61.1028Z" fill="white"/>
<path d="M35.0372 150.26C44.4799 162.931 41.545 182.441 42.8721 195.725" stroke="black" stroke-width="1.4" stroke-miterlimit="10" stroke-linecap="round" stroke-linejoin="round"/>
<path d="M224.209 129.448L217.637 186.869C217.637 186.869 208.603 237.86 236.701 234.759C269.814 231.11 258.508 172.195 250.24 141.595C245.62 124.484 242.341 118.129 242.341 118.129L224.209 129.448Z" fill="#C6896B"/>
<path d="M221.031 160.238C219.207 173.981 217.573 192.471 218.671 201.595" stroke="black" stroke-width="1.4" stroke-miterlimit="10" stroke-linecap="round" stroke-linejoin="round"/>
<path d="M245.876 128.898C245.876 128.898 248.224 113.688 250.253 105.445C250.955 102.612 253.366 95.4408 253.966 92.0337C255.229 84.7348 254.387 75.6239 252.537 75.4708C248.364 76.096 248.926 82.7187 248.033 86.7637C246.859 92.2762 245.595 91.7785 245.595 91.7785C245.595 91.7785 245.953 85.3473 246.578 79.6945C247.229 73.4419 247.535 69.0268 245.251 68.7078C243.515 68.5291 242.112 71.8341 241.55 76.3002C240.07 87.759 239.241 90.6174 239.241 90.6174C239.241 90.6174 239.368 83.6246 240.032 76.6702C240.466 70.6984 240.504 65.4921 237.875 65.4666C235.247 65.4411 234.456 72.421 233.677 78.6864C232.899 84.9517 232.273 90.6046 232.273 90.6046C230.615 90.8853 231.202 83.4715 231.138 80.7663C230.997 73.7099 231.508 69.7286 228.892 69.8179C227.22 69.9838 225.766 76.951 224.924 83.5864C223.89 91.434 223.482 99.8814 223.482 99.8814C223.482 99.8814 221.989 100.251 219.118 94.1265C217.688 91.064 216.451 87.1338 214.205 86.1895C212.98 85.9215 210.976 84.9134 209.994 86.3171C211.168 89.4178 212.457 94.471 215.685 103.429C217.841 113.918 224.069 133.633 224.069 133.633L245.876 128.898Z" fill="#C6896B"/>
<path d="M223.749 99.7285C228.586 101.247 233.064 103.914 236.701 107.436" stroke="black" stroke-width="1.4" stroke-miterlimit="10" stroke-linecap="round" stroke-linejoin="round"/>
<path d="M245.812 94.5859C240.007 93.3099 234.098 92.4549 228.165 92.0593" stroke="black" stroke-width="1.4" stroke-miterlimit="10" stroke-linecap="round" stroke-linejoin="round"/>
<path d="M42.8709 338.156C43.3048 341.397 43.7386 344.639 44.1725 347.88C44.6701 351.593 45.3209 355.612 48.0771 358.152" stroke="black" stroke-width="1.4" stroke-miterlimit="10" stroke-linecap="round" stroke-linejoin="round"/>
<path d="M36.8097 336.536C36.8097 341.512 36.8096 347.165 39.668 353.711" stroke="black" stroke-width="1.4" stroke-miterlimit="10" stroke-linecap="round" stroke-linejoin="round"/>
<path d="M55.835 306.485L39.6675 216.562C39.6675 216.562 35.8012 201.224 13.6109 209.149C-5.37656 215.937 1.89683 244.788 20.8077 287.357C27.4303 302.261 36.6306 320.483 36.6306 320.483L55.835 306.485Z" fill="#C6896B"/>
<path d="M35.0358 206.864C39.5785 217.736 42.6921 229.208 44.2871 240.871" stroke="black" stroke-width="1.4" stroke-miterlimit="10" stroke-linecap="round" stroke-linejoin="round"/>
<path d="M101.288 19.9889C101.288 19.9889 105.333 25.5141 112.173 24.0084C117.532 22.8217 118.489 17.7686 118.489 17.7686C118.489 17.7686 121.986 23.0897 128.519 22.8983C135.065 22.7069 137.094 19.0829 137.783 16.2246C138.778 12.0774 137.783 3.36213 129.565 2.12437C123.632 1.23114 117.749 5.44208 117.749 5.44208C117.749 5.44208 113.73 1.80535 108.549 2.39233C101.62 3.17071 98.9533 9.01497 98.9533 9.01497C95.6866 6.33529 88.375 6.51392 85.4656 7.96861C70.7146 15.4079 75.1169 29.9292 78.0263 37.7258C79.8 42.4727 103.968 32.5834 101.288 19.9889Z" fill="black"/>
<path d="M112.888 56.8665C112.288 60.0948 110.502 63.0808 107.924 65.1224" stroke="black" stroke-miterlimit="10" stroke-linecap="round" stroke-linejoin="round"/>
<path d="M124.41 78.5079C115.669 79.5543 105.231 77.4489 98.8001 71.4387" stroke="black" stroke-miterlimit="10" stroke-linecap="round" stroke-linejoin="round"/>
<path d="M112.76 117.121C111.535 116.1 110.016 115.449 108.434 115.245C107.975 115.181 107.503 115.169 107.069 115.322C106.597 115.488 106.226 115.832 105.882 116.189C102.692 119.379 100.357 123.399 99.1572 127.738C89.4976 117.874 80.1187 108.023 71.5565 97.1892" stroke="black" stroke-width="1.4" stroke-miterlimit="10" stroke-linecap="round" stroke-linejoin="round"/>
<path d="M117.685 116.189C118.157 115.296 119.395 115.054 120.327 115.424C121.258 115.794 121.947 116.598 122.521 117.427C124.295 119.979 125.418 122.991 125.762 126.079C131.339 117.695 136.111 108.763 139.978 99.4604" stroke="black" stroke-width="1.4" stroke-miterlimit="10" stroke-linecap="round" stroke-linejoin="round"/>
<path d="M131.542 84.0334C130.623 88.9079 128.926 93.6292 126.527 97.9678" stroke="black" stroke-width="1.4" stroke-miterlimit="10" stroke-linecap="round" stroke-linejoin="round"/>
<path d="M80.4882 84.6838C82.3895 88.563 85.1585 92.0083 88.54 94.7135" stroke="black" stroke-width="1.4" stroke-miterlimit="10" stroke-linecap="round" stroke-linejoin="round"/>
<path d="M71.4541 291.504C61.4882 303.856 48.83 314.039 34.6149 321.134" stroke="black" stroke-width="1.4" stroke-miterlimit="10" stroke-linecap="round" stroke-linejoin="round"/>
<path d="M146.485 289.412C154.932 298.395 165.166 305.694 176.421 310.747" stroke="black" stroke-width="1.4" stroke-miterlimit="10" stroke-linecap="round" stroke-linejoin="round"/>
<path d="M117.826 608.982L118.221 624.729C118.247 625.992 119.293 627 120.556 627H184.907C186.515 627 187.676 625.418 187.14 623.899C185.711 619.841 181.449 612.823 168.829 609.161C150.39 603.814 144.444 599.055 144.444 599.055C144.444 599.055 136.686 602.934 133.074 608.663C131.951 610.437 129.667 611.151 127.766 610.245C125.622 609.225 122.419 608.434 117.826 608.982Z" fill="black"/>
</svg>
