<svg width="680" height="360" viewBox="0 0 680 360" fill="none" xmlns="http://www.w3.org/2000/svg">
<g clip-path="url(#clip0_1139_3839)">
<path d="M680 0H0V360H680V0Z" fill="#FAF2E8"/>
<path d="M609.82 54.5929C569.684 53.3467 529.495 54.1083 489.445 56.8602" stroke="#EACDC5" stroke-width="2.5" stroke-miterlimit="10" stroke-linecap="round" stroke-linejoin="round"/>
<path d="M485.377 63.1605C485.602 96.0105 485.845 128.86 486.07 161.693C486.381 205.637 486.693 249.582 487.004 293.509C487.004 294.374 487.212 295.482 488.06 295.62C488.908 295.759 488.597 293.889 488.06 294.547" stroke="#EACDC5" stroke-width="2.5" stroke-miterlimit="10" stroke-linecap="round" stroke-linejoin="round"/>
<path d="M609.803 67.9548C572.106 69.0452 534.376 68.7683 496.697 67.124C498.272 143.33 497.268 221.007 495.399 297.212" stroke="#EACDC5" stroke-width="2.5" stroke-miterlimit="10" stroke-linecap="round" stroke-linejoin="round"/>
<path d="M512.153 180.714C512.845 180.887 513.537 181.077 514.195 181.354C516.757 182.479 518.435 185.404 518.02 188.191C517.605 190.96 515.06 193.296 512.257 193.383C509.453 193.469 506.736 191.237 506.355 188.468C505.818 184.539 509.73 181.164 513.659 180.696" stroke="#EACDC5" stroke-width="2.5" stroke-miterlimit="10" stroke-linecap="round" stroke-linejoin="round"/>
<path d="M540.243 126.126C558.295 125.78 576.364 125.745 594.433 126.005C594.26 117.334 593.031 107.797 592.876 99.1434C574.529 99.3511 556.166 98.9703 537.837 97.9838C538.149 106.863 539.914 117.247 540.243 126.126Z" stroke="#EACDC5" stroke-width="2.5" stroke-miterlimit="10" stroke-linecap="round" stroke-linejoin="round"/>
<path d="M377.464 174.76C348.024 172.302 318.307 173.272 289.108 177.651C287.689 177.858 285.924 177.91 285.214 176.681C284.92 176.162 284.903 175.522 284.903 174.916C284.868 155.22 284.833 135.541 284.799 115.845C316.282 112.383 349.01 110.877 380.597 113.249C379.957 133.602 377.291 154.389 377.464 174.76Z" stroke="#EACDC5" stroke-width="2.5" stroke-miterlimit="10" stroke-linecap="round" stroke-linejoin="round"/>
<path d="M289.23 126.074C301.501 125.087 313.841 124.897 326.13 125.503" stroke="#EACDC5" stroke-width="2.5" stroke-miterlimit="10" stroke-linecap="round" stroke-linejoin="round"/>
<path d="M290.441 135.575C301.951 134.935 313.443 134.295 324.953 133.637" stroke="#EACDC5" stroke-width="2.5" stroke-miterlimit="10" stroke-linecap="round" stroke-linejoin="round"/>
<path d="M618.543 301.556C616.83 301.556 615.099 301.556 613.385 301.556H55.8872" stroke="#EACDC5" stroke-width="2.5" stroke-miterlimit="10" stroke-linecap="round" stroke-linejoin="round"/>
<path d="M65.7353 252.593C64.1603 252.766 62.6026 252.939 61.0276 253.112C93.1853 251.952 125.516 251.883 157.691 252.904C201.255 254.289 244.61 257.681 288.26 257.231C292.241 258.149 294.543 251.364 291.86 248.283C289.178 245.202 284.574 244.925 280.489 244.856C226.887 244.095 173.285 243.316 119.666 242.554C111.116 242.433 102.583 242.312 94.0334 242.191C85.1199 242.07 76.2065 241.931 67.3103 241.81C63.7968 241.758 59.8161 241.897 57.4622 244.527C55.1257 247.158 62.343 253.527 65.7353 252.593Z" stroke="#EACDC5" stroke-width="2.5" stroke-miterlimit="10" stroke-linecap="round" stroke-linejoin="round"/>
<path d="M285.491 257.526C285.941 271.839 285.734 286.17 284.868 300.466" stroke="#EACDC5" stroke-width="2.5" stroke-miterlimit="10" stroke-linecap="round" stroke-linejoin="round"/>
<path d="M277.132 258.131C277.945 272.653 278.395 287.174 278.482 301.712" stroke="#EACDC5" stroke-width="2.5" stroke-miterlimit="10" stroke-linecap="round" stroke-linejoin="round"/>
<path d="M64.1257 260.554C64.5411 274.279 64.5411 288.004 64.1603 301.712" stroke="#EACDC5" stroke-width="2.5" stroke-miterlimit="10" stroke-linecap="round" stroke-linejoin="round"/>
<path d="M73.0564 259.36C73.4891 273.881 73.9045 288.403 74.3372 302.924" stroke="#EACDC5" stroke-width="2.5" stroke-miterlimit="10" stroke-linecap="round" stroke-linejoin="round"/>
<path d="M175.189 256.28C175.847 258.461 175.691 260.814 175.535 263.082C174.601 276.357 173.683 289.632 172.749 302.907" stroke="#EACDC5" stroke-width="2.5" stroke-miterlimit="10" stroke-linecap="round" stroke-linejoin="round"/>
<path d="M166.276 256.954C165.203 271.839 164.666 286.775 164.684 301.695" stroke="#EACDC5" stroke-width="2.5" stroke-miterlimit="10" stroke-linecap="round" stroke-linejoin="round"/>
<path d="M144.555 64.3199C146.545 71.4334 144.485 79.4122 139.743 85.0892C135.018 90.7661 127.835 94.1757 120.48 94.8853C111.878 95.7334 102.428 92.5315 97.893 85.1584C96.1276 82.268 95.193 78.9449 94.6045 75.6218C93.843 71.3815 93.6007 66.8988 95.193 62.9007C102.601 44.1911 138.895 43.9834 144.555 64.3199Z" stroke="#EACDC5" stroke-width="2.5" stroke-miterlimit="10" stroke-linecap="round" stroke-linejoin="round"/>
<path d="M121.103 57.3276C121.345 63.9564 121.605 70.6026 121.847 77.2314C116.257 74.168 110.857 70.741 105.716 66.968" stroke="#EACDC5" stroke-width="2.5" stroke-miterlimit="10" stroke-linecap="round" stroke-linejoin="round"/>
<path d="M467.205 71.243C466.98 103.903 466.738 136.58 466.513 169.239C443.961 167.993 428.695 168.997 406.126 167.751" stroke="#EACDC5" stroke-width="2.5" stroke-miterlimit="10" stroke-linecap="round" stroke-linejoin="round"/>
<path d="M459.97 70.9658C442.022 71.3639 424.091 71.7447 406.143 72.1427C406.161 101.185 406.386 130.504 406.403 159.547" stroke="#EACDC5" stroke-width="2.5" stroke-miterlimit="10" stroke-linecap="round" stroke-linejoin="round"/>
<path d="M441.779 103.626C447.387 104.405 453.099 104.422 458.706 103.695C458.741 96.4951 458.758 89.2951 458.793 82.0951C458.793 81.7836 458.741 81.3855 458.447 81.2817C458.152 81.1778 457.997 81.8355 458.308 81.749C451.108 81.6278 444.981 80.1913 437.781 80.0701C438.266 87.7721 442.022 95.8721 441.779 103.626Z" stroke="#EACDC5" stroke-width="2.5" stroke-miterlimit="10" stroke-linecap="round" stroke-linejoin="round"/>
<path d="M428.505 82.0772C423.468 82.3888 418.38 82.233 413.378 81.6099" stroke="#EACDC5" stroke-width="2.5" stroke-miterlimit="10" stroke-linecap="round" stroke-linejoin="round"/>
<path d="M429.716 91.2332C424.264 90.6967 418.812 90.1775 413.36 89.6409" stroke="#EACDC5" stroke-width="2.5" stroke-miterlimit="10" stroke-linecap="round" stroke-linejoin="round"/>
<path d="M461.13 118.787C450.278 117.523 439.409 116.26 428.557 114.997" stroke="#EACDC5" stroke-width="2.5" stroke-miterlimit="10" stroke-linecap="round" stroke-linejoin="round"/>
<path d="M461.164 130.141C454.726 129.622 448.27 129.102 441.832 128.583" stroke="#EACDC5" stroke-width="2.5" stroke-miterlimit="10" stroke-linecap="round" stroke-linejoin="round"/>
<path d="M335.528 171.265C347.539 169.811 359.62 169.084 371.718 169.118C370.403 153.091 370.161 136.978 371.009 120.916C363.549 121.072 356.089 121.211 348.63 121.366C340.997 121.522 337.103 119.393 336.186 127.39C334.541 141.651 335.736 156.882 335.528 171.265Z" stroke="#EACDC5" stroke-width="2.5" stroke-miterlimit="10" stroke-linecap="round" stroke-linejoin="round"/>
<path d="M325.074 145.389C316.195 145.216 307.333 145.043 298.454 144.87" stroke="#EACDC5" stroke-width="2.5" stroke-miterlimit="10" stroke-linecap="round" stroke-linejoin="round"/>
<path d="M368.43 248.525C368.274 247.625 357.543 209.461 359.014 204.563C360.468 199.648 365.228 188.519 364.31 183.829C363.393 179.138 355.483 173.34 355.483 173.34C355.483 173.34 347.193 139.469 345.203 136.371C343.23 133.29 337.812 134.779 339.837 145.769C341.862 156.759 341.931 159.477 341.931 159.477C341.931 159.477 334.922 158.715 331.46 161.571C331.46 161.571 323.187 161.467 320.505 167.023C320.505 167.023 312.993 166.521 314.326 172.7C315.658 178.896 319.57 203.023 332.43 212.421C332.43 212.421 338.92 257.94 339.872 263.652C340.841 269.346 371.77 268.481 368.43 248.525Z" fill="#FEB095"/>
<path d="M344.995 196.135C345.601 191.306 347.349 186.616 350.049 182.566C345.964 182.133 341.966 181.025 338.227 179.329C336.999 178.775 335.77 178.118 334.904 177.079C334.039 176.058 333.589 174.552 334.126 173.323C334.922 171.472 337.345 171.039 339.37 171.022C345.393 170.97 351.433 172.285 356.92 174.795" stroke="black" stroke-width="2.5" stroke-miterlimit="10" stroke-linecap="round" stroke-linejoin="round"/>
<path d="M343.783 169.152C343.056 165.258 341.828 161.45 340.131 157.85" stroke="black" stroke-width="2.5" stroke-miterlimit="10" stroke-linecap="round" stroke-linejoin="round"/>
<path d="M333.07 170.813C332.066 167.629 330.612 164.583 328.778 161.779" stroke="black" stroke-width="2.5" stroke-miterlimit="10" stroke-linecap="round" stroke-linejoin="round"/>
<path d="M337.016 183.327C337.31 184.418 336.531 185.594 335.493 185.993C334.455 186.408 333.243 186.183 332.239 185.698C330.266 184.729 328.933 182.825 327.756 180.973C325.195 176.958 322.928 172.769 320.937 168.443" stroke="black" stroke-width="2.5" stroke-miterlimit="10" stroke-linecap="round" stroke-linejoin="round"/>
<path d="M328.449 186.771C328.328 188.225 326.718 189.194 325.282 189.107C323.828 189.021 322.547 188.138 321.457 187.169C318.774 184.798 316.749 181.682 315.658 178.273" stroke="black" stroke-width="2.5" stroke-miterlimit="10" stroke-linecap="round" stroke-linejoin="round"/>
<path d="M437.695 103.244C437.695 103.244 440.879 86.4213 449.066 75.3271C449.066 75.3271 476.602 91.8906 496.645 97.3598C512.395 101.652 505.801 72.1944 500.764 66.5175C495.71 60.8406 480.999 56.4444 470.043 55.4579C459.087 54.4713 442.714 63.0386 439.097 74.254C435.479 85.4694 437.435 104.56 437.435 104.56L437.695 103.244Z" fill="black"/>
<path d="M480.635 159.892C463.483 158.56 408.479 171.367 385.426 195.892C367.927 214.515 312.301 348.754 396.987 349.965V377.312H597.826C606.289 337.279 595.731 221.854 574.962 195.875C557.187 173.652 525.151 163.354 480.635 159.892Z" fill="white"/>
<path d="M453.739 164.15C453.739 164.15 456.63 154.077 457.201 140.456C457.962 122.387 490.155 106.273 493.685 124.81C496.507 139.591 502.132 164.479 502.132 164.479C502.132 164.479 491.435 173.998 469.091 170.658C450.693 167.889 453.739 164.15 453.739 164.15Z" fill="#FEB095"/>
<path d="M438.093 100.441C434.233 122.231 435.479 142.81 452.337 148.158C469.195 153.506 487.627 147.345 497.268 124.948C508.154 99.6446 500.66 71.9523 475.443 66.6907C446.539 60.6504 442.35 76.435 438.093 100.441Z" fill="#FEB095"/>
<path d="M506.406 89.5543L501.024 120.795L492.179 114.373L486.312 67.9023C486.329 67.9023 504.174 79.4466 506.406 89.5543Z" fill="black"/>
<path d="M457.131 103.712L451.489 119.046C450.433 121.92 452.839 124.862 455.868 124.412L462.704 121.262" stroke="black" stroke-width="2.5" stroke-miterlimit="10" stroke-linecap="round" stroke-linejoin="round"/>
<path d="M482.297 110.167C482.297 110.167 481.726 105.754 474.422 104.127C469.489 103.037 465.924 108.194 465.924 108.194C465.924 108.194 470.043 110.081 475.028 111.275C478.61 112.14 482.297 110.167 482.297 110.167Z" fill="white"/>
<path d="M472.033 110.981C473.859 110.981 475.339 109.501 475.339 107.675C475.339 105.849 473.859 104.369 472.033 104.369C470.208 104.369 468.728 105.849 468.728 107.675C468.728 109.501 470.208 110.981 472.033 110.981Z" fill="black"/>
<path d="M465.906 108.195C465.906 108.195 470.718 103.833 475.08 104.75C480.289 105.841 482.28 110.168 482.28 110.168" stroke="black" stroke-width="2.5" stroke-miterlimit="10" stroke-linecap="round" stroke-linejoin="round"/>
<path d="M452.476 95.0924C448.166 93.6386 444.635 94.0366 440.793 95.2309C439.737 95.5597 438.37 95.9924 437.591 94.7116C437.054 93.8463 437.054 92.5655 437.418 91.6828C437.781 90.8001 438.422 90.2809 439.097 89.8655C441.433 88.4116 444.133 88.1347 446.816 88.0828C448.979 88.0309 452.528 87.7886 454.379 89.9866C456.629 92.6693 455.158 96.0097 452.476 95.0924Z" stroke="black" stroke-width="2.5" stroke-miterlimit="10" stroke-linecap="round" stroke-linejoin="round"/>
<path d="M465.75 95.7846C470.735 94.4519 474.699 95.1789 478.956 96.8058C480.133 97.2558 481.639 97.8443 482.625 96.4596C483.3 95.5077 483.387 94.0539 483.041 93.05C482.695 92.0289 482.002 91.3885 481.275 90.8693C478.749 89.0519 475.702 88.5327 472.674 88.2731C470.233 88.0654 466.218 87.5116 463.968 89.8481C461.233 92.7385 462.652 96.6154 465.75 95.7846Z" stroke="black" stroke-width="2.5" stroke-miterlimit="10" stroke-linecap="round" stroke-linejoin="round"/>
<path d="M437.608 104.058C437.608 104.058 439.322 102.275 443.268 101.323C448.097 100.146 451.714 104.681 451.714 104.681C451.714 104.681 448.27 108.229 443.32 107.693C439.737 107.295 437.608 104.058 437.608 104.058Z" fill="white"/>
<path d="M442.68 107.744C444.505 107.744 445.985 106.264 445.985 104.438C445.985 102.613 444.505 101.133 442.68 101.133C440.854 101.133 439.374 102.613 439.374 104.438C439.374 106.264 440.854 107.744 442.68 107.744Z" fill="black"/>
<path d="M451.731 104.681C451.731 104.681 447.491 100.908 443.285 101.323C439.945 101.652 437.626 104.058 437.626 104.058" stroke="black" stroke-width="2.5" stroke-miterlimit="10" stroke-linecap="round" stroke-linejoin="round"/>
<path d="M454.829 158.664C454.829 158.664 459.07 166.141 470.285 167.335C484.201 168.823 499.777 153.696 499.777 153.696L510.231 164.323C510.231 164.323 501.751 184.937 493.426 206.312C483.058 232.879 473.227 258.841 473.227 258.841C473.227 258.841 466.997 229.66 455.729 196.55C451.177 183.171 445.691 165.483 445.691 165.483L454.829 158.664Z" fill="#FEE8A5"/>
<path d="M511.183 164.029C511.183 164.029 503.239 184.989 497.735 198.126C494.499 205.827 489.601 218.099 486.762 225.956C476.36 254.774 471.341 286.949 471.341 286.949" stroke="black" stroke-width="2.5" stroke-miterlimit="10" stroke-linecap="round" stroke-linejoin="round"/>
<path d="M520.91 169.152C523.593 174.5 525.774 180.108 527.401 185.889C527.608 186.598 527.799 187.36 527.574 188.07C527.401 188.606 527.02 189.039 526.639 189.437C521.308 195.027 514.022 198.229 507.583 202.522C507.151 202.816 506.701 203.127 506.493 203.595C506.216 204.218 506.441 204.945 506.649 205.602C508.31 210.5 509.972 215.416 511.633 220.314C512.014 221.439 512.395 222.65 512.032 223.775C511.72 224.762 510.889 225.489 510.093 226.164C495.001 239.266 487.091 254.929 481.518 274.123" stroke="black" stroke-width="2.5" stroke-miterlimit="10" stroke-linecap="round" stroke-linejoin="round"/>
<path d="M454.051 191.6C463.224 218.669 466.27 235.596 471.237 256.781" stroke="black" stroke-width="2.5" stroke-miterlimit="10" stroke-linecap="round" stroke-linejoin="round"/>
<path d="M432.624 173.86C431.516 178.619 430.512 183.396 429.578 188.19C429.284 189.679 429.007 191.254 429.491 192.69C430.841 196.688 436.397 196.758 440.101 198.8C441.364 199.492 442.524 200.617 442.697 202.036C442.818 203.04 442.437 204.044 442.057 204.996C440.81 208.094 439.564 211.21 438.318 214.308C437.695 215.865 437.055 217.51 437.332 219.154C437.591 220.711 438.595 222.027 439.582 223.273C448.599 234.627 461.493 256.21 468.762 271.111" stroke="black" stroke-width="2.5" stroke-miterlimit="10" stroke-linecap="round" stroke-linejoin="round"/>
<path d="M445.743 166.434C448.547 173.34 451.576 180.142 454.812 186.84C459.329 181.907 466.703 175.867 471.22 170.934C473.504 175.573 480.341 184.521 484.945 191.807C492.491 183.067 499.622 177.044 506.528 165.932" stroke="black" stroke-width="2.5" stroke-miterlimit="10" stroke-linecap="round" stroke-linejoin="round"/>
<path d="M470.77 182.946C468.866 182.687 466.807 183.898 466.305 185.75C465.803 187.602 467.135 189.8 469.039 190.025C470.51 190.198 472.016 189.16 472.38 187.741C472.76 186.321 471.947 184.677 470.597 184.106" stroke="black" stroke-width="2.5" stroke-miterlimit="10" stroke-linecap="round" stroke-linejoin="round"/>
<path d="M469.991 200.825C468.053 200.791 466.426 202.989 467.031 204.841C467.637 206.693 470.251 207.489 471.791 206.295C473.331 205.1 473.21 202.366 471.583 201.327" stroke="black" stroke-width="2.5" stroke-miterlimit="10" stroke-linecap="round" stroke-linejoin="round"/>
<path d="M468.209 220.781C468.209 219.95 469.091 219.362 469.905 219.223C471.48 218.963 473.193 219.898 473.764 221.387C474.336 222.875 473.678 224.762 472.259 225.506C470.839 226.25 468.866 225.679 468.122 224.277" stroke="black" stroke-width="2.5" stroke-miterlimit="10" stroke-linecap="round" stroke-linejoin="round"/>
<path d="M528.82 275.715L498.791 275.525C495.572 275.508 492.976 272.877 492.993 269.64L493.062 258.044C493.08 254.825 495.71 252.229 498.947 252.246L528.976 252.437C532.195 252.454 534.791 255.085 534.774 258.321L534.705 269.917C534.67 273.137 532.039 275.75 528.82 275.715Z" fill="#32B2A8"/>
<path d="M505.714 121.019C502.893 126.869 497.753 129.534 493.374 127.423C488.995 125.311 488.441 117.021 491.262 111.171C494.083 105.321 499.518 104.577 503.897 106.688C508.258 108.817 508.535 115.186 505.714 121.019Z" fill="#FEB095"/>
<path d="M500.799 112.001C499.051 113.663 496.576 118.648 496.333 121.053" stroke="black" stroke-width="2.5" stroke-miterlimit="10" stroke-linecap="round" stroke-linejoin="round"/>
<path d="M542.735 245.894C543.652 262.994 545.972 353.167 548.135 377.208" stroke="black" stroke-width="2.5" stroke-miterlimit="10" stroke-linecap="round" stroke-linejoin="round"/>
<path d="M493.443 76.9539C493.443 76.9539 469.108 79.1 457.218 75.102C445.328 71.1212 445.397 69.2347 445.397 69.2347C445.397 69.2347 456.837 54.8866 473.176 57.6731C492.006 60.8924 497.735 71.9174 497.735 71.9174L493.443 76.9539Z" fill="black"/>
<path d="M456.924 131.196C462.514 132.962 469.333 129.743 472.016 127.908" stroke="black" stroke-width="2.5" stroke-miterlimit="10" stroke-linecap="round" stroke-linejoin="round"/>
<path d="M456.889 149.404C464.643 150.269 472.622 149.075 479.77 145.942" stroke="black" stroke-width="2.5" stroke-miterlimit="10" stroke-linecap="round" stroke-linejoin="round"/>
<path d="M364.622 210.881L389.545 277.221C389.545 277.221 418.76 340.291 384.283 351.177C344.407 363.777 338.418 314.191 332.516 274.85C329.02 251.537 327.393 223.377 327.393 223.377L364.622 210.881Z" fill="white"/>
<path d="M403.131 236.237C402.11 249.944 398.199 339.771 396.381 361.388" stroke="black" stroke-width="2.5" stroke-miterlimit="10" stroke-linecap="round" stroke-linejoin="round"/>
<path d="M368.949 220.366C377.222 243.229 384.318 266.508 390.185 290.116" stroke="black" stroke-width="2.5" stroke-miterlimit="10" stroke-linecap="round" stroke-linejoin="round"/>
<path d="M469.939 295.499C466.599 322.637 464.158 349.897 462.618 377.208" stroke="black" stroke-width="2.5" stroke-miterlimit="10" stroke-linecap="round" stroke-linejoin="round"/>
<path d="M213.872 177.321C213.872 177.321 215.482 166.608 210.878 162.42C206.274 158.231 182.372 154.891 172.42 154.596C162.468 154.32 148.276 154.718 143.361 158.075C138.462 161.433 133.824 175.175 133.824 175.175C133.824 175.175 162.451 220.746 190.645 212.941C218.839 205.135 213.872 177.321 213.872 177.321Z" fill="#32B2A8"/>
<path d="M269.62 221.006L222.093 236.202C222.093 236.202 231.786 284.595 254.286 317.497C266.228 334.96 306.295 328.885 297.555 295.377C291.895 273.76 269.62 221.006 269.62 221.006Z" fill="#C6896B"/>
<path d="M174.808 166.608C202.12 167.595 243.987 180.368 257.401 193.314C271.23 206.658 277.374 220.435 290.32 266.872L247.38 281.895C247.38 281.895 275.991 305.9 274 368C274 368 154.351 378.005 97.7892 377.901L89.395 274.21L81.2257 275.526C81.2257 275.526 75.8257 244.164 78.2315 228.553C82.3161 202.089 98.7065 186.253 117.555 177.01C132.751 169.551 147.133 165.605 174.808 166.608Z" fill="#32B2A8"/>
<path d="M199.489 164.86C199.489 164.86 195.508 150.806 193.345 137.116C190.455 118.96 160.478 101.393 156.358 119.566C152.326 137.323 149.816 163.008 149.816 163.008C149.816 163.008 178.426 187.793 184.916 188.07C190.126 188.295 199.489 164.86 199.489 164.86Z" fill="#C6896B"/>
<path d="M181.853 190.579C176.21 187.273 169.962 185.387 160.945 202.833C151.097 192.777 141.543 182.739 132.82 171.696" stroke="black" stroke-width="2.5" stroke-miterlimit="10" stroke-linecap="round" stroke-linejoin="round"/>
<path d="M189.693 192.535C190.212 191.531 191.805 191.099 193.085 191.341C194.366 191.583 195.353 192.327 196.218 193.106C198.849 195.512 200.701 198.472 201.514 201.656C207.866 192.05 209.372 183.241 211.085 170.675" stroke="black" stroke-width="2.5" stroke-miterlimit="10" stroke-linecap="round" stroke-linejoin="round"/>
<path d="M147.583 160.707C149.972 165.553 153.433 169.88 157.657 173.255" stroke="black" stroke-width="2.5" stroke-miterlimit="10" stroke-linecap="round" stroke-linejoin="round"/>
<path d="M252.26 221.318C246.358 238.228 246.826 254.739 246.445 268.932C245.77 294.287 245.77 321.98 245.77 321.98" stroke="black" stroke-width="2.5" stroke-miterlimit="10" stroke-linecap="round" stroke-linejoin="round"/>
<path d="M213.335 100.874C213.889 109.424 219.255 143.329 207.018 153.212C194.781 163.095 175.968 161.883 165.739 151.828C155.51 141.772 151.339 134.987 147.67 119.393C144.001 103.799 144.139 97.0313 148.83 87.564C157.12 70.8275 184.293 66.1717 198.243 74.566C209.96 81.6448 213.041 96.3737 213.335 100.874Z" fill="#C6896B"/>
<path d="M171.364 143.451C171.97 146.376 176.591 158.145 181.212 161.105C185.816 164.082 197.222 162.403 204.266 159.928C211.311 157.453 214.132 144.005 213.855 140.335C213.578 136.684 210.878 133.741 207.382 130.505C203.903 127.268 196.72 128.012 189.711 128.566C186.491 128.826 182.424 130.314 180.191 131.076C177.959 131.872 170.759 140.526 171.364 143.451ZM183.307 136.234C184.83 135.524 190.818 133.707 192.999 133.689C192.999 133.689 201.272 133.274 203.436 135.559C205.599 137.843 206.447 141.322 205.443 143.572C204.422 145.805 196.98 149.335 194.228 149.543C191.476 149.751 183.895 148.955 181.714 146.376C179.534 143.797 181.784 136.926 183.307 136.234Z" fill="black"/>
<path d="M148.259 121.851L160.634 120.414C160.634 120.414 162.191 99.7664 146.216 94.6433C146.199 94.6433 142.703 104.128 148.259 121.851Z" fill="black"/>
<path d="M193.397 114.72C193.397 114.72 195.561 117.108 197.759 119.687C199.628 121.868 198.745 125.346 196.011 126.229C195.059 126.541 194.107 126.818 193.137 127.06" stroke="black" stroke-width="2.5" stroke-miterlimit="10" stroke-linecap="round" stroke-linejoin="round"/>
<path d="M201.082 114.01C201.082 114.01 202.588 109.095 208.489 109.268C212.903 109.406 213.63 110.393 213.63 110.393C213.63 110.393 208.991 118.389 201.082 114.01Z" fill="white"/>
<path d="M209.112 114.27C210.823 114.27 212.21 112.883 212.21 111.172C212.21 109.461 210.823 108.074 209.112 108.074C207.401 108.074 206.014 109.461 206.014 111.172C206.014 112.883 207.401 114.27 209.112 114.27Z" fill="black"/>
<path d="M201.03 113.024C202.812 110.029 206.395 108.229 209.874 108.558C211.536 108.714 213.63 110.393 213.63 110.393" stroke="black" stroke-width="2.5" stroke-miterlimit="10" stroke-linecap="round" stroke-linejoin="round"/>
<path d="M184.311 116.242C184.311 116.242 181.368 112.019 175.812 114.01C171.641 115.498 169.841 117.61 169.841 117.61C169.841 117.61 176.505 122.733 184.311 116.242Z" fill="white"/>
<path d="M179.862 118.614C181.574 118.614 182.961 117.227 182.961 115.515C182.961 113.804 181.574 112.417 179.862 112.417C178.151 112.417 176.764 113.804 176.764 115.515C176.764 117.227 178.151 118.614 179.862 118.614Z" fill="black"/>
<path d="M184.051 115.273C181.438 112.971 177.457 112.348 174.272 113.75C172.732 114.408 171.417 115.481 170.032 116.398" stroke="black" stroke-width="2.5" stroke-miterlimit="10" stroke-linecap="round" stroke-linejoin="round"/>
<path d="M200.095 106.014C199.403 106.152 198.693 106.273 197.983 106.187C197.274 106.1 196.581 105.737 196.218 105.096C195.681 104.127 196.08 102.812 196.876 102.068C197.672 101.306 198.728 100.995 199.766 100.752C202.328 100.146 204.941 99.8349 207.555 99.8003C208.437 99.783 209.389 99.8349 210.116 100.406C210.826 100.96 211.155 102.016 210.878 102.916C210.324 104.785 208.281 104.525 206.845 104.785C204.578 105.183 202.328 105.598 200.095 106.014Z" stroke="black" stroke-width="2.5" stroke-miterlimit="10" stroke-linecap="round" stroke-linejoin="round"/>
<path d="M181.247 103.141C181.956 102.916 182.683 102.691 183.306 102.275C183.93 101.86 184.431 101.185 184.483 100.441C184.553 99.3156 183.583 98.3464 182.493 98.0522C181.403 97.758 180.26 98.0003 179.17 98.2772C176.487 98.9695 173.891 99.956 171.416 101.185C170.568 101.6 169.703 102.102 169.287 102.95C168.872 103.798 169.045 104.889 169.703 105.546C171.07 106.948 172.87 105.719 174.358 105.269C176.643 104.56 178.945 103.85 181.247 103.141Z" stroke="black" stroke-width="2.5" stroke-miterlimit="10" stroke-linecap="round" stroke-linejoin="round"/>
<path d="M160.616 120.431C160.616 120.431 153.382 114.928 148.207 117.299C143.014 119.67 144.347 129.414 149.643 134.018C154.939 138.604 163.403 137.324 163.593 135.091C163.783 132.858 160.616 120.431 160.616 120.431Z" fill="#C6896B"/>
<path d="M152.862 122.369C156.358 125.104 158.868 129.102 159.82 133.446" stroke="black" stroke-width="2.5" stroke-miterlimit="10" stroke-linecap="round" stroke-linejoin="round"/>
<path d="M204.733 157.522C188.36 169.084 168.301 158.976 160.841 150.859" stroke="black" stroke-width="2.5" stroke-miterlimit="10" stroke-linecap="round" stroke-linejoin="round"/>
<path d="M267.595 256.781C259.997 270.887 254.441 286.1 251.118 301.781" stroke="black" stroke-width="2.5" stroke-miterlimit="10" stroke-linecap="round" stroke-linejoin="round"/>
<path d="M260.793 276.287L226.905 286.274L123.958 301.02C123.958 301.02 104.799 306.022 114.958 333.714C123.664 357.408 159.699 347.976 212.764 323.849C222.924 319.227 234.312 313.637 242.551 309.501C249.387 306.074 269.689 301.677 269.689 301.677L260.793 276.287Z" fill="#C6896B"/>
<path d="M138.964 261.177L88.9277 272.393C88.9277 272.393 97.097 316.579 118.818 340.395C132.474 355.383 162.901 340.793 156.22 319.47C149.522 298.164 138.964 261.177 138.964 261.177Z" fill="#C6896B"/>
<path d="M146.597 297.593L234.226 319.92C234.226 319.92 294.006 343.129 297.624 307.926C301.172 273.189 232.824 269.226 193.258 272.081C171.139 273.674 140.989 280.303 140.989 280.303L146.597 297.593Z" fill="#C6896B"/>
<path d="M123.82 304.049C140.003 298.58 162.52 295.499 179.205 291.916" stroke="black" stroke-width="2.5" stroke-miterlimit="10" stroke-linecap="round" stroke-linejoin="round"/>
<path d="M128.078 216.628C133.547 239.37 142.789 274.522 146.597 297.593" stroke="black" stroke-width="2.5" stroke-miterlimit="10" stroke-linecap="round" stroke-linejoin="round"/>
<path d="M165.532 290.462C177.491 290.514 188.586 296.191 199.386 301.331C218.528 310.452 238.311 318.258 258.509 324.697" stroke="black" stroke-width="2.5" stroke-miterlimit="10" stroke-linecap="round" stroke-linejoin="round"/>
<path d="M237.359 271.199C256.155 273.916 274.432 280.199 290.909 289.631" stroke="black" stroke-width="2.5" stroke-miterlimit="10" stroke-linecap="round" stroke-linejoin="round"/>
<path d="M187.5 142C191 138.752 195.657 139.254 200 138.752" stroke="black" stroke-width="2.5" stroke-miterlimit="10" stroke-linecap="round" stroke-linejoin="round"/>
<path d="M341.58 128.035C366.889 117.847 379.618 89.3633 379.992 72.2295C380.442 52.1863 361.217 28.8889 333.373 23.7258C305.529 18.5626 280.434 24.4502 265.756 48.6676C250.679 73.5289 254.076 101.219 269.104 113.592C284.131 125.954 321.082 136.292 341.58 128.035Z" fill="white"/>
<path d="M277.245 69.9999C280.791 80.4821 291.014 101.895 295.71 111.562C297.108 114.444 300.331 115.95 303.44 115.189L348.829 104.037C351.894 103.282 354.037 100.518 353.999 97.3606C353.897 88.8755 353.584 72.0564 352.634 59.1884C351.959 50.0771 348.213 34.4779 330.8 37.3171C311.99 40.3829 298.468 42.8227 283.695 50.5197C278.675 53.143 274.141 60.8346 277.245 69.9999Z" fill="#B1B5D7"/>
<path d="M299.602 67.4521C307.666 65.4388 330.055 59.6957 334.228 58.6107C332.787 53.2832 327.297 48.1447 321.997 46.6064C316.696 45.068 310.494 45.5538 306.03 48.7978C298.749 54.0929 297.518 61.628 299.602 67.4521Z" fill="white"/>
<path d="M311.887 47.8749C312.421 49.2729 312.832 50.7194 313.107 52.1876" stroke="black" stroke-width="2" stroke-miterlimit="10" stroke-linecap="round" stroke-linejoin="round"/>
<path d="M300.277 63.7873C301.394 63.6415 302.5 63.4202 303.591 63.1234" stroke="black" stroke-width="2" stroke-miterlimit="10" stroke-linecap="round" stroke-linejoin="round"/>
<path d="M303.11 54.0336C304.163 54.4762 305.183 54.9944 306.155 55.5935" stroke="black" stroke-width="2" stroke-miterlimit="10" stroke-linecap="round" stroke-linejoin="round"/>
<path d="M323.4 48.8303C322.941 50.1203 322.407 51.3887 321.808 52.6194" stroke="black" stroke-width="2" stroke-miterlimit="10" stroke-linecap="round" stroke-linejoin="round"/>
<path d="M329.721 52.9595C328.728 53.8663 327.734 54.7731 326.741 55.6799" stroke="black" stroke-width="2" stroke-miterlimit="10" stroke-linecap="round" stroke-linejoin="round"/>
<path d="M317.808 62.5079C316.939 62.2165 315.838 61.979 315.223 62.6591C314.721 63.215 314.866 64.1272 315.325 64.7156C315.536 64.9908 315.816 65.2229 316.151 65.3093C316.399 65.3741 316.658 65.3633 316.912 65.3093C317.549 65.1797 318.159 64.7587 318.364 64.1434C318.569 63.5281 318.272 62.6645 317.808 62.5079Z" stroke="black" stroke-width="2" stroke-miterlimit="10" stroke-linecap="round" stroke-linejoin="round"/>
<path d="M323.249 54.9674C321.527 57.5583 319.767 60.1006 317.981 62.6051" stroke="black" stroke-width="2" stroke-miterlimit="10" stroke-linecap="round" stroke-linejoin="round"/>
<path d="M281.358 62.2812C281.304 67.8138 283.274 73.1467 285.379 78.2583C288.844 86.6625 292.758 94.8777 297.103 102.855C297.977 104.464 298.922 106.121 300.417 107.184C301.761 108.14 303.44 108.523 305.086 108.653C308.718 108.933 312.33 108.086 315.865 107.201C324.933 104.928 333.931 102.397 342.848 99.5952C345.557 98.7478 348.38 97.7924 350.307 95.7089" stroke="black" stroke-width="2" stroke-miterlimit="10" stroke-linecap="round" stroke-linejoin="round"/>
</g>
<defs>
<clipPath id="clip0_1139_3839">
<rect width="680" height="360" rx="24" fill="white"/>
</clipPath>
</defs>
</svg>
