<svg width="680" height="360" viewBox="0 0 680 360" fill="none" xmlns="http://www.w3.org/2000/svg">
<g clip-path="url(#clip0_1139_4362)">
<rect width="680" height="360" rx="24" fill="#E4CFEB"/>
<rect width="680" height="360" rx="24" fill="#BFE1FC"/>
<path d="M462.345 191.457C430.012 190.247 378.243 202.033 350.027 226.737C315.294 257.119 232.617 375.095 281.732 400.52C340.993 431.195 360.76 356.987 360.76 356.987C359.686 402.608 361.404 415.936 361.404 415.936L561.979 420.599H616.147C616.147 420.599 622.528 255.167 555.52 217.409C540.612 209.038 507.264 193.135 462.345 191.457Z" fill="white"/>
<path d="M423.709 200.101C423.709 200.101 427.26 184.393 429.758 168.178C433.075 146.655 477.721 128.332 480.785 150.831C483.673 171.944 486.99 194.091 486.99 194.091C486.99 194.091 480.921 218.932 448.217 217.449C429.856 216.59 423.709 200.101 423.709 200.101Z" fill="#FEB095"/>
<path d="M408.703 123.279C402.498 149.172 396.02 178.988 423.689 183.925C447.183 188.121 466.013 184.842 480.004 159.027C495.81 129.874 489.214 97.6578 460.159 86.8085C440.197 79.374 415.982 92.8966 408.703 123.279Z" fill="#FEB095"/>
<path d="M404.567 140.079C404.567 140.079 413.114 108.214 424.119 95.7844C424.119 95.7844 463.555 120.8 487.01 129.523C505.43 136.372 521.216 100.097 515.772 92.7599C510.328 85.4035 488.61 70.8662 476.317 79.9203C476.317 79.9203 477.917 68.1148 464.901 65.7538C451.886 63.3732 436.646 68.0758 436.49 77.4031C436.49 77.4031 419.924 70.2027 414.382 83.2765C408.84 96.3503 405.991 122.83 405.991 122.83L404.567 140.079Z" fill="#C2C2C2"/>
<path d="M503.654 117.152L484.961 154.461L475.048 145.816L475.282 108.41C475.282 108.41 500.591 112.234 503.654 117.152Z" fill="#C2C2C2"/>
<path d="M491.756 155.429C495.773 148.727 494.967 140.86 489.957 137.857C484.947 134.854 477.629 137.853 473.612 144.555C469.595 151.257 470.401 159.124 475.411 162.127C480.421 165.13 487.739 162.131 491.756 155.429Z" fill="#FEB095"/>
<path d="M491.088 145.289C487.849 146.772 485.156 149.465 483.673 152.704" stroke="black" stroke-width="2.73183" stroke-miterlimit="10" stroke-linecap="round" stroke-linejoin="round"/>
<path d="M432.119 131.747L425.251 148.489L433.856 150.811" stroke="black" stroke-width="2.73183" stroke-miterlimit="10" stroke-linecap="round" stroke-linejoin="round"/>
<path d="M462.169 139.279C454.266 134.342 445.036 137.25 445.036 137.25C446.071 137.425 446.383 137.679 447.397 137.991C451.476 139.182 455.339 141.152 458.696 143.767" stroke="black" stroke-width="2.73183" stroke-miterlimit="10" stroke-linecap="round" stroke-linejoin="round"/>
<path d="M426.714 114.849C421.875 112.956 417.816 112.292 412.996 112.39C411.67 112.429 409.952 112.468 409.367 111.278C408.977 110.458 409.328 109.424 409.991 108.819C410.655 108.195 411.553 107.922 412.45 107.726C415.572 107.063 418.831 107.434 421.973 107.98C424.529 108.409 427.339 109.17 428.646 111.414C429.114 112.214 429.329 113.229 428.939 114.068C428.548 114.927 427.573 115.2 426.714 114.849Z" stroke="black" stroke-width="2.73183" stroke-miterlimit="10" stroke-linecap="round" stroke-linejoin="round"/>
<path d="M464.042 132.371C458.774 130.205 454.325 129.405 449.036 129.444C447.573 129.464 445.7 129.483 445.075 128.156C444.666 127.259 445.056 126.127 445.797 125.464C446.539 124.8 447.534 124.488 448.51 124.312C451.963 123.649 455.515 124.117 458.969 124.761C461.759 125.288 464.842 126.166 466.228 128.644C466.715 129.542 466.93 130.654 466.501 131.571C466.052 132.488 464.979 132.761 464.042 132.371Z" stroke="black" stroke-width="2.73183" stroke-miterlimit="10" stroke-linecap="round" stroke-linejoin="round"/>
<path d="M411.221 124.82C411.221 124.82 414.07 123.98 418.773 125.366C424.509 127.044 425.583 133.932 425.583 133.932C425.583 133.932 418.753 135.805 413.894 132.293C410.382 129.717 411.221 124.82 411.221 124.82Z" fill="white"/>
<path d="M418.343 133.659C420.541 133.659 422.324 131.877 422.324 129.678C422.324 127.48 420.541 125.698 418.343 125.698C416.145 125.698 414.362 127.48 414.362 129.678C414.362 131.877 416.145 133.659 418.343 133.659Z" fill="black"/>
<path d="M425.583 133.932C425.583 133.932 423.417 127.453 418.773 125.365C415.085 123.707 411.221 124.819 411.221 124.819" stroke="black" stroke-width="2.73183" stroke-miterlimit="10" stroke-linecap="round" stroke-linejoin="round"/>
<path d="M477.252 122.81C477.252 122.81 469.857 142.752 464.315 150.616C458.774 158.48 445.056 159.748 431.982 157.426C409.171 153.406 405.073 133.913 405.073 133.913C405.073 133.913 395.668 169.309 400.078 177.817C407.61 192.374 423.026 195.828 434.733 197.35C446.461 198.872 462.286 194.715 468.725 180.764C477.916 160.88 485.155 128.234 485.155 128.234L477.252 122.81Z" fill="#C2C2C2"/>
<path d="M427.202 163.359C427.202 163.359 437.427 170.832 446.579 162.266" stroke="black" stroke-width="2.73183" stroke-miterlimit="10" stroke-linecap="round" stroke-linejoin="round"/>
<path d="M429.777 89.4621C438.831 94.7306 449.661 96.4868 460.1 95.5307C470.54 94.5745 480.589 91.0427 489.975 86.379" stroke="black" stroke-width="2.73183" stroke-miterlimit="10" stroke-linecap="round" stroke-linejoin="round"/>
<path d="M445.485 95.4131C464.549 106.34 489.311 102.087 501.058 93.3447" stroke="black" stroke-width="2.73183" stroke-miterlimit="10" stroke-linecap="round" stroke-linejoin="round"/>
<path d="M461.818 107.843C468.745 111.804 479.496 113.834 487.633 109.19" stroke="black" stroke-width="2.73183" stroke-miterlimit="10" stroke-linecap="round" stroke-linejoin="round"/>
<path d="M402.498 200.101L452.198 298.974L503.888 197.272C512.572 199.731 530.368 204.141 540.905 210.014C540.905 210.014 533.158 281.588 550.583 324.751L547.051 420.561L353.813 420.248L352.447 320.673C352.447 320.673 352.486 289.237 369.092 213.136C376.819 209.058 396.488 201.467 402.498 200.101Z" fill="#419AE1"/>
<path d="M411.435 200.102C416.606 212.961 428.002 227.264 435.612 238.835C440.393 233.879 445.173 228.922 449.954 223.966C454.091 229.02 458.228 234.074 462.384 239.108C463.067 239.947 463.926 240.845 464.999 240.767C465.779 240.708 466.404 240.123 466.97 239.577C477.624 229.137 488.571 212.102 497.391 200.082" stroke="black" stroke-width="2.73183" stroke-miterlimit="10" stroke-linecap="round" stroke-linejoin="round"/>
<path d="M390.029 207.38C404.82 248.006 427.299 288.515 450.929 324.732C477.135 287.344 494.17 243.538 514.249 202.521" stroke="black" stroke-width="2.73183" stroke-miterlimit="10" stroke-linecap="round" stroke-linejoin="round"/>
<path d="M564.105 282.739C556.924 292.047 550.602 311.384 550.602 324.731" stroke="black" stroke-width="2.73183" stroke-miterlimit="10" stroke-linecap="round" stroke-linejoin="round"/>
<path d="M447.378 237.625C446.129 238.659 445.388 240.278 445.446 241.898C447.085 243.362 449.895 243.732 451.398 242.113C452.9 240.513 451.593 237.137 449.427 237.488" stroke="black" stroke-width="2.73183" stroke-miterlimit="10" stroke-linecap="round" stroke-linejoin="round"/>
<path d="M450.052 256.982C448.92 255.987 447.008 256.806 446.227 258.094C445.076 260.006 445.661 262.777 447.515 264.026C449.369 265.255 452.198 264.709 453.408 262.836C454.618 260.962 453.935 258.113 451.964 257.04" stroke="black" stroke-width="2.73183" stroke-miterlimit="10" stroke-linecap="round" stroke-linejoin="round"/>
<path d="M339.471 269.977C346.418 283.11 352.272 301.94 352.447 316.789" stroke="black" stroke-width="2.73183" stroke-miterlimit="10" stroke-linecap="round" stroke-linejoin="round"/>
<path d="M155.521 200.511C155.521 200.511 150.818 198.521 143.422 196.55C136.027 194.579 127.402 199.497 129.197 207.087C129.197 207.087 122.465 212.648 126.875 220.278C126.875 220.278 119.987 225.683 125.509 232.903C125.509 232.903 122.212 236.396 126.524 241.606C129.529 245.216 155.501 253.841 165.062 253.255L171.892 264.163L202.001 235.362C202.001 235.362 187.112 215.341 183.658 210.658C175.775 200.004 163.97 187.769 162.682 184.413C160.399 178.461 158.545 174.208 156.711 173.915C149.14 172.686 149.276 182.169 155.521 200.511Z" fill="#FBB49B"/>
<path d="M129.002 205.936C129.002 205.936 128.163 211.38 138.154 216.2C147.949 220.922 158.33 221.527 160.028 217.585C163.014 210.58 148.945 210.522 142.076 203.868" stroke="#030000" stroke-width="2.73183" stroke-miterlimit="10" stroke-linecap="round" stroke-linejoin="round"/>
<path d="M125.354 218.99C125.354 218.99 126.29 223.829 140.34 228.2C150.272 231.283 162.487 230.542 158.37 220.59" stroke="#030000" stroke-width="2.73183" stroke-miterlimit="10" stroke-linecap="round" stroke-linejoin="round"/>
<path d="M125.509 232.903C125.509 232.903 134.661 241.215 145.744 238.874C155.442 236.844 152.027 231.147 152.027 231.147" stroke="#030000" stroke-width="2.73183" stroke-miterlimit="10" stroke-linecap="round" stroke-linejoin="round"/>
<path d="M144.71 240.728C146.193 246.894 140.671 246.894 140.671 246.894" stroke="#030000" stroke-width="2.73183" stroke-miterlimit="10" stroke-linecap="round" stroke-linejoin="round"/>
<path d="M155.56 200.862C154.936 203.828 154.741 206.872 154.975 209.897" stroke="#030000" stroke-width="2.73183" stroke-miterlimit="10" stroke-linecap="round" stroke-linejoin="round"/>
<path d="M153.706 230.191C154.935 237.099 158.233 243.616 163.072 248.709" stroke="#030000" stroke-width="2.73183" stroke-miterlimit="10" stroke-linecap="round" stroke-linejoin="round"/>
<path d="M155.462 174.559C155.462 176.295 155.716 178.091 156.555 179.632C157.394 181.154 158.916 182.403 160.653 182.54" stroke="#030000" stroke-width="2.73183" stroke-miterlimit="10" stroke-linecap="round" stroke-linejoin="round"/>
<path d="M165.062 261.373L202.274 226.737C202.274 226.737 285.595 288.028 314.474 317.532C343.334 347.035 355.627 376.149 341.87 392.072C316.972 420.873 279.916 412.99 252.188 379.193C224.46 345.396 165.062 261.373 165.062 261.373Z" fill="white"/>
<path d="M281.634 286.33C301.694 301.648 327.002 323.347 348.974 359.699" stroke="black" stroke-width="2.73183" stroke-miterlimit="10" stroke-linecap="round" stroke-linejoin="round"/>
<path d="M184.771 286.33C197.161 274.72 209.533 263.109 221.923 251.499" stroke="black" stroke-width="2.73183" stroke-miterlimit="10" stroke-linecap="round" stroke-linejoin="round"/>
<path d="M177.726 265.451C176.243 266.563 176.946 269.295 178.722 269.841C180.497 270.388 182.468 269.002 182.917 267.207C183.014 266.856 183.053 266.485 182.995 266.114C182.839 264.944 181.649 264.066 180.458 264.085C179.268 264.105 178.195 264.905 177.648 265.958" stroke="black" stroke-width="2.73183" stroke-miterlimit="10" stroke-linecap="round" stroke-linejoin="round"/>
<path d="M150.721 138.694C167.678 147.923 190.625 141.835 201.377 134.167C213.943 125.191 220.246 103.941 211.699 86.262C203.152 68.5832 188.927 57.4997 167.795 60.5438C146.096 63.6854 130.427 78.2812 129.1 92.2135C127.773 106.146 136.984 131.22 150.721 138.694Z" fill="white"/>
<path d="M151.033 111.785C151.033 111.785 144.945 109.795 146.272 101.931C146.272 101.931 144.282 93.7356 150.155 91.6282C150.155 91.6282 151.365 84.0962 158.234 84.4279C158.234 84.4279 160.009 79.0032 166.663 80.6619C166.663 80.6619 169.707 77.2666 174.449 80.3497C174.449 80.3497 181.63 77.891 184.83 82.3205C184.83 82.3205 190.918 81.4229 192.577 85.5401C192.577 85.5401 199.992 85.5401 200.558 93.6186C200.558 93.6186 206.529 102.263 200.558 107.688C194.587 113.112 188.928 110.458 188.928 110.458C188.928 110.458 185.61 117.776 178.742 117.444C171.873 117.112 169.102 122.869 168.224 128.293H162.136L163.248 121.971C163.229 121.971 150.936 123.532 151.033 111.785Z" fill="#DDDDDD"/>
<path d="M157.473 102.282C154.897 102.516 152.633 104.35 151.502 106.672C150.35 108.975 150.214 111.706 150.682 114.243" stroke="black" stroke-width="1.95131" stroke-miterlimit="10" stroke-linecap="round" stroke-linejoin="round"/>
<path d="M157.121 111.336C158.156 113.151 159.912 114.575 161.961 115.063C164.009 115.551 166.273 115.005 167.795 113.541" stroke="black" stroke-width="1.95131" stroke-miterlimit="10" stroke-linecap="round" stroke-linejoin="round"/>
<path d="M183.366 99.7062C181.786 100.682 180.693 102.379 180.439 104.214C180.381 104.702 180.361 105.189 180.361 105.677C180.361 106.985 180.537 108.468 181.61 109.229" stroke="black" stroke-width="1.95131" stroke-miterlimit="10" stroke-linecap="round" stroke-linejoin="round"/>
<path d="M184.596 103.258C187.484 104.428 189.416 107.589 189.162 110.712C189.123 111.141 189.045 111.551 188.928 111.941C188.577 113.014 187.816 113.873 187.055 114.712" stroke="black" stroke-width="1.95131" stroke-miterlimit="10" stroke-linecap="round" stroke-linejoin="round"/>
<path d="M194.703 105.599C196.03 103.394 195.406 100.233 193.357 98.6914C195.757 99.5695 198.665 98.2426 199.855 95.9791C201.065 93.7156 200.655 90.7886 199.172 88.7007" stroke="black" stroke-width="1.95131" stroke-miterlimit="10" stroke-linecap="round" stroke-linejoin="round"/>
<path d="M184.01 88.5253C183.971 89.7156 184.557 90.8864 185.435 91.7059C186.313 92.5255 187.444 93.0328 188.596 93.345C189.454 93.5792 190.371 93.7158 191.25 93.5401C192.128 93.3645 192.967 92.7986 193.298 91.9791" stroke="black" stroke-width="1.95131" stroke-miterlimit="10" stroke-linecap="round" stroke-linejoin="round"/>
<path d="M163.892 79.998C164.985 80.0371 166.116 80.0566 167.092 80.5639C168.243 81.1688 168.965 82.3396 169.531 83.5104C169.843 84.1543 170.117 84.8373 170.331 85.5203C170.585 86.3788 170.741 87.2764 170.76 88.174" stroke="black" stroke-width="1.95131" stroke-miterlimit="10" stroke-linecap="round" stroke-linejoin="round"/>
<path d="M155.287 98.5941C155.561 95.6086 157.122 92.6036 159.775 91.1987C161.024 90.5352 162.468 90.262 163.873 90.3986" stroke="black" stroke-width="1.95131" stroke-miterlimit="10" stroke-linecap="round" stroke-linejoin="round"/>
<path d="M159.697 95.5689C160.38 98.1056 162.351 100.252 164.809 101.189C167.268 102.106 170.175 101.774 172.361 100.311C174.702 98.7496 176.107 96.0763 176.634 93.3054" stroke="black" stroke-width="1.95131" stroke-miterlimit="10" stroke-linecap="round" stroke-linejoin="round"/>
<path d="M170.156 95.6283C170.37 94.3209 170.585 92.9745 171.288 91.8428C172.244 90.3012 174 89.3841 175.795 89.1304C177.083 88.9548 178.507 89.15 179.385 90.0866" stroke="black" stroke-width="1.95131" stroke-miterlimit="10" stroke-linecap="round" stroke-linejoin="round"/>
<path d="M167.483 109.365C167.346 107.862 167.815 106.379 168.576 105.072C169.317 103.765 170.332 102.633 171.327 101.521C171.737 101.072 172.146 100.623 172.693 100.33" stroke="black" stroke-width="1.95131" stroke-miterlimit="10" stroke-linecap="round" stroke-linejoin="round"/>
<path d="M262.316 46.4948C247.564 57.4416 243.662 79.6865 245.984 92.0188C248.696 106.459 264.541 120.391 283.215 120.079C301.889 119.766 317.129 111.942 322.943 92.4676C328.914 72.4862 322.573 53.1097 311.06 46.4167C299.547 39.7237 274.258 37.6358 262.316 46.4948Z" fill="white"/>
<path d="M279.176 58.8852C276.23 64.3489 267.624 78.5154 266.766 80.857C265.907 83.179 269.185 83.0229 272.971 83.179C276.756 83.3546 281.752 83.179 281.752 83.179C281.752 83.179 272.795 98.2822 271.41 101.443C270.024 104.604 270.376 105.951 272.444 105.443C274.512 104.936 290.377 90.2037 294.513 86.5158C298.65 82.8278 302.884 78.1837 300.426 77.2275C297.967 76.2519 287.957 76.7592 287.957 76.7592C287.957 76.7592 294.338 68.4856 296.23 65.9685C298.123 63.4513 300.894 60.7389 301.148 58.8852C301.401 57.0315 298.631 56.3485 293.986 56.5241C289.342 56.6802 281.401 54.7289 279.176 58.8852Z" fill="#F8CD3D"/>
<path d="M271.41 100.955C270.024 104.117 270.376 105.463 272.444 104.956C274.512 104.448 290.377 89.7159 294.513 86.0279C298.65 82.34 302.884 77.6958 300.426 76.7397C297.967 75.764 287.957 76.2714 287.957 76.2714" stroke="black" stroke-width="1.95131" stroke-miterlimit="10" stroke-linecap="round" stroke-linejoin="round"/>
<path d="M279.176 58.3975C276.23 63.8611 267.624 78.0276 266.766 80.3692C265.907 82.6913 269.185 82.5352 272.971 82.6913C276.756 82.8669 281.752 82.6913 281.752 82.6913C281.752 82.6913 276.073 92.2527 273.068 97.7554" stroke="black" stroke-width="1.95131" stroke-miterlimit="10" stroke-linecap="round" stroke-linejoin="round"/>
<path d="M289.42 74.3979C291.43 71.8026 294.923 67.2366 296.23 65.4804C298.123 62.9632 300.894 60.2509 301.148 58.3971C301.401 56.5434 298.631 55.8604 293.986 56.036C290.123 56.1726 283.996 54.8653 280.757 56.7775" stroke="black" stroke-width="1.95131" stroke-miterlimit="10" stroke-linecap="round" stroke-linejoin="round"/>
<path d="M294.396 81.618C291.898 83.745 289.537 86.028 287.332 88.4476" stroke="black" stroke-width="1.95131" stroke-miterlimit="10" stroke-linecap="round" stroke-linejoin="round"/>
<path d="M285.518 90.3005C285.167 90.6127 284.816 90.9054 284.484 91.2177" stroke="black" stroke-width="1.95131" stroke-miterlimit="10" stroke-linecap="round" stroke-linejoin="round"/>
<path d="M98.2106 208.005C100.452 208.005 102.269 206.188 102.269 203.946C102.269 201.705 100.452 199.887 98.2106 199.887C95.969 199.887 94.1519 201.705 94.1519 203.946C94.1519 206.188 95.969 208.005 98.2106 208.005Z" stroke="#030000" stroke-width="2.73183" stroke-linecap="round" stroke-linejoin="round"/>
<path d="M363.059 78.8262C365.3 78.8262 367.117 77.009 367.117 74.7675C367.117 72.5259 365.3 70.7087 363.059 70.7087C360.817 70.7087 359 72.5259 359 74.7675C359 77.009 360.817 78.8262 363.059 78.8262Z" stroke="#030000" stroke-width="2.73183" stroke-linecap="round" stroke-linejoin="round"/>
<path d="M109.879 178.17C111.596 179.77 112.084 182.697 114.406 183.438C117.47 184.297 118.328 180.999 119.421 179.146C120.163 177.916 120.885 176.824 121.997 175.965C122.856 175.106 124.319 174.619 124.807 173.643C125.178 173.038 125.178 172.296 124.924 171.555C124.924 171.067 124.553 170.579 123.948 170.209C123.578 169.955 123.09 169.838 122.719 169.604C120.397 168.374 118.68 166.54 117.567 164.218C115.85 160.667 114.016 160.667 112.923 161.779C110.972 163.613 111.206 165.935 110.348 168.14C109.743 169.74 108.63 170.579 107.284 171.438C106.425 172.043 105.567 172.531 105.333 173.526C104.611 176.219 108.279 176.941 109.879 178.17Z" fill="#FEE8A5"/>
<path d="M123.714 172.296C121.88 171.691 120.416 170.579 119.07 168.999C116.494 166.052 115.518 160.179 115.518 160.179C115.518 160.179 115.265 164.959 111.85 168.862C110.133 170.696 106.581 172.296 106.581 172.296C111.362 173.526 115.265 178.794 115.148 183.672C115.635 181.233 116.494 178.775 117.84 176.687C119.304 174.501 121.255 173.038 123.714 172.296Z" stroke="black" stroke-width="2.73183" stroke-miterlimit="10" stroke-linecap="round" stroke-linejoin="round"/>
<path d="M374.727 48.9912C376.445 50.5913 376.932 53.5182 379.254 54.2597C382.318 55.1183 383.177 51.8206 384.269 49.9669C385.011 48.7375 385.733 47.6448 386.845 46.7862C387.704 45.9276 389.167 45.4398 389.655 44.4642C390.026 43.8592 390.026 43.1178 389.772 42.3763C389.772 41.8884 389.401 41.4006 388.796 41.0298C388.426 40.7762 387.938 40.6591 387.567 40.4249C385.245 39.1956 383.528 37.3614 382.416 35.0393C380.698 31.4879 378.864 31.4879 377.771 32.6002C375.82 34.4344 376.054 36.7565 375.196 38.9615C374.591 40.5615 373.479 41.4006 372.132 42.2592C371.274 42.8641 370.415 43.3519 370.181 44.3471C369.459 47.0399 373.127 47.7619 374.727 48.9912Z" fill="#FEE8A5"/>
<path d="M388.562 43.1176C386.728 42.5127 385.264 41.4004 383.918 39.8199C381.342 36.8734 380.366 30.9999 380.366 30.9999C380.366 30.9999 380.113 35.7807 376.698 39.6833C374.981 41.5175 371.429 43.1176 371.429 43.1176C376.21 44.3469 380.113 49.6154 379.996 54.4937C380.484 52.0546 381.342 49.5959 382.689 47.508C384.152 45.3226 386.103 43.8591 388.562 43.1176Z" stroke="black" stroke-width="2.73183" stroke-miterlimit="10" stroke-linecap="round" stroke-linejoin="round"/>
<path d="M249.652 203.4C256.853 211.829 274.044 221.176 291.293 217.625C308.543 214.073 316.953 207.712 321.968 190.326C326.963 172.94 324.992 155.554 310.416 147.534C295.84 139.514 272.463 136.665 260.911 146.773C249.36 156.88 243.798 169.486 243.096 180.823C242.393 192.16 247.252 200.57 249.652 203.4Z" fill="white"/>
<path d="M278.592 152.575C278.224 154.808 277.854 157.039 277.486 159.273C276.842 157.995 276.198 156.714 275.555 155.436C275.418 155.167 275.246 154.867 274.948 154.808C274.748 154.768 274.545 154.855 274.359 154.938C273.956 155.12 273.552 155.301 273.149 155.483C272.772 155.653 272.364 155.853 272.194 156.23C272.057 156.532 272.107 156.881 272.158 157.209C272.439 158.971 272.717 160.73 272.998 162.492C271.927 161.669 270.932 160.747 270.029 159.745C268.932 160.162 267.621 160.91 267.753 162.077C267.807 162.56 268.118 162.971 268.335 163.407C269.253 165.247 268.519 167.433 267.953 169.409C266.222 175.463 266.248 182.008 268.024 188.05C269.8 194.09 273.321 199.609 278.054 203.762C279.323 204.875 280.701 205.908 282.278 206.505C283.637 207.019 285.094 207.194 286.538 207.363C287.762 207.507 289.047 207.646 290.193 207.191C291.04 206.856 291.736 206.222 292.361 205.559C295.79 201.927 297.679 197.125 299.127 192.345C299.669 190.553 300.021 188.715 300.174 186.85C300.443 183.586 300.752 177.081 296.773 172.511C294.453 169.843 290.665 167.914 288.493 165.126C288.132 164.662 287.774 164.103 287.901 163.53C287.986 163.138 288.283 162.832 288.592 162.577C289.842 161.544 291.615 160.869 292.061 159.311C292.384 158.174 291.851 156.99 291.332 155.929C291.009 155.266 290.566 154.518 289.832 154.443C289.349 154.393 288.898 154.662 288.488 154.919C286.514 156.162 285.009 157.242 282.87 159.66C282.352 158.263 282.929 155.778 283.274 154.33C283.347 154.025 283.394 153.693 283.262 153.407C283.054 152.962 282.505 152.808 282.019 152.726C280.847 152.523 279.656 152.424 278.597 152.577L278.592 152.575Z" fill="#FBB49C"/>
<path d="M291.884 160.99C287.731 162.907 284.901 167.388 284.953 171.961C284.991 175.199 286.34 178.338 286.215 181.574C286.12 184.032 285.139 186.444 283.493 188.272" stroke="black" stroke-width="2" stroke-linecap="round" stroke-linejoin="round"/>
<path d="M266.682 181.202C267.901 187.013 269.239 192.895 272.104 198.095C274.97 203.295 280.783 206.125 286.559 207.503" stroke="black" stroke-width="2" stroke-linecap="round" stroke-linejoin="round"/>
<path d="M288.172 163.969C287.927 164.891 288.488 165.818 289.04 166.596C289.589 167.372 290.163 168.143 290.868 168.782C291.354 169.223 291.896 169.596 292.436 169.968C293.401 170.631 294.368 171.296 295.332 171.959" stroke="black" stroke-width="2" stroke-linecap="round" stroke-linejoin="round"/>
<path d="M285.684 176.949C287.865 178.687 290.089 180.565 291.203 183.124C292.846 186.904 291.134 191.557 287.722 193.873" stroke="black" stroke-width="2" stroke-linecap="round" stroke-linejoin="round"/>
<path d="M291.884 186.072C292.325 186.244 293.92 187.833 294.382 189.102C295.056 190.949 295.264 192.96 294.979 194.906" stroke="black" stroke-width="2" stroke-linecap="round" stroke-linejoin="round"/>
<path d="M267.875 172.454C269.864 167.671 274.441 164.06 279.557 163.244C280.245 163.134 280.972 163.06 281.55 162.671C281.972 162.388 282.274 161.961 282.573 161.551C284.63 158.728 287.219 156.035 290.597 155.136" stroke="black" stroke-width="2" stroke-linecap="round" stroke-linejoin="round"/>
</g>
<defs>
<clipPath id="clip0_1139_4362">
<rect width="680" height="360" rx="24" fill="white"/>
</clipPath>
</defs>
</svg>
