<svg width="680" height="360" viewBox="0 0 680 360" fill="none" xmlns="http://www.w3.org/2000/svg">
<g clip-path="url(#clip0_1139_4522)">
<path d="M680 0H0V360H680V0Z" fill="#FEF0C2"/>
<path d="M586.415 56.4449C583.102 60.3101 579.789 64.3593 576.844 68.4086C575.372 65.8318 574.083 63.255 572.611 60.6782C569.482 54.7884 560.647 59.942 563.592 66.0158C566.169 70.9854 568.93 75.9549 571.691 80.7403C573.274 83.2251 576.568 83.9797 579.053 82.3969C579.716 81.9735 580.286 81.403 580.709 80.7403C584.759 74.9242 589.121 69.3289 593.777 63.9912C598.011 58.6536 590.833 51.2913 586.415 56.4449Z" fill="#A0DFDA"/>
<path d="M565.433 66.568C569.114 72.0897 572.979 77.6114 577.212 82.765C583.028 75.4395 588.384 67.7644 593.225 59.7579" stroke="#030000" stroke-width="3" stroke-linecap="round" stroke-linejoin="round"/>
<path d="M567.642 64.7275C568.838 63.8624 570.145 63.1078 571.507 62.5188C573.292 65.5741 575.262 68.519 577.397 71.3535C580.157 67.1202 587.52 56.4449 587.704 56.4449C587.888 56.4449 593.409 59.942 593.225 59.942" stroke="#030000" stroke-width="3" stroke-linecap="round" stroke-linejoin="round"/>
<path d="M116.134 210.729C113.189 214.153 110.207 217.705 107.63 221.386C106.324 219.104 105.182 216.803 103.949 214.521C101.188 209.293 93.3476 213.876 95.9612 219.251C98.2435 223.668 100.691 228.067 103.139 232.319C104.538 234.528 107.446 235.19 109.655 233.81C110.262 233.442 110.759 232.926 111.146 232.319C114.735 227.165 118.6 222.196 122.723 217.466C126.404 212.698 120.036 206.164 116.134 210.729Z" fill="#A0DFDA"/>
<path d="M97.5068 219.711C100.783 224.607 104.206 229.503 107.961 234.086C113.115 227.589 117.863 220.76 122.17 213.674" stroke="#030000" stroke-width="3" stroke-linecap="round" stroke-linejoin="round"/>
<path d="M99.4766 218.073C100.526 217.318 101.667 216.656 102.845 216.122C104.428 218.828 106.176 221.46 108.072 223.963C110.52 220.282 117.054 210.729 117.275 210.729C117.496 210.729 122.336 213.84 122.171 213.84" stroke="#030000" stroke-width="3" stroke-linecap="round" stroke-linejoin="round"/>
<path d="M224.543 319.425C223.973 318.413 223.052 317.658 221.948 317.272C220.255 316.609 218.837 315.413 217.88 313.867C216.5 311.345 216.445 308.695 213.923 306.817C212.395 305.694 210.242 306.026 208.862 310.388C207.978 313.296 206.101 315.799 203.561 317.456L202.235 318.302C201.591 318.689 201.205 319.388 201.205 320.143C200.984 321.008 201.168 321.928 201.702 322.646C202.548 323.806 204.242 324.174 205.383 324.965C206.708 325.922 207.886 327.063 208.88 328.37C210.463 330.395 212.009 334.15 215.451 332.677C218.138 331.499 218.285 327.836 220.071 325.812C221.856 323.787 225.832 322.517 224.543 319.425Z" fill="#FEDB72"/>
<path d="M209.396 324.634C210.942 327.247 211.991 330.1 212.525 333.082C212.819 326.824 217.034 321.431 223.034 319.646C220.734 318.615 218.617 317.198 216.832 315.413C214.402 312.394 212.93 308.731 212.598 304.885C212.598 304.885 211.273 311.86 208.181 315.247C206.653 316.995 204.721 318.339 202.549 319.149C205.402 320.143 207.813 322.075 209.396 324.634Z" stroke="#030000" stroke-width="3" stroke-linecap="round" stroke-linejoin="round"/>
<path d="M609.423 219.95C608.742 218.717 607.62 217.797 606.294 217.374C604.27 216.564 602.54 215.146 601.325 213.324C599.668 210.195 599.484 207.066 596.539 204.858C594.699 203.569 591.938 203.937 590.466 209.275C589.343 212.791 587.079 215.846 584.024 217.926L582.367 219.03C581.557 219.453 581.042 220.318 581.079 221.239C580.876 222.306 581.079 223.429 581.631 224.368C582.735 225.84 584.76 226.208 586.048 227.129C587.686 228.307 589.104 229.724 590.282 231.362C592.122 233.755 594.147 238.356 598.196 236.515C601.509 235.043 601.693 230.626 603.718 228.233C605.926 225.472 611.08 223.816 609.423 219.95Z" fill="#FEDB72"/>
<path d="M591.201 226.392C593.06 229.595 594.367 233.074 595.067 236.699C595.067 229.521 600.956 221.975 607.767 220.503C600.331 217.65 595.324 210.619 595.067 202.649C595.067 202.649 593.41 211.116 589.729 215.165C587.87 217.282 585.533 218.92 582.919 219.95C586.398 220.981 589.343 223.282 591.201 226.392Z" stroke="#030000" stroke-width="3" stroke-linecap="round" stroke-linejoin="round"/>
<path d="M468.288 43.8267C468.803 44.4341 469.521 44.8206 470.313 44.931C471.491 45.1887 472.577 45.7593 473.442 46.5876C474.73 48.06 475.282 49.9006 477.123 50.8208C478.227 51.373 479.7 50.8208 479.7 47.6919C479.755 45.6489 480.546 43.6979 481.908 42.1702C482.092 41.9861 482.276 41.618 482.644 41.434C483.013 41.1211 483.16 40.6057 483.013 40.1456C483.049 39.5014 482.773 38.894 482.276 38.4891C481.54 37.7528 480.436 37.7528 479.516 37.3847C478.466 36.9982 477.528 36.354 476.755 35.5442C475.466 34.4398 473.81 32.0471 471.785 33.5195C470.313 34.6239 470.681 37.2007 469.945 38.8572C469.208 40.5137 467 41.9861 468.288 43.8267Z" fill="#FEDB72"/>
<path d="M478.337 39.2252C477.159 37.2374 476.35 35.0471 475.945 32.7832C475.687 37.5319 472.54 41.6179 468.03 43.0904C469.76 43.9002 471.38 44.9677 472.816 46.2193C474.638 48.5016 475.779 51.2441 476.129 54.1337C476.607 51.2809 477.748 48.5752 479.442 46.2193C480.601 44.9125 482.055 43.9002 483.675 43.2744C481.485 42.575 479.607 41.1578 478.337 39.2252Z" stroke="#030000" stroke-width="3" stroke-linecap="round" stroke-linejoin="round"/>
<path d="M70.3955 180.673C70.9109 181.28 71.6287 181.667 72.4201 181.777C73.5981 182.035 74.684 182.605 75.5491 183.433C76.8375 184.906 77.3897 186.747 79.2302 187.667C80.3346 188.219 81.807 187.667 81.807 184.538C81.8622 182.495 82.6537 180.544 84.0157 179.016C84.1997 178.832 84.3838 178.464 84.7519 178.28C85.12 177.967 85.2673 177.452 85.12 176.992C85.1568 176.347 84.8807 175.74 84.3838 175.335C83.6476 174.599 82.5432 174.599 81.6229 174.231C80.5738 173.844 79.6351 173.2 78.8621 172.39C77.5737 171.286 75.9172 168.893 73.8926 170.365C72.4201 171.47 72.7882 174.047 72.052 175.703C71.3158 177.36 69.1071 178.832 70.3955 180.673Z" fill="#FEDB72"/>
<path d="M80.5191 176.034C79.3411 174.047 78.5313 171.856 78.1263 169.592C77.8687 174.341 74.7213 178.427 70.2119 179.9C71.942 180.709 73.5617 181.777 74.9974 183.029C76.8195 185.311 77.9607 188.053 78.3104 190.943C78.7889 188.09 79.9301 185.384 81.6234 183.029C82.783 181.722 84.237 180.709 85.8567 180.084C83.648 179.403 81.7706 177.967 80.5191 176.034Z" stroke="#030000" stroke-width="3" stroke-linecap="round" stroke-linejoin="round"/>
<path d="M343.829 38.8387C445.429 38.8387 486.068 118.958 486.068 193.06C486.068 267.161 436.042 324.862 332.878 324.862C258.777 324.862 196.879 259.725 196.879 185.624C196.879 95.8962 269.728 38.8387 343.829 38.8387Z" fill="white"/>
<path d="M315.822 140.14C317.895 166.958 289.794 178.773 267.244 171.179C253.079 166.407 242.138 155.996 234.388 143.458C229.638 135.778 224.905 126.623 222.892 117.236C221.088 113.122 220.653 108.422 221.557 103.939C221.508 103.111 221.623 102.194 222.023 101.203C223.4 97.7433 225.21 94.9664 227.369 92.8239C234.897 84.9354 247.221 83.1731 257.61 85.3407C274.12 88.7866 291.294 99.0925 302.516 113.145C309.85 120.698 315.022 129.835 315.822 140.14Z" fill="#FBB49B"/>
<path d="M224.854 66.3773C225.707 70.2458 224.55 73.8361 222.705 77.1125C226.628 80.5665 238.611 92.672 242.262 96.4296C245.377 99.6472 243.363 103.995 240.228 105.337C238.42 107.576 234.921 108.684 232.069 106.31C228.324 103.184 216.387 91.5339 212.642 88.408C212.642 88.408 207.526 93.4115 204.434 93.7383C198.221 94.3756 194.731 91.7913 192.521 87.6406C190.333 83.4843 190.734 78.2197 194.208 74.922C195.953 73.2594 202.22 70.7397 204.514 70.8515C204.346 69.4698 204.403 68.0538 204.751 66.5865C205.918 61.9426 210.265 57.8603 215.232 58.01C220.05 58.1277 223.848 61.824 224.854 66.3773Z" fill="white"/>
<path d="M240.936 95.0872C235.299 89.5041 226.059 81.716 221.607 77.9307C225.027 75.5113 226.05 70.6707 225.009 66.6169C223.985 62.6288 221.088 59.0751 217.238 57.6344C213.366 56.1993 208.631 57.1345 205.89 60.1971C203.128 63.2653 202.825 68.3647 205.457 71.5195" stroke="black" stroke-width="3" stroke-miterlimit="10" stroke-linecap="round" stroke-linejoin="round"/>
<path d="M211.531 90.5378C209.887 93.5057 199.323 96.8481 192.778 89.91C187.999 84.8537 190.343 74.5123 199.323 72.4638" stroke="black" stroke-width="3" stroke-miterlimit="10" stroke-linecap="round" stroke-linejoin="round"/>
<path d="M222.322 118.201C223.615 124.782 225.844 131.194 228.916 137.155C232.316 143.756 236.744 149.814 241.821 155.214C247.936 161.749 255.078 167.459 263.352 170.847C271.609 174.263 281.058 175.224 289.568 172.432" stroke="black" stroke-width="3" stroke-miterlimit="10" stroke-linecap="round" stroke-linejoin="round"/>
<path d="M311.369 156.815C315.207 150.387 316.106 142.425 314.573 135.088C313.04 127.75 309.255 121.014 304.38 115.306" stroke="black" stroke-width="3" stroke-miterlimit="10" stroke-linecap="round" stroke-linejoin="round"/>
<path d="M249.909 84.7267C263.358 85.7117 276.441 91.2753 286.506 100.276" stroke="black" stroke-width="3" stroke-miterlimit="10" stroke-linecap="round" stroke-linejoin="round"/>
<path d="M315.468 94.7093C332.473 97.3009 348.36 85.6164 350.951 68.6112C353.543 51.6059 341.858 35.7195 324.853 33.1278C307.848 30.5361 291.961 42.2207 289.37 59.2259C286.778 76.2312 298.463 92.1176 315.468 94.7093Z" fill="#F38059"/>
<path d="M299.536 46.8856C293.223 56.179 293.179 69.1997 299.424 78.7439C302.519 83.4964 307.027 87.6636 312.487 89.4197C320.85 92.1417 336.012 88.8472 341.022 81.6343C346.941 73.1122 348.438 61.6682 343.668 52.3487C334.776 34.9171 311.176 29.719 299.536 46.8856Z" fill="#FEB095"/>
<path d="M315.458 52.5456C315.153 59.3978 314.224 70.7438 304.197 72.4801C294.169 74.2164 296.187 58.7556 300.362 51.9697C304.538 45.1839 316.024 38.927 315.458 52.5456Z" fill="#F38059"/>
<path d="M320.622 47.3579C321.2 53.6672 327.212 61.9131 335.125 66.1681C343.038 70.4231 344.45 58.9352 339.11 50.7299C333.77 42.5246 319.625 36.5192 320.622 47.3579Z" fill="#F38059"/>
<path d="M319.385 68.6044C315.204 69.9691 307.022 71.925 307.265 76.7973C307.508 81.6695 312.539 85.6392 323.034 84.0665C333.504 82.4592 338.815 76.7088 338.695 73.8572C338.55 70.9708 327.423 65.9797 319.385 68.6044Z" fill="#F38059"/>
<path d="M302.457 65.1009C301.698 65.2316 300.986 65.4618 300.31 65.8516C298.497 66.838 299.943 69.6762 301.756 68.6898C302.228 68.423 302.612 68.3275 303.121 68.2203C305.174 67.8864 304.48 64.7624 302.457 65.1009Z" fill="#F8CD3D"/>
<path d="M304.026 58.0408C303.107 57.8083 302.217 57.5804 301.298 57.3479C299.309 56.86 298.325 59.8821 300.309 60.4002C301.229 60.6327 302.118 60.8606 303.037 61.093C305.026 61.581 306.015 58.5287 304.026 58.0408Z" fill="#F8CD3D"/>
<path d="M308.249 51.755C307.688 51.3923 307.188 51.0389 306.706 50.565C305.264 49.1134 302.846 51.2394 304.318 52.6957C304.987 53.3521 305.671 53.9183 306.489 54.4125C308.231 55.5095 309.991 52.852 308.249 51.755Z" fill="#F8CD3D"/>
<path d="M329.792 47L329.101 49.112C328.462 51.0782 331.514 52.0669 332.153 50.1008L332.844 47.9887C333.453 46.018 330.43 45.0339 329.792 47Z" fill="#F8CD3D"/>
<path d="M336.974 51.6057C336.401 51.7338 335.827 51.862 335.248 52.0202C333.237 52.4837 333.932 55.6076 335.942 55.1441C336.516 55.016 337.09 54.8879 337.664 54.7598C339.649 54.2616 338.985 51.1422 336.974 51.6057Z" fill="#F8CD3D"/>
<path d="M339.553 58.1275C338.898 58.1817 338.213 58.2313 337.562 58.2553C335.542 58.3785 335.361 61.5848 337.416 61.436C338.071 61.3819 338.756 61.3323 339.407 61.3082C341.428 61.185 341.608 57.9788 339.553 58.1275Z" fill="#F8CD3D"/>
<path d="M318.75 79.4408C319.56 77.5624 316.538 76.5782 315.698 78.4521C315.364 79.2326 315.184 80.006 315.086 80.8533C314.839 82.8791 318.049 83.0297 318.266 80.9993C318.354 80.4275 318.513 79.9897 318.75 79.4408Z" fill="#F8CD3D"/>
<path d="M325.544 79.1212C325.196 78.5754 324.853 77.9995 324.643 77.3516C324.016 75.4081 320.866 76.0676 321.519 78.0458C321.812 78.9528 322.179 79.7787 322.676 80.5627C323.796 82.3041 326.664 80.8626 325.544 79.1212Z" fill="#F8CD3D"/>
<path d="M330.982 76.3774C330.323 75.846 329.661 75.3446 329.003 74.8132C327.383 73.5192 325.648 76.2114 327.242 77.4707L329.221 79.035C330.841 80.329 332.606 77.6413 330.982 76.3774Z" fill="#F8CD3D"/>
<path d="M316.486 57.7221C316.486 57.7221 312.281 55.2026 310.734 55.8599C309.186 56.5171 307.74 60.1464 307.621 62.7461C307.497 65.3758 313.046 65.9444 315.721 65.3665C318.426 64.7933 320.398 60.7513 316.486 57.7221Z" fill="#FEB095"/>
<path d="M328.409 62.3419C328.409 62.3419 333.082 60.7751 333.541 59.1819C334.034 57.5632 332.249 54.119 330.302 52.344C328.39 50.5435 324.354 54.394 323.031 56.8102C321.708 59.2264 323.572 63.3602 328.409 62.3419Z" fill="#FEB095"/>
<path d="M316.717 69.3376C316.717 69.3376 317.111 74.2328 318.579 75.1034C320.018 75.9694 323.795 75.0359 325.987 73.5837C328.179 72.1316 325.434 67.3092 323.371 65.4857C321.343 63.6368 316.914 64.4092 316.717 69.3376Z" fill="#FEB095"/>
<path d="M351.506 73.8697C345.986 90.891 327.75 100.215 310.728 94.6953C293.707 89.1754 284.383 70.9389 289.903 53.9175C295.423 36.8962 313.659 27.5721 330.681 33.0919" stroke="black" stroke-width="3" stroke-miterlimit="10" stroke-linecap="round" stroke-linejoin="round"/>
<path d="M339.973 113.165C329.558 107.543 324.684 95.0662 331.721 82.0334C337.343 71.6182 351.484 68.353 361.864 74.0003C372.279 79.6221 374.155 91.765 370.528 103.038C366.439 115.72 350.388 118.786 339.973 113.165Z" fill="#32B2A8"/>
<path d="M342.741 109.152C334.575 104.735 330.77 94.9468 336.269 84.7286C340.686 76.5628 351.763 74.0009 359.899 78.413C368.064 82.8296 369.538 92.3551 366.687 101.16C363.503 111.146 350.907 113.569 342.741 109.152Z" fill="#A0DFDA"/>
<path d="M354.609 92.5129C354.609 92.5129 365.679 91.6131 361.983 87.1693C359.428 84.1313 354.609 92.5129 354.609 92.5129Z" fill="white"/>
<path d="M353.196 97.1329C353.196 97.1329 352.795 108.251 357.652 105.08C360.975 102.876 353.196 97.1329 353.196 97.1329Z" fill="white"/>
<path d="M347.459 96.3818C347.459 96.3818 336.541 98.5059 340.736 102.502C343.613 105.25 347.459 96.3818 347.459 96.3818Z" fill="white"/>
<path d="M349.889 90.7462C349.889 90.7462 348.269 79.7509 344.085 83.7637C341.205 86.4969 349.889 90.7462 349.889 90.7462Z" fill="white"/>
<path d="M342.021 115.694C330.115 111.57 324.365 96.9582 328.63 84.7348C332.865 72.5068 345.406 68.2277 357.875 70.0665" stroke="black" stroke-width="3" stroke-miterlimit="10" stroke-linecap="round" stroke-linejoin="round"/>
<path d="M333.384 133.565C330.097 122.193 335.563 109.968 349.772 105.851C361.145 102.564 373.362 110.308 376.678 121.685C379.965 133.058 372.644 142.906 362.07 148.224C350.13 154.227 336.67 144.938 333.384 133.565Z" fill="#32B2A8"/>
<path d="M338.163 132.723C335.576 123.829 339.873 114.228 351.021 110.999C359.915 108.413 369.521 114.496 372.103 123.421C374.689 132.315 368.951 140.064 360.649 144.219C351.313 148.894 340.75 141.617 338.163 132.723Z" fill="#A0DFDA"/>
<path d="M358.336 129.484C358.336 129.484 366.747 136.741 367.317 130.976C367.703 127.031 358.336 129.484 358.336 129.484Z" fill="white"/>
<path d="M354.052 131.726C354.052 131.726 345.852 139.254 351.52 140.456C355.427 141.298 354.052 131.726 354.052 131.726Z" fill="white"/>
<path d="M350.569 127.099C350.569 127.099 341.396 120.804 341.496 126.609C341.567 130.593 350.569 127.099 350.569 127.099Z" fill="white"/>
<path d="M356.3 124.862C356.3 124.862 362.979 115.994 357.215 115.824C353.229 115.709 356.3 124.862 356.3 124.862Z" fill="white"/>
<path d="M331.21 125.196C332.268 117.042 337.732 109.282 345.633 105.528C357.32 99.9792 369.507 104.886 376.688 116.975" stroke="black" stroke-width="3" stroke-miterlimit="10" stroke-linecap="round" stroke-linejoin="round"/>
<path d="M307.795 260.418C288.838 273.658 257.439 274.447 257.439 274.447L241.305 301.314C238.546 305.605 232.176 305.737 229.435 301.454L208.946 269.739C205.972 265.14 208.975 259.734 214.2 259.34L248.751 258.003C248.751 258.003 251.687 240.128 275.988 221.996C299.891 204.089 320.088 207.57 334.012 210.576C337.712 211.701 340.228 215.586 338.538 219.126C334.558 229.203 324.995 248.38 307.795 260.418Z" fill="#AB8DDB"/>
<path d="M326.681 241.746C314.313 237.241 305.643 223.834 307.248 210.818" stroke="black" stroke-width="3" stroke-miterlimit="10" stroke-linecap="round" stroke-linejoin="round"/>
<path d="M317.685 221.591C319.184 223.147 320.788 222.536 322.807 221.776C325.483 220.546 325.991 216.699 324.658 214.601C323.324 212.504 319.361 212.526 317.651 214.616C315.413 218.072 316.242 220.048 317.685 221.591Z" fill="black"/>
<path d="M257.499 255.917C267.03 241.27 282.618 232.199 298.005 224.312" stroke="black" stroke-width="3" stroke-miterlimit="10" stroke-linecap="round" stroke-linejoin="round"/>
<path d="M213.59 263.767C223.698 263.216 233.49 262.898 243.714 263.3" stroke="black" stroke-width="3" stroke-miterlimit="10" stroke-linecap="round" stroke-linejoin="round"/>
<path d="M239.154 295.703C242.834 289.796 246.08 283.276 248.767 276.515" stroke="black" stroke-width="3" stroke-miterlimit="10" stroke-linecap="round" stroke-linejoin="round"/>
<path d="M305.97 178.994C302.383 180.921 299.627 185.881 298.913 189.843C298.583 191.677 298.704 194.42 299.536 196.084C300.973 198.95 304.603 199.796 307.783 200.188C311.31 200.622 314.925 200.893 318.389 200.097C320.163 199.688 321.941 198.959 323.128 197.58C326.474 193.695 327.387 186.402 322.794 184.117C320.045 182.748 317.677 182.96 314.704 181.037C311.562 178.999 310.109 176.772 305.97 178.994Z" fill="#FEB095"/>
<path d="M301.718 195.677C299.489 192.844 300.559 184.12 308.487 179.991C311.549 178.395 313.892 186.09 321.783 182.7C329.312 179.465 330.771 170.298 330.761 162.382C328.156 160.913 325.765 159.187 323.64 157.052C322.262 155.659 320.254 154.218 322.108 151.198C322.996 149.751 325.037 150.085 326.356 150.737C326.661 150.888 326.936 151.08 327.246 151.266C327.198 150.962 327.161 150.6 327.142 150.222C326.408 147.075 326.716 144.514 329.663 144.673C332.354 144.822 334.251 147.963 334.951 150.221C335.558 152.109 335.689 154.135 335.527 156.153C335.638 157.998 335.425 159.839 335.131 161.818C338.095 165.999 339.959 171.856 339.56 177.155C340.309 185.909 333.149 195.106 325.081 197.97C316.532 200.937 307.95 201.332 301.725 195.676L301.718 195.677Z" fill="#F38059"/>
<path d="M330.575 146.156C326.122 147.934 328.852 153.847 329.884 156.181C330.919 158.517 332.419 160.605 333.922 162.695" stroke="black" stroke-width="2.5" stroke-linecap="round" stroke-linejoin="round"/>
<path d="M330.669 173.832C333.602 174.776 336.82 174.725 339.742 173.742" stroke="black" stroke-width="2.5" stroke-linecap="round" stroke-linejoin="round"/>
<path d="M326.22 181.211C327.241 183.038 328.709 184.604 330.475 185.719C332.357 186.895 334.501 187.554 336.604 188.216" stroke="black" stroke-width="2.5" stroke-linecap="round" stroke-linejoin="round"/>
<path d="M318.124 184.88C317.835 190.005 319.598 195.252 322.904 199.181" stroke="black" stroke-width="2.5" stroke-linecap="round" stroke-linejoin="round"/>
<path d="M311.031 182.75C308.068 186.777 306.001 193.039 305.846 198.043" stroke="black" stroke-width="2.5" stroke-linecap="round" stroke-linejoin="round"/>
<path d="M184.156 202.651L190.205 220.005C191.797 224.522 196.898 227.004 201.519 225.788L255.006 209.258C259.9 207.561 262.744 202.319 261.047 197.426L257.639 187.603C256.836 185.327 254.945 183.474 252.746 182.117L225.643 169.998C222.6 168.51 219.302 168.835 216.688 171.022L187.662 192.14C184.295 194.537 182.81 198.874 184.156 202.651Z" fill="#F8CD3D"/>
<path d="M185.086 198.071C208.162 193.844 231.002 190.085 254.078 185.858" stroke="black" stroke-width="3" stroke-miterlimit="10" stroke-linecap="round" stroke-linejoin="round"/>
<path d="M191.332 220.861C190.906 218.48 192.157 215.905 194.398 215.116C196.638 214.327 199.457 215.024 200.622 217.16C201.788 219.295 201.439 221.936 199.822 223.36" stroke="black" stroke-width="3" stroke-miterlimit="10" stroke-linecap="round" stroke-linejoin="round"/>
<path d="M226.114 201.552C224.095 201.837 222.724 204 222.647 206.16C222.156 208.439 222.959 210.715 224.524 212.695C225.947 214.312 228.73 215.024 230.865 213.858C232.743 213.21 233.737 211.153 233.97 209.392C234.203 207.631 233.4 205.354 232.117 204.1C230.434 201.707 226.771 200.879 224.74 202.421" stroke="black" stroke-width="3" stroke-miterlimit="10" stroke-linecap="round" stroke-linejoin="round"/>
<path d="M219.971 170.661C217.836 171.827 217.125 174.61 218.149 176.382C219.315 178.518 221.735 179.371 223.753 179.086C225.772 178.8 227.907 177.635 229.524 176.212" stroke="black" stroke-width="3" stroke-miterlimit="10" stroke-linecap="round" stroke-linejoin="round"/>
<path d="M254.976 205.428C253.437 204.691 252.155 203.437 252.025 201.817C251.482 200.316 252.114 198.4 253.85 197.389C255.21 196.484 257.525 196.96 258.173 198.838" stroke="black" stroke-width="3" stroke-miterlimit="10" stroke-linecap="round" stroke-linejoin="round"/>
<path d="M200.833 183.711C202.361 185.705 202.026 188.383 201.054 190.39C199.683 192.553 197.044 193.497 194.765 193.007" stroke="black" stroke-width="3" stroke-miterlimit="10" stroke-linecap="round" stroke-linejoin="round"/>
<path d="M463.467 81.3038C463.467 80.9592 463.122 80.2701 463.122 79.9255C463.122 79.5809 462.778 79.5809 462.778 79.2363C462.089 77.858 460.021 77.5134 458.643 78.2026C458.298 78.2026 457.954 78.2026 457.264 78.5472C455.197 79.5809 453.129 80.6147 451.407 81.993C446.582 84.405 441.758 86.8171 436.59 88.8846C433.488 89.9184 430.387 90.9521 427.286 91.9858C427.975 87.1617 432.799 83.0267 435.211 79.5809C435.211 79.2363 435.556 79.2363 435.556 78.8917C436.934 77.1688 439.002 75.4459 439.691 73.3784C440.725 70.9664 440.38 68.2097 440.035 65.7977C440.035 63.7302 438.312 62.6964 436.59 62.6964C436.245 62.6964 435.9 62.6964 435.556 62.6964H435.211H434.867C414.536 67.8651 387.659 77.1688 388.004 102.668C388.004 113.694 395.584 121.964 405.233 126.789C416.259 131.957 427.63 131.268 437.623 124.377C440.724 122.309 443.481 119.552 445.893 116.796C446.927 116.107 447.616 115.073 448.305 114.384C450.373 112.661 452.096 110.593 453.474 108.526C455.197 106.458 456.92 104.391 458.298 102.323C460.366 99.2221 462.433 96.1208 463.811 92.675C464.845 89.2292 464.501 85.0942 463.467 81.3038Z" fill="#F38059"/>
<path d="M436.589 63.7296C428.319 67.8646 421.427 74.4116 416.948 82.6816C415.914 84.4045 415.225 86.1274 415.569 87.8503C415.914 90.607 418.326 92.6745 420.738 93.0191C423.15 93.7082 425.907 93.0191 428.663 92.6745C439.346 90.2624 449.683 85.4383 458.297 78.5466" stroke="black" stroke-width="3" stroke-miterlimit="10" stroke-linecap="round" stroke-linejoin="round"/>
<path d="M390.071 90.9508C389.037 94.7411 388.003 98.187 388.003 101.977C388.003 105.768 388.692 109.558 391.104 112.659C393.861 116.105 398.341 117.828 402.82 118.517C410.056 119.551 417.637 118.517 424.184 115.071C427.285 113.349 430.387 111.281 433.488 109.214C444.17 100.944 454.507 92.3291 464.156 82.6808" stroke="black" stroke-width="3" stroke-miterlimit="10" stroke-linecap="round" stroke-linejoin="round"/>
<path d="M396.618 108.872C402.132 104.737 407.645 100.602 413.503 96.1222" stroke="white" stroke-width="3" stroke-miterlimit="10" stroke-linecap="round" stroke-linejoin="round"/>
<path d="M406.612 80.6154C404.544 83.7166 402.477 87.1624 402.132 90.9528C401.787 94.7432 403.166 98.8782 406.267 100.946C407.99 101.979 410.057 102.669 412.469 103.013C417.294 103.702 422.807 103.702 426.942 100.946" stroke="white" stroke-width="3" stroke-miterlimit="10" stroke-linecap="round" stroke-linejoin="round"/>
<path d="M395.93 95.4313C395.586 99.5663 396.964 104.046 399.721 107.147C402.477 110.248 406.957 111.971 411.092 111.627" stroke="white" stroke-width="3" stroke-miterlimit="10" stroke-linecap="round" stroke-linejoin="round"/>
<path d="M405.566 196.719C411.926 195.311 418.569 194.005 425.225 192.689C430.85 191.657 438.41 189.383 443.97 191.482C446.976 192.757 448.99 195.26 451.014 197.776C452.175 199.068 453.196 200.651 454.729 200.821C458.393 201.052 461.32 195.749 462.791 193.092C470.81 176.653 462.262 150.595 441.633 151.827C440.395 149.867 436.744 150.578 437.054 153.492C436.952 153.774 437.247 153.866 437.169 154.151C436.989 154.718 437.182 155.092 437.389 155.455C437.71 158.382 437.945 161.557 436.192 164.111C434.541 166.383 431.562 167.92 428.761 168.913C423.162 170.876 416.956 170.786 411.242 171.137C406.172 171.409 403.554 171.81 402.499 177.074C401.263 182.905 401.264 188.815 402.942 194.336C403.059 195.924 404.285 196.941 405.601 196.735L405.566 196.719Z" fill="#A0E0DB"/>
<path d="M476.684 219.897C480.217 217.599 482.049 213.808 482.267 210.155C489.994 212.306 498.675 207.572 501.176 199.649C504.141 190.308 499.957 179.962 491.906 174.908C493.117 174.056 494.113 172.803 494.859 171.488C499.385 166.081 501.617 158.997 498.904 151.904C495.792 144.074 487.38 140.155 479.408 141.678C479.331 136.981 474.863 132.467 469.691 131.116C463.859 129.88 458.621 131.66 455.204 135.545C452.907 132.011 448.752 130.386 444.727 131.29C439.489 132.118 435.983 137.227 434.46 142.052C433.015 146.592 431.612 152.98 436.722 155.533C439.935 157.171 443.79 156.848 447.237 155.75C447.327 161.388 452.452 165.811 457.833 168.454C453.229 174.146 454.844 181.821 458.406 188.245C447.958 192.712 451.91 212.655 459.409 218.447C464.451 222.251 471.519 223.565 476.708 219.9L476.684 219.897Z" fill="#33B3A8"/>
<path d="M469.269 187.337C465.684 186.821 461.953 186.888 458.963 188.412C455.995 189.962 451.263 195.006 452.412 202.218" stroke="black" stroke-width="3" stroke-linecap="round" stroke-linejoin="round"/>
<path d="M477.245 155.325C477.245 155.325 481.629 147.377 479.962 141.869C478.763 137.752 475.032 132.838 470.812 131.487" stroke="black" stroke-width="3" stroke-linecap="round" stroke-linejoin="round"/>
<path d="M458.002 168.825C450.068 166.31 448.001 159.113 448.85 152.534C449.107 150.753 449.366 148.948 450.656 147.811" stroke="black" stroke-width="3" stroke-linecap="round" stroke-linejoin="round"/>
<path d="M483.317 179.346C487.202 181.81 489.06 186.764 488.275 191.188C487.217 195.524 483.245 199.242 478.73 199.68" stroke="black" stroke-width="3" stroke-linecap="round" stroke-linejoin="round"/>
<path d="M368.064 205.54C366.169 205.11 364.044 207.361 363.317 210.568C362.589 213.774 363.536 216.722 365.431 217.152C367.326 217.581 369.451 215.33 370.178 212.124C370.905 208.917 369.959 205.969 368.064 205.54Z" fill="#C6896B"/>
<path d="M357.542 194.924C356.69 196.67 358.396 199.254 361.351 200.696C364.306 202.137 367.392 201.89 368.244 200.144C369.096 198.398 367.391 195.813 364.435 194.372C361.48 192.93 358.394 193.177 357.542 194.924Z" fill="#C6896B"/>
<path d="M365.542 184.924C364.691 186.67 366.396 189.254 369.351 190.696C372.306 192.137 375.392 191.89 376.244 190.144C377.096 188.398 375.391 185.813 372.436 184.372C369.481 182.93 366.394 183.177 365.542 184.924Z" fill="#C6896B"/>
<path d="M352.79 210.033C351.306 211.286 351.822 214.339 353.943 216.851C356.065 219.363 358.988 220.383 360.472 219.13C361.957 217.876 361.44 214.823 359.319 212.311C357.197 209.799 354.274 208.779 352.79 210.033Z" fill="#C6896B"/>
<path d="M358.415 224.435C355.169 223.914 352.287 225.046 351.979 226.965C351.671 228.883 354.053 230.861 357.3 231.382C360.546 231.904 363.428 230.771 363.736 228.853C364.044 226.934 361.662 224.957 358.415 224.435Z" fill="#C6896B"/>
<path d="M351.294 242.885C348.922 245.162 348.091 248.144 349.436 249.545C350.782 250.947 353.795 250.237 356.167 247.96C358.538 245.683 359.37 242.701 358.025 241.299C356.679 239.898 353.666 240.608 351.294 242.885Z" fill="#C6896B"/>
<path d="M377.457 197.639C374.22 198.217 371.873 200.237 372.214 202.149C372.556 204.062 375.457 205.144 378.694 204.566C381.931 203.987 384.278 201.968 383.936 200.056C383.594 198.143 380.694 197.061 377.457 197.639Z" fill="#C6896B"/>
<path d="M382.763 188.504C381.532 190.007 382.598 192.914 385.143 194.996C387.687 197.078 390.747 197.547 391.978 196.043C393.208 194.54 392.142 191.633 389.598 189.551C387.053 187.469 383.993 187 382.763 188.504Z" fill="#C6896B"/>
<path d="M383.837 159.657C385.633 160.396 388.105 158.532 389.357 155.491C390.609 152.451 390.167 149.387 388.371 148.647C386.574 147.907 384.103 149.772 382.851 152.812C381.599 155.852 382.04 158.917 383.837 159.657Z" fill="#C6896B"/>
<path d="M392.439 171.88C393.571 170.3 392.321 167.467 389.647 165.553C386.974 163.639 383.89 163.367 382.759 164.947C381.628 166.526 382.878 169.359 385.551 171.273C388.224 173.188 391.308 173.459 392.439 171.88Z" fill="#C6896B"/>
<path d="M382.883 180.404C384.014 178.825 382.764 175.992 380.091 174.078C377.418 172.163 374.334 171.892 373.202 173.471C372.071 175.051 373.321 177.884 375.994 179.798C378.668 181.712 381.752 181.984 382.883 180.404Z" fill="#C6896B"/>
<path d="M399.646 157.775C401.319 156.787 401.319 153.691 399.647 150.86C397.974 148.029 395.262 146.536 393.59 147.524C391.917 148.512 391.917 151.608 393.589 154.439C395.262 157.27 397.974 158.764 399.646 157.775Z" fill="#C6896B"/>
<path d="M396.503 142.636C399.617 143.692 402.647 143.056 403.271 141.216C403.895 139.376 401.876 137.028 398.762 135.973C395.648 134.917 392.618 135.553 391.994 137.393C391.37 139.233 393.389 141.581 396.503 142.636Z" fill="#C6896B"/>
<path d="M373.257 165.879C376.545 165.849 379.197 164.25 379.179 162.307C379.161 160.364 376.481 158.813 373.193 158.843C369.905 158.873 367.254 160.473 367.272 162.415C367.29 164.358 369.969 165.909 373.257 165.879Z" fill="#C6896B"/>
<path d="M366.502 174.001C367.966 172.724 367.4 169.68 365.238 167.203C363.077 164.725 360.138 163.752 358.674 165.029C357.21 166.307 357.775 169.351 359.937 171.828C362.099 174.305 365.038 175.278 366.502 174.001Z" fill="#C6896B"/>
<path d="M346.332 271.896C346.065 271.363 345.799 270.811 345.514 270.563C347.932 268.696 349.283 265.745 347.648 262.242C345.23 257.425 338.812 257.958 336.376 261.709C333.159 260.109 329.674 259.025 326.19 259.291C325.372 259.025 324.856 259.025 324.056 259.291C322.456 259.558 321.638 260.625 321.638 262.242C321.372 263.327 321.638 264.109 322.456 265.194C327.558 271.611 332.376 279.132 332.376 287.434C332.376 290.118 331.843 292.536 331.043 294.67C324.625 302.172 314.954 303.505 305.3 302.439C303.967 299.221 302.083 296.021 299.931 293.07C298.598 291.203 295.914 288.252 293.513 290.118L293.247 290.385C291.38 291.203 291.38 293.603 292.162 295.487C292.429 295.754 292.429 296.305 292.696 296.572C292.429 296.572 291.878 296.305 291.362 296.305C287.593 294.972 284.66 294.972 284.393 298.439C284.127 301.656 287.611 304.341 290.296 305.674C292.429 306.759 294.847 307.008 297.265 307.274C299.398 307.808 301.549 307.541 303.967 307.541C308.518 311.559 315.238 314.777 321.656 315.043C332.11 317.177 344.181 309.941 348.732 300.839C353.834 290.918 352.217 280.216 346.332 271.896Z" fill="#F38059"/>
<path d="M284.66 297.888C284.927 296.554 286.527 296.021 287.878 296.021C290.829 295.754 294.047 296.839 296.714 298.439C299.398 300.039 301.532 302.208 303.949 304.341" stroke="black" stroke-width="3" stroke-miterlimit="10" stroke-linecap="round" stroke-linejoin="round"/>
<path d="M317.638 302.189C318.456 305.958 317.905 309.692 316.305 312.927" stroke="black" stroke-width="3" stroke-miterlimit="10" stroke-linecap="round" stroke-linejoin="round"/>
<path d="M327.273 297.887C329.407 299.487 331.042 301.389 332.091 303.523C333.176 305.94 333.691 308.625 334.225 311.292" stroke="black" stroke-width="3" stroke-miterlimit="10" stroke-linecap="round" stroke-linejoin="round"/>
<path d="M332.643 288.784C338.812 289.318 344.696 292.002 349.016 296.553" stroke="black" stroke-width="3" stroke-miterlimit="10" stroke-linecap="round" stroke-linejoin="round"/>
<path d="M331.327 279.949C336.696 276.998 342.847 275.665 348.75 276.18" stroke="black" stroke-width="3" stroke-miterlimit="10" stroke-linecap="round" stroke-linejoin="round"/>
<path d="M312.82 275.629C316.038 274.811 319.523 274.545 323.007 275.096C326.509 275.629 329.425 277.514 331.843 279.914" stroke="black" stroke-width="3" stroke-miterlimit="10" stroke-linecap="round" stroke-linejoin="round"/>
<path d="M313.354 283.15C317.906 280.465 323.808 279.647 328.91 281.55" stroke="black" stroke-width="3" stroke-miterlimit="10" stroke-linecap="round" stroke-linejoin="round"/>
<path d="M316.82 289.318C318.42 286.634 321.105 284.767 324.056 284.216C325.14 283.949 325.923 283.949 327.007 283.949C327.825 283.949 328.607 283.949 329.692 283.682" stroke="black" stroke-width="3" stroke-miterlimit="10" stroke-linecap="round" stroke-linejoin="round"/>
<path d="M342.031 261.442C340.697 261.709 339.346 262.775 339.079 264.126C338.813 265.46 339.613 267.078 340.946 267.629C342.279 268.162 343.897 267.629 344.448 266.295C344.982 264.962 344.715 263.344 343.364 262.526" stroke="white" stroke-width="3" stroke-miterlimit="10" stroke-linecap="round" stroke-linejoin="round"/>
<path d="M418.73 250.077C416.963 257.587 418.343 266.09 423.534 271.777C428.724 277.483 438.001 279.526 444.535 275.422C450.277 271.814 452.744 264.765 454.106 258.139C456.277 247.647 456.149 229.868 443.062 226.113C431.191 222.726 420.902 240.819 418.73 250.077Z" stroke="black" stroke-width="3" stroke-miterlimit="10" stroke-linecap="round" stroke-linejoin="round"/>
<path d="M429.165 242.807C425.981 245.034 424.104 249.028 424.435 252.911C424.527 254.071 424.822 255.23 425.411 256.224C426.386 257.881 428.098 258.948 429.81 259.777C432 260.844 434.411 261.617 436.841 261.47C441.295 261.212 445.252 257.531 446.043 253.151C447.792 243.598 436.859 237.414 429.165 242.807Z" fill="#F8CD3D"/>
<path d="M425.722 321.944C420.246 312.041 412.272 305.808 407.372 303.434C397.521 298.667 377.636 293.744 370.838 282.77" stroke="black" stroke-width="3" stroke-miterlimit="10" stroke-linecap="round" stroke-linejoin="round"/>
<path d="M375.21 298.695C378.18 296.966 382.927 295.142 386.268 294.297" stroke="black" stroke-width="3" stroke-miterlimit="10" stroke-linecap="round" stroke-linejoin="round"/>
<path d="M387.498 305.927C391.139 303.135 395.458 301.238 399.986 300.439" stroke="black" stroke-width="3" stroke-miterlimit="10" stroke-linecap="round" stroke-linejoin="round"/>
<path d="M401.122 312.896C405.174 311.745 410.082 310.521 414.885 309.482" stroke="black" stroke-width="3" stroke-miterlimit="10" stroke-linecap="round" stroke-linejoin="round"/>
<path d="M386.268 294.297C384.406 290.526 383.634 286.226 384.073 282.039" stroke="black" stroke-width="3" stroke-miterlimit="10" stroke-linecap="round" stroke-linejoin="round"/>
<path d="M399.788 299.887C397.661 296.224 396.683 291.906 397.024 287.677" stroke="black" stroke-width="3" stroke-miterlimit="10" stroke-linecap="round" stroke-linejoin="round"/>
<path d="M410.515 305.101C407.648 301.59 406.35 296.853 407.018 292.364" stroke="black" stroke-width="3" stroke-miterlimit="10" stroke-linecap="round" stroke-linejoin="round"/>
<path d="M376.988 287.464C376.465 289.179 374.775 290.296 373.149 291.091C371.72 291.794 370.082 292.286 368.539 291.917C367.269 291.616 366.199 290.77 365.287 289.84C364.209 288.745 363.253 287.446 362.991 285.933C362.724 284.43 363.186 282.841 364.06 281.571C365.548 279.42 368.233 278.425 370.852 278.38C374.705 278.306 378.243 283.286 376.988 287.464Z" fill="#AB8DDB"/>
<path d="M377.073 293.678C379.51 294.9 381.143 297.836 381.069 300.642C380.995 303.449 379.301 305.977 376.946 307.042C374.591 308.107 371.685 307.734 369.382 306.215C368.359 305.544 367.446 304.646 366.812 303.556C365.37 301.068 365.654 297.763 367.228 295.6C368.803 293.438 371.496 292.409 374.144 292.599C375.308 292.683 376.401 293.346 377.073 293.678Z" fill="#AB8DDB"/>
<path d="M388.096 282.466C385.922 284.369 382.528 284.727 379.977 283.393C377.426 282.06 375.836 279.098 376.155 276.236C376.467 273.376 378.667 270.806 381.458 270.029C382.496 269.737 383.634 269.455 384.675 269.744C391.789 271.713 391.614 279.38 388.096 282.466Z" fill="#AB8DDB"/>
<path d="M413.311 293.874C411.137 295.777 407.743 296.134 405.192 294.801C402.641 293.468 401.051 290.506 401.37 287.644C401.682 284.784 403.882 282.214 406.673 281.437C407.712 281.145 408.849 280.863 409.89 281.152C417.004 283.121 416.838 290.794 413.311 293.874Z" fill="#AB8DDB"/>
<path d="M392.821 304.012C393.396 305.841 393.09 307.87 392.409 309.669C392.082 310.541 391.636 311.384 390.98 312.048C390.137 312.916 388.992 313.45 387.804 313.687C385.027 314.243 381.986 313.133 380.25 310.914C378.514 308.695 378.16 305.493 379.373 302.945C380.586 300.397 383.313 298.626 386.14 298.542C387.591 298.504 391.734 300.565 392.821 304.012Z" fill="#AB8DDB"/>
<path d="M401.094 290.803C399.623 292.853 396.898 293.922 394.429 293.417C391.96 292.911 389.892 290.864 389.378 288.416C388.864 285.969 389.925 283.245 391.98 281.78C394.033 280.308 396.953 280.171 399.126 281.436C400.77 282.394 402.004 284.711 402.183 286.606C402.245 287.414 401.803 289.804 401.094 290.803Z" fill="#AB8DDB"/>
<path d="M407.713 310.066C409.329 312.61 409.281 316.136 407.46 318.564C405.632 320.994 402.232 322.11 399.325 321.269C396.409 320.43 394.176 317.686 393.92 314.672C393.667 311.666 395.403 308.579 398.103 307.186C398.775 306.84 399.509 306.594 400.268 306.527C401.572 306.409 405.232 306.16 407.713 310.066Z" fill="#AB8DDB"/>
<path d="M407.164 249.528C401.925 255.19 394.102 258.798 386.485 257.672C378.853 256.557 371.974 250.006 371.726 242.294C371.508 235.516 375.975 229.531 380.708 224.698C388.194 217.034 403.01 207.204 413.437 215.957C422.881 223.909 413.628 242.552 407.164 249.528Z" stroke="black" stroke-width="3" stroke-miterlimit="10" stroke-linecap="round" stroke-linejoin="round"/>
<path d="M407.361 236.81C407.293 240.696 405.031 244.485 401.625 246.38C400.612 246.952 399.486 247.356 398.333 247.423C396.414 247.54 394.572 246.717 392.928 245.761C390.819 244.541 388.83 242.974 387.595 240.877C385.319 237.039 386.16 231.7 389.35 228.596C396.294 221.807 407.533 227.417 407.361 236.81Z" fill="#F8CD3D"/>
<path d="M178.731 73.3677C182.652 97.9024 186.296 125.014 176.835 146.825C174.59 151.978 171.645 156.782 170.578 162.543C169.51 168.341 170.467 174.415 171.498 180.231C177.829 216.085 186.48 252.086 184.695 288.806C184.363 295.469 183.646 302.334 180.958 308.003C178.271 313.672 173.191 317.868 168.185 316.635C160.252 314.684 157.418 301.837 156.737 291.29C154.086 250.504 159.35 209.238 155.651 168.598C155.356 165.249 154.951 161.807 153.644 158.917C152.19 155.696 149.742 153.487 147.736 150.819C140.116 140.751 139.067 125.198 138.773 111.026C138.515 99.0068 138.497 86.9695 138.699 74.9506C138.736 72.834 139.306 72.245 140.54 73.607C141.773 74.969 141.902 77.3617 141.957 79.4784C142.306 92.7673 143.521 106.038 145.546 119.069C145.988 121.922 146.595 125.014 148.362 126.781C151.565 123.431 152.135 117.449 152.393 112.075C152.908 100.995 153.055 89.896 152.853 78.7974C152.816 77.012 152.908 74.8954 154.049 73.9199C155.19 72.9628 156.81 73.8279 157.565 75.2819C158.319 76.7544 158.448 78.6133 158.522 80.3803C159.166 95.5281 157.859 111.32 162.148 125.419C163.252 125.529 163.804 123.726 163.988 122.29C165.682 108.394 163.878 94.1293 165.129 80.1594C165.35 77.7115 165.81 74.9874 167.412 73.7174C169.584 77.3249 169.878 82.2392 170.099 86.8222C170.596 97.4055 171.093 107.989 171.59 118.572C171.663 120.21 171.848 122.087 172.878 122.989C174.111 124.057 175.86 123.008 176.596 121.351C177.332 119.695 177.332 117.652 177.296 115.719C177.13 103.627 176.946 91.5525 176.78 79.46C176.78 76.7728 177.259 75.2083 178.731 73.3677Z" stroke="#F8CD3E" stroke-width="3" stroke-miterlimit="10" stroke-linecap="round" stroke-linejoin="round"/>
<path d="M535.653 259.43C535.653 269.461 535.653 279.492 535.23 289.505C534.843 298.653 532.598 309.972 525.401 311.831C520.947 312.972 516.383 309.512 513.898 304.782C511.413 300.051 510.585 294.272 510.033 288.658C506.683 254.995 510.695 220.245 521.536 189.139C522.088 187.538 522.677 185.808 522.383 184.114C521.665 180.01 517.119 179.789 514.063 177.985C508.818 174.875 507.824 166.261 507.529 159.028C506.388 131.069 505.523 101.492 516.125 76.8096C518.37 71.5824 523.45 61.5881 528.935 60.9255C534.623 60.2261 534.899 66.9994 535.543 73.7358C537.494 93.982 535.58 116.05 535.598 136.462C535.635 177.47 535.635 218.459 535.653 259.43Z" stroke="#F8CD3E" stroke-width="3" stroke-miterlimit="10" stroke-linecap="round" stroke-linejoin="round"/>
</g>
<defs>
<clipPath id="clip0_1139_4522">
<rect width="680" height="360" rx="24" fill="white"/>
</clipPath>
</defs>
</svg>
