<svg width="680" height="360" viewBox="0 0 680 360" fill="none" xmlns="http://www.w3.org/2000/svg">
<g clip-path="url(#clip0_1139_4854)">
<rect width="680" height="360" rx="24" fill="#E4CFEB"/>
<rect width="680" height="360" rx="30" fill="#E4CFEB"/>
<path d="M337.117 116.743C337.117 116.743 328.241 111.962 322.844 98.2487C318.693 87.7426 314.443 35.7827 346.329 33.1463C378.235 30.5099 383.296 64.2908 387.783 71.2358C392.271 78.1809 408.164 85.4014 405.752 101.534C400.969 133.348 361.155 136.279 337.117 116.743Z" fill="#5C5C5C"/>
<path d="M594.63 223.634C581.391 228.599 559.511 226.76 546.088 222.163C547.559 239.815 551.972 260.776 553.627 278.244C553.811 280.083 553.994 282.289 555.465 283.577C556.753 284.864 558.775 285.048 560.614 285.048C570.727 285.599 580.84 285.048 590.953 283.393C591.872 283.209 592.792 283.025 593.343 282.473C593.895 281.922 593.895 281.186 594.079 280.451C596.653 261.696 599.411 243.125 601.985 224.37" stroke="#BDA6E3" stroke-width="3.67745" stroke-miterlimit="10" stroke-linecap="round" stroke-linejoin="round"/>
<path d="M568.888 226.576C568.153 188.33 558.959 146.591 542.043 112.207C536.527 100.991 529.172 89.2229 517.036 85.5454C538.181 128.756 551.788 175.459 557.12 223.266" stroke="#BDA6E3" stroke-width="3.67745" stroke-miterlimit="10" stroke-linecap="round" stroke-linejoin="round"/>
<path d="M591.321 222.163C596.101 190.353 608.053 156.704 627.727 131.33C629.382 129.307 631.037 126.917 631.037 124.343C612.65 130.778 599.043 147.143 591.321 165.163C583.598 183.182 582.863 207.086 580.472 226.576" stroke="#BDA6E3" stroke-width="3.67745" stroke-miterlimit="10" stroke-linecap="round" stroke-linejoin="round"/>
<path d="M549.214 128.388C545.904 95.8421 538.181 66.4225 526.598 37.9222C524.943 34.0609 523.288 30.0157 523.656 25.7866C531.01 26.5221 536.343 32.7738 540.204 39.0255C549.582 54.6546 553.443 72.858 556.937 90.6937C565.211 134.088 570.727 175.827 574.772 219.772" stroke="#BDA6E3" stroke-width="3.67745" stroke-miterlimit="10" stroke-linecap="round" stroke-linejoin="round"/>
<path d="M587.827 175.459C585.989 137.03 592.24 87.568 611.547 54.287C604.008 56.1257 597.756 61.6419 593.527 68.2613C589.298 74.8807 586.908 82.4195 585.069 89.9583C577.163 119.746 576.243 155.785 577.53 186.491" stroke="#BDA6E3" stroke-width="3.67745" stroke-miterlimit="10" stroke-linecap="round" stroke-linejoin="round"/>
<path d="M580.472 110.001C581.208 91.2456 580.84 61.8259 581.576 43.0709C581.759 38.8418 581.575 34.245 578.634 31.4869C570.727 43.6225 569.992 58.884 569.44 73.226C568.704 91.0617 566.498 122.136 565.579 140.156" stroke="#BDA6E3" stroke-width="3.67745" stroke-miterlimit="10" stroke-linecap="round" stroke-linejoin="round"/>
<path d="M547.375 258.386C531.194 257.834 482.652 259.857 482.652 259.857" stroke="#BDA6E3" stroke-width="3.67745" stroke-miterlimit="10" stroke-linecap="round" stroke-linejoin="round"/>
<path d="M629.567 259.857C620.005 259.857 610.26 260.041 600.698 260.041" stroke="#BDA6E3" stroke-width="3.67745" stroke-miterlimit="10" stroke-linecap="round" stroke-linejoin="round"/>
<path d="M228.952 26.0151C222.156 62.7257 193.136 92.5836 174.585 125.868C149.238 171.389 143.911 223.436 138.952 274.015" stroke="#BDA6E3" stroke-width="3.67745" stroke-miterlimit="10" stroke-linecap="round" stroke-linejoin="round"/>
<path d="M239.952 35.0151C239.952 36.8087 239.952 46.2657 239.952 48.0592V268.015" stroke="#BDA6E3" stroke-width="3.67745" stroke-miterlimit="10" stroke-linecap="round" stroke-linejoin="round"/>
<path d="M223.024 264.27C222.104 265.006 221.185 265.741 220.449 266.661H155.91" stroke="#BDA6E3" stroke-width="3.67745" stroke-miterlimit="10" stroke-linecap="round" stroke-linejoin="round"/>
<path d="M138.994 274.383C130.72 278.796 120.055 278.612 111.965 273.831C107.736 271.441 104.242 267.947 99.829 265.741C93.2096 262.431 85.6708 262.615 78.3159 262.615C68.019 262.799 57.7222 262.983 47.4253 263.167" stroke="#BDA6E3" stroke-width="3.67745" stroke-miterlimit="10" stroke-linecap="round" stroke-linejoin="round"/>
<path d="M151.865 20.0872C120.055 86.0975 120.055 163.692 90.2676 230.621" stroke="#BDA6E3" stroke-width="3.67745" stroke-miterlimit="10" stroke-linecap="round" stroke-linejoin="round"/>
<path d="M255.952 17.0151C254.373 80.4968 254.531 203.533 252.952 267.015" stroke="#BDA6E3" stroke-width="3.67745" stroke-miterlimit="10" stroke-linecap="round" stroke-linejoin="round"/>
<path d="M225.769 124.314C213.818 122.843 201.866 122.291 189.914 123.027" stroke="#BDA6E3" stroke-width="3.67745" stroke-miterlimit="10" stroke-linecap="round" stroke-linejoin="round"/>
<path d="M466.952 258.015C450.589 240.056 452.043 214.423 450.77 191.24C449.679 169.852 417.679 46.4233 410.952 26.0151" stroke="#BDA6E3" stroke-width="3.67745" stroke-miterlimit="10" stroke-linecap="round" stroke-linejoin="round"/>
<path d="M513.952 256.015C492.982 177.382 478.19 97.4431 469.952 17.0151" stroke="#BDA6E3" stroke-width="3.67745" stroke-miterlimit="10" stroke-linecap="round" stroke-linejoin="round"/>
<path d="M515.014 333.958C466.839 333.406 450.29 335.429 404.874 336.532C322.499 338.371 261.637 335.98 184.41 336.716C178.71 336.716 172.826 335.98 167.494 333.59C162.713 331.2 159.036 327.338 155.359 323.293C148.004 315.203 140.649 306.928 133.662 298.654C131.271 295.896 128.881 292.402 130.536 289.093C131.823 286.335 135.316 285.599 138.442 285.231C160.139 282.841 207.762 279.697 229.459 281.903" stroke="#BDA6E3" stroke-width="3.67745" stroke-miterlimit="10" stroke-linecap="round" stroke-linejoin="round"/>
<path d="M531.562 330.648C533.401 330.832 534.504 328.442 534.504 326.603C534.32 321.822 529.907 318.696 525.862 316.122C515.198 309.503 504.349 303.067 493.317 296.815C484.675 291.851 470.333 281.903 448.544 283.319" stroke="#BDA6E3" stroke-width="3.67745" stroke-miterlimit="10" stroke-linecap="round" stroke-linejoin="round"/>
<path d="M432.087 287.99C393.841 285.232 355.412 284.128 316.983 284.496" stroke="#BDA6E3" stroke-width="3.67745" stroke-miterlimit="10" stroke-linecap="round" stroke-linejoin="round"/>
<path d="M416.311 146.279C416.311 146.279 414.674 127.469 399.799 116.106C389.87 108.512 383.839 107.353 379.628 102.462C377.55 100.035 372.696 88.3407 372.034 77.4187C370.986 60.2818 351.716 78.9448 347.781 91.1908C343.846 103.437 339.912 107.372 330.736 109.541C321.561 111.711 316.744 114.34 316.744 114.34C316.744 114.34 313.25 148.43 342.964 156.741C372.678 165.052 416.311 146.279 416.311 146.279Z" fill="#E2A476"/>
<path d="M296.646 154.13C296.646 154.13 294.458 173.805 284.842 182.318C275.225 190.831 233.707 216.629 224.513 226.245C215.338 235.862 219.714 244.173 231.077 241.985C242.44 239.797 306.888 213.135 316.615 196.531C326.342 179.928 320.237 140.138 296.646 154.13Z" fill="#E2A476"/>
<path d="M398.052 213.135C398.052 213.135 329.872 213.135 318.068 207.012C318.068 207.012 315.88 220.122 304.516 222.31C293.153 224.498 240.694 224.499 228.025 235.862C215.356 247.225 222.711 288.045 257.757 297.055C289.898 305.329 313.269 304.042 331.196 304.924C349.124 305.807 384.519 326.346 415.998 322.411C447.477 318.476 450.53 294.444 439.607 272.14C428.685 249.855 406.823 234.115 403.771 227.109C400.682 220.122 398.052 213.135 398.052 213.135Z" fill="#F8CD3D"/>
<path d="M382.901 154.682C382.901 154.682 381.522 138.759 383.857 129.436C386.689 118.073 396.158 113.476 396.158 113.476L387.81 108.401C387.81 108.401 381.706 113.292 375.987 122.872C370.416 132.176 370.526 154.553 348.664 149.975C341.401 148.449 335.094 115.352 334.561 108.401L327.059 110.516C327.059 110.516 332.501 134.897 323.326 147.364C323.326 147.364 334.028 175.129 361.351 167.682C376.521 163.545 382.901 154.682 382.901 154.682Z" fill="#F8CD3D"/>
<path d="M415.98 144.514C415.98 144.514 387.13 154.13 353.904 139.715C320.678 125.299 316.744 114.359 316.744 114.359C316.744 114.359 303.192 131.845 296.628 154.13C296.628 154.13 305.362 156.76 306.244 164.629C307.127 172.499 305.803 194.362 318.049 207.03C330.295 219.699 385.365 215.342 398.034 213.153L400.222 189.985C400.222 189.985 413.332 193.479 422.949 192.615C422.967 192.596 417.285 150.618 415.98 144.514Z" fill="#AB8DDB"/>
<path d="M422.967 192.597C422.967 192.597 396.305 190.188 386.689 187.136C386.689 187.136 390.182 211.83 395 227.57C399.799 243.309 414.123 261.66 422.967 274.328C431.811 286.997 440.177 282.934 438.394 271.791C435.985 256.713 428.63 228.323 427.104 220.582C424.934 209.421 422.967 192.597 422.967 192.597Z" fill="#E2A476"/>
<path d="M351.036 96.9278C344.196 98.0862 336.216 93.0113 331.049 83.5786C325.441 73.3553 323.29 45.2963 342.651 42.0969C360.855 39.0998 367.511 48.1463 371.041 59.5648C374.222 69.8433 369.993 93.71 351.036 96.9278Z" fill="#E2A476"/>
<path d="M379.941 70.5744C381.081 66.3276 379.333 62.168 376.038 61.2836C372.742 60.3992 369.147 63.1249 368.007 67.3716C366.868 71.6184 368.615 75.778 371.91 76.6624C375.206 77.5468 378.801 74.8211 379.941 70.5744Z" fill="#E2A476"/>
<path d="M374.884 65.3385C373.101 67.0301 371.942 69.4021 371.703 71.866" stroke="black" stroke-width="1.83873" stroke-miterlimit="10" stroke-linecap="round" stroke-linejoin="round"/>
<path d="M348.756 96.854C360.855 97.1114 367.492 83.5784 367.492 83.5784" stroke="black" stroke-width="1.83873" stroke-miterlimit="10" stroke-linecap="round" stroke-linejoin="round"/>
<path d="M344.619 65.9449C344.361 68.8685 342.762 71.1302 341.585 72.4173C340.39 73.7412 341.235 76.7934 344.288 76.7934" stroke="black" stroke-width="1.83873" stroke-miterlimit="10" stroke-linecap="round" stroke-linejoin="round"/>
<path d="M362.491 63.0766C362.491 63.0766 360.156 62.9662 358.188 63.573C353.408 64.0511 351.698 68.5744 351.698 68.5744C351.698 68.5744 355.191 68.8686 358.244 67.8205C360.965 66.8827 362.491 63.0766 362.491 63.0766Z" fill="white"/>
<path d="M357.085 68.1145C358.344 68.1145 359.365 67.0937 359.365 65.8345C359.365 64.5752 358.344 63.5544 357.085 63.5544C355.826 63.5544 354.805 64.5752 354.805 65.8345C354.805 67.0937 355.826 68.1145 357.085 68.1145Z" fill="black"/>
<path d="M351.036 68.1699C351.036 68.1699 353.371 65.1544 355.909 63.9041C359.347 62.9847 362.491 63.0767 362.491 63.0767" stroke="black" stroke-width="1.83873" stroke-miterlimit="10" stroke-linecap="round" stroke-linejoin="round"/>
<path d="M329.302 64.1611C329.302 64.1611 330.847 63.8669 333.862 63.9773C337.227 64.9702 339.709 68.8867 339.709 68.8867C339.709 68.8867 335.168 69.4567 331.766 68.0776C329.78 67.2318 329.302 64.1611 329.302 64.1611Z" fill="white"/>
<path d="M334.138 64.014L336.473 66.386C336.455 67.6915 335.407 68.7396 334.101 68.7212C332.796 68.7028 331.748 67.6547 331.766 66.3492C331.766 65.0437 332.833 64.014 334.138 64.014Z" fill="black"/>
<path d="M339.728 68.9053C339.728 68.9053 336.473 64.7865 334.028 64.4739C330.479 64.0326 328.475 64.2717 328.475 64.2717" stroke="black" stroke-width="1.83873" stroke-miterlimit="10" stroke-linecap="round" stroke-linejoin="round"/>
<path d="M352.691 79.625C352.691 84.3689 345.189 86.8512 341.052 82.3279L352.691 79.625Z" fill="white"/>
<path d="M309.885 136.203C310.198 146.665 309.113 157.164 306.667 167.332" stroke="black" stroke-width="2.57422" stroke-miterlimit="10" stroke-linecap="round" stroke-linejoin="round"/>
<path d="M378.488 158.819C382.846 168.38 385.292 178.806 385.623 189.305" stroke="black" stroke-width="2.57422" stroke-miterlimit="10" stroke-linecap="round" stroke-linejoin="round"/>
<path d="M381.173 215.323C381.246 215.654 381.816 215.25 381.632 214.956C381.43 214.68 381.007 214.717 380.676 214.772C363.76 218.192 345.942 216.978 329.651 211.315" stroke="black" stroke-width="2.57422" stroke-miterlimit="10" stroke-linecap="round" stroke-linejoin="round"/>
<path d="M241.779 224.884C241.779 224.884 241.558 232.809 239.627 238.16C237.697 243.511 231.28 252.3 229.772 254.433C228.264 256.584 226.554 254.212 227.62 250.369C228.687 246.508 229.974 242.867 229.974 242.867C229.974 242.867 223.98 245.019 221.828 248.659C219.677 252.3 216.68 261.935 213.683 260.004C213.683 260.004 210.906 261.144 210.042 260.262C209.178 259.379 210.042 257.651 210.042 257.651C210.042 257.651 206.824 257.007 207.689 253.789C208.553 250.572 209.619 242.647 215.834 234.722C222.068 226.815 240.05 213.319 241.779 224.884Z" fill="#E2A476"/>
<path d="M423.408 267.102C423.408 267.102 421.937 275.854 422.893 282.161C423.849 288.468 429.035 299.5 430.211 302.185C431.407 304.869 433.797 302.644 433.448 298.176C433.098 293.708 432.473 289.424 432.473 289.424C432.473 289.424 438.614 293.065 440.177 297.533C441.74 302.001 442.972 313.235 446.686 311.764C446.686 311.764 449.5 313.622 450.64 312.831C451.78 312.04 451.21 309.963 451.21 309.963C451.21 309.963 454.887 309.944 454.63 306.23C454.372 302.516 454.906 293.561 449.794 283.522C444.664 273.482 427.803 254.764 423.408 267.102Z" fill="#E2A476"/>
<path d="M416.991 168.749C406.823 166.432 397.059 162.35 388.252 156.779" stroke="black" stroke-width="2.57422" stroke-miterlimit="10" stroke-linecap="round" stroke-linejoin="round"/>
<path d="M409.746 175.441C405.481 175 401.417 173.308 397.739 171.065C394.062 168.84 390.752 166.082 387.443 163.342" stroke="black" stroke-width="2.57422" stroke-miterlimit="10" stroke-linecap="round" stroke-linejoin="round"/>
<path d="M440.729 283.981C445.455 290.582 448.249 298.544 448.672 306.653" stroke="black" stroke-width="2.57422" stroke-miterlimit="10" stroke-linecap="round" stroke-linejoin="round"/>
<path d="M446.245 282.18C449.242 287.935 451.246 294.223 452.111 300.659" stroke="black" stroke-width="2.57422" stroke-miterlimit="10" stroke-linecap="round" stroke-linejoin="round"/>
<path d="M224.164 236.8C221.405 239.337 219.034 242.261 217.14 245.479C215.117 248.917 213.646 252.668 212.175 256.382" stroke="black" stroke-width="2.57422" stroke-miterlimit="10" stroke-linecap="round" stroke-linejoin="round"/>
<path d="M218.923 235.255C216.368 240.054 213.996 244.927 211.771 249.891" stroke="black" stroke-width="2.57422" stroke-miterlimit="10" stroke-linecap="round" stroke-linejoin="round"/>
<path d="M233.541 235.586C232.346 238.84 231.022 242.04 229.588 245.184" stroke="black" stroke-width="2.57422" stroke-miterlimit="10" stroke-linecap="round" stroke-linejoin="round"/>
<path d="M404.028 262.008C391.782 257.54 378.23 258.956 365.378 261.181C352.525 263.406 339.544 266.385 326.581 264.858" stroke="black" stroke-width="2.57422" stroke-miterlimit="10" stroke-linecap="round" stroke-linejoin="round"/>
<path d="M345.226 262.432C341.383 258.901 337.54 255.371 333.697 251.822C323.124 242.114 312.092 232.111 298.43 227.753" stroke="black" stroke-width="2.57422" stroke-miterlimit="10" stroke-linecap="round" stroke-linejoin="round"/>
<path d="M314.739 225.087C321.175 229.371 326.544 235.292 330.185 242.114" stroke="black" stroke-width="2.57422" stroke-miterlimit="10" stroke-linecap="round" stroke-linejoin="round"/>
<path d="M335.351 271.883C335.351 271.883 324.117 284.79 321.561 293.8C321.561 293.8 298.853 280.948 292.436 276.443C286 271.938 276.163 264.234 274.434 259.526C272.724 254.819 273.791 244.099 278.719 245.166C283.646 246.232 295.708 259.085 295.708 259.085C302.346 258.019 311.908 256.529 312.349 265.098C312.349 265.098 314.28 268.021 319.207 269.456C324.117 270.871 335.351 271.883 335.351 271.883Z" fill="#E2A476"/>
<path d="M357.287 311.783C357.287 311.783 332.262 309.871 323.694 309.429C315.125 309.006 297.437 303.251 297.437 303.251C297.437 303.251 308.267 288.229 308.91 283.945C308.91 283.945 339.525 300.677 347.285 305.016C354.401 308.988 357.287 311.783 357.287 311.783Z" fill="#E2A476"/>
<path d="M321.855 291.796C304.737 285.14 287.931 276.277 276.052 262.266" stroke="black" stroke-width="2.57422" stroke-miterlimit="10" stroke-linecap="round" stroke-linejoin="round"/>
<path d="M311.577 271.588C311.099 269.584 309.444 267.893 307.44 267.359" stroke="black" stroke-width="2.57422" stroke-miterlimit="10" stroke-linecap="round" stroke-linejoin="round"/>
<path d="M279.803 252.264C277.671 251.436 275.758 250.057 274.306 248.292" stroke="black" stroke-width="2.57422" stroke-miterlimit="10" stroke-linecap="round" stroke-linejoin="round"/>
<path d="M277.799 256.437C276.108 255.518 274.582 254.286 273.331 252.815" stroke="black" stroke-width="2.57422" stroke-miterlimit="10" stroke-linecap="round" stroke-linejoin="round"/>
<path d="M239.683 243.051C239.407 242.794 239.866 242.408 240.234 242.334C250.182 240.385 260.754 241.838 269.801 246.416" stroke="black" stroke-width="2.57422" stroke-miterlimit="10" stroke-linecap="round" stroke-linejoin="round"/>
<path d="M288.942 75.028C289.218 73.9247 290.192 73.3547 291.167 72.6744C292.693 71.6998 293.943 70.7253 294.642 68.9234C295.617 66.4227 295.341 63.7933 297.547 61.7156C298.798 60.4652 300.875 60.4652 302.824 64.492C304.075 67.1214 306.024 69.2176 308.653 70.5966C309.076 70.8724 309.628 71.0195 310.032 71.2953C310.731 71.7182 311.135 72.2699 311.135 72.8215C311.411 73.6489 311.411 74.4947 310.988 75.175C310.437 76.2783 308.763 76.8483 307.789 77.8044C306.539 78.7789 305.711 80.0293 304.884 81.4083C303.633 83.4861 302.659 87.2371 299.202 86.2626C296.573 85.4351 296.003 82.107 294.072 80.3051C292.27 78.926 288.114 78.2273 288.942 75.028Z" fill="#FEE8A5"/>
<path d="M303.229 78.632C301.703 80.9856 300.728 83.7621 300.176 86.5386C300.324 80.9856 295.874 75.0281 290.468 73.6307C290.468 73.6307 294.495 71.8287 296.426 69.751C300.305 65.3196 300.581 59.8954 300.581 59.8954C300.581 59.8954 301.684 66.5516 304.608 69.8797C306.134 71.6816 307.807 72.932 309.885 73.6307C307.108 74.4765 304.755 76.1497 303.229 78.632Z" stroke="black" stroke-width="2.57422" stroke-miterlimit="10" stroke-linecap="round" stroke-linejoin="round"/>
<path d="M287.14 99.1159C286.754 99.8881 286.166 100.293 285.393 100.679C284.217 101.267 283.242 101.856 282.672 103.014C281.697 104.761 281.495 106.526 279.951 107.887C278.774 108.659 277.413 108.475 276.641 105.349C276.053 103.4 274.894 101.635 273.331 100.274C273.129 100.072 272.743 99.8881 272.559 99.6859C272.173 99.2997 271.971 98.9136 271.971 98.5091C271.768 97.9207 271.971 97.3323 272.357 96.7623C272.945 95.99 273.92 95.7878 274.894 95.1994C275.869 94.4271 276.641 93.6365 277.229 92.8642C278.204 91.5035 279.381 88.9661 281.716 89.9406C283.463 90.7129 283.463 93.4526 284.639 94.8133C285.393 96.0084 288.115 97.1668 287.14 99.1159Z" fill="#FEE8A5"/>
<path d="M277.192 96.1924C278.369 94.2433 279.142 92.092 279.73 89.7568C279.73 94.2433 283.242 99.116 287.526 100.09C287.526 100.09 284.216 101.451 282.653 103.216C279.528 106.728 279.142 111.215 279.142 111.215C279.142 111.215 278.369 105.956 276.016 103.216C274.839 101.856 273.478 100.881 271.731 100.09C274.085 99.5205 275.832 97.9576 277.192 96.1924Z" stroke="black" stroke-width="2.57422" stroke-miterlimit="10" stroke-linecap="round" stroke-linejoin="round"/>
<path d="M344.619 44.1741C344.619 44.1741 337.576 59.3252 325.808 63.2969C325.808 63.2969 324.521 43.3283 345.207 40.5334C365.874 37.7569 371.372 55.0226 371.666 62.1201C371.685 62.1017 347.248 62.1568 344.619 44.1741Z" fill="#5C5C5C"/>
<path d="M349.289 60.9436C349.289 60.9436 355.559 55.6665 363.3 57.8362" stroke="black" stroke-width="1.83873" stroke-miterlimit="10" stroke-linecap="round" stroke-linejoin="round"/>
<path d="M325.827 60.5023C325.827 60.5023 332.281 58.1855 338.974 61.201" stroke="black" stroke-width="1.83873" stroke-miterlimit="10" stroke-linecap="round" stroke-linejoin="round"/>
<path d="M349.749 41.3243C353.261 48.8999 360.211 54.7838 368.247 57.0455" stroke="#E2E2E2" stroke-width="1.83873" stroke-miterlimit="10" stroke-linecap="round" stroke-linejoin="round"/>
<path d="M359.935 45.6453C362.675 49.3963 366.481 52.3566 370.802 54.085" stroke="#E2E2E2" stroke-width="1.83873" stroke-miterlimit="10" stroke-linecap="round" stroke-linejoin="round"/>
<path d="M340.39 43.4756C338.202 48.1276 334.708 52.1544 330.406 54.9676" stroke="#E2E2E2" stroke-width="1.83873" stroke-miterlimit="10" stroke-linecap="round" stroke-linejoin="round"/>
<path d="M161.408 279.807C161.408 279.807 175.346 270.522 193.329 270.227C211.311 269.933 222.932 272.25 222.932 272.25C222.932 272.25 224.385 265.575 225.543 263.534L226.426 250.332C226.499 249.266 227.823 248.825 228.522 249.634C230.765 252.281 234.351 256.621 235.711 258.809C235.711 258.809 247.7 256.29 254.374 260.96L265.131 258.165C266.161 257.89 267.025 259.011 266.473 259.931L259.431 272.14C259.431 272.14 260.663 279.476 256.599 284.698C256.599 284.698 263.274 298.047 260.368 306.469C257.463 314.89 250.219 323.293 249.63 327.945C249.042 332.597 246.431 337.525 242.367 335.778C238.304 334.031 238.304 330.85 238.304 330.85C238.304 330.85 242.367 321.565 242.367 318.09L226.113 318.384C226.113 318.384 235.086 323.477 237.145 326.106C239.205 328.736 237.734 337.672 232.788 336.164C227.86 334.638 210.723 322.171 207.836 317.225C207.836 317.225 194.487 314.32 189.835 315.479C185.183 316.637 173.875 321.565 173.286 324.764C172.698 327.963 181.708 336.366 180.825 340.724C179.943 345.082 175.015 346.13 171.54 341.975C168.064 337.819 160.801 326.511 159.055 322.741C157.308 318.972 162.53 310.992 162.53 310.992C162.53 310.992 150.633 313.456 143.959 316.637C137.284 319.818 128.569 330.28 125.388 333.461C122.188 336.661 114.061 334.325 118.125 327.375C122.188 320.406 137.284 305.31 141.623 299.224C145.963 293.138 155.837 284.128 155.837 284.128C155.837 284.128 135.225 284.128 127.98 293.12C120.717 302.111 119.265 318.071 109.979 321.565C100.693 325.04 94.5153 314.081 99.7373 308.216C104.959 302.35 118.419 287.033 125.369 281.517C135.28 273.703 152.987 272.544 161.408 279.807Z" fill="black"/>
<path d="M238.929 273.831C238.929 273.831 238.267 267.23 231.629 268.518C231.629 268.536 231.629 274.438 238.929 273.831Z" fill="white"/>
<path d="M248.159 275.781C248.159 275.781 251.653 269.823 256.47 272.379C256.47 272.379 254.429 277.914 248.159 275.781Z" fill="white"/>
<path d="M235.362 268.72C235.362 268.72 233.725 268.554 233.542 270.007C233.394 271.11 233.045 272.931 235.38 273.501C237.109 273.942 238.267 269.308 235.362 268.72Z" fill="#32B2A8"/>
<path d="M252.388 271.864C252.388 271.864 250.347 272.673 250.476 274.622C250.605 276.552 252.131 276.663 253.528 275.652C254.963 274.585 255.183 271.055 252.388 271.864Z" fill="#32B2A8"/>
<path d="M235.638 270.007C235.417 270.742 235.233 271.478 235.068 272.213" stroke="black" stroke-width="1.47098" stroke-miterlimit="10" stroke-linecap="round" stroke-linejoin="round"/>
<path d="M252.958 272.783C252.738 273.519 252.554 274.254 252.388 274.99" stroke="black" stroke-width="1.47098" stroke-miterlimit="10" stroke-linecap="round" stroke-linejoin="round"/>
<path d="M233.597 260.151C233.597 260.151 229.938 253.256 228.669 253.698C227.4 254.157 227.676 261.365 227.86 262.744C227.86 262.744 232.015 260.427 233.597 260.151Z" fill="#FEB095"/>
<path d="M256.47 262.192C256.47 262.192 262.079 259.545 263.035 261.42C263.568 262.45 259.155 269.308 259.155 269.308C259.155 269.308 257.5 262.762 256.47 262.192Z" fill="#FEB095"/>
<path d="M209.178 296.172C205.023 302.001 204.986 310.44 209.087 316.324" stroke="#E2E2E2" stroke-width="1.83873" stroke-miterlimit="10" stroke-linecap="round" stroke-linejoin="round"/>
<path d="M219.144 306.837C219.935 311.286 222.16 315.442 225.433 318.568" stroke="#E2E2E2" stroke-width="1.83873" stroke-miterlimit="10" stroke-linecap="round" stroke-linejoin="round"/>
<path d="M247.516 309.356C246.008 312.316 244.629 315.332 243.379 318.402" stroke="#E2E2E2" stroke-width="1.83873" stroke-miterlimit="10" stroke-linecap="round" stroke-linejoin="round"/>
<path d="M164.626 309.356C172.698 307.646 178.177 303.067 181.303 295.418" stroke="#E2E2E2" stroke-width="1.83873" stroke-miterlimit="10" stroke-linecap="round" stroke-linejoin="round"/>
<path d="M238.23 279.881C238.69 281.039 240.142 281.591 241.338 281.26C242.533 280.929 243.434 279.881 243.857 278.722C243.875 279.678 244.151 280.671 244.831 281.333C245.512 281.995 246.652 282.234 247.461 281.719C247.975 281.388 248.27 280.818 248.545 280.285" stroke="#E2E2E2" stroke-width="1.47098" stroke-miterlimit="10" stroke-linecap="round" stroke-linejoin="round"/>
<path d="M241.853 276.461C241.853 276.461 242.662 275.449 244.225 275.762C245.787 276.074 245.787 277.288 245.787 277.288C245.787 277.288 244.703 279.347 243.25 279.108C241.797 278.888 241.853 276.461 241.853 276.461Z" fill="#FEB095"/>
</g>
<defs>
<clipPath id="clip0_1139_4854">
<rect width="680" height="360" rx="24" fill="white"/>
</clipPath>
</defs>
</svg>
