<svg width="680" height="360" viewBox="0 0 680 360" fill="none" xmlns="http://www.w3.org/2000/svg">
<g clip-path="url(#clip0_1139_5032)">
<rect width="680" height="360" rx="30" fill="#C3ECE9"/>
<path d="M640.157 176.2H662.491" stroke="#9ACCC6" stroke-width="3" stroke-miterlimit="10" stroke-linecap="round" stroke-linejoin="round"/>
<path d="M62.8018 176.2H621.317" stroke="#9ACCC6" stroke-width="3" stroke-miterlimit="10" stroke-linecap="round" stroke-linejoin="round"/>
<path d="M14.2659 176.2C15.2432 176.2 48.453 176.2 49.4304 176.2" stroke="#9ACCC6" stroke-width="3" stroke-miterlimit="10" stroke-linecap="round" stroke-linejoin="round"/>
<path d="M327.523 46.1267C291.922 40.2417 253.659 61.6398 240.038 95.0575C240.683 89.9627 237.896 84.8679 233.924 81.6239C229.953 78.3799 224.899 76.7163 219.888 75.6141C200.694 71.3927 179.961 74.6368 162.972 84.5144C146.71 93.997 133.297 112.089 136.936 130.555C129.034 121.197 115.018 118.702 103.248 122.05C91.4572 125.398 81.6627 133.612 73.4902 142.762C70.8285 145.735 68.1667 148.938 64.5483 150.601C57.6444 153.762 49.6798 150.539 42.6719 147.607C35.6639 144.675 27.2003 142.179 20.8994 146.421" stroke="#9ACCC6" stroke-width="3" stroke-miterlimit="10" stroke-linecap="round" stroke-linejoin="round"/>
<path d="M403.592 45.2118C436.302 43.2571 475.377 65.4455 491.638 88.5072C492.345 83.3085 495.756 78.8791 499.54 75.24C514.305 61.0161 536.951 55.5886 556.561 61.5152C576.17 67.4626 591.975 84.5562 596.383 104.561C598.629 114.834 598.068 125.481 597.298 135.982C611.938 122.507 637.807 124.192 650.575 139.455" stroke="#9ACCC6" stroke-width="3" stroke-miterlimit="10" stroke-linecap="round" stroke-linejoin="round"/>
<path d="M174.201 285.354H436.302" stroke="#9ACCC6" stroke-width="3" stroke-miterlimit="10" stroke-linecap="round" stroke-linejoin="round"/>
<path d="M482.073 293.006C499.499 291.925 516.967 291.509 534.414 291.717" stroke="#9ACCC6" stroke-width="3" stroke-miterlimit="10" stroke-linecap="round" stroke-linejoin="round"/>
<path d="M339.626 315.506C362.917 314.82 386.186 313.551 409.435 311.68" stroke="#9ACCC6" stroke-width="3" stroke-miterlimit="10" stroke-linecap="round" stroke-linejoin="round"/>
<path d="M274.226 315.881C284.623 315.007 295.062 314.779 305.481 315.236" stroke="#9ACCC6" stroke-width="3" stroke-miterlimit="10" stroke-linecap="round" stroke-linejoin="round"/>
<path d="M218.12 373.276C218.12 373.276 209.677 339.858 176.384 330.417C143.091 320.976 157.627 280.987 114.748 264.995C71.8683 249.004 65.3178 275.892 46.4358 264.995C27.5539 254.099 31.9625 236.049 -0.769043 229.436V373.276H218.12Z" fill="#32B2A8"/>
<path d="M59.9527 321.495C59.3496 318.626 57.0622 318.189 54.7747 318.688C55.9808 316.214 56.272 313.489 52.9863 312.762C49.7839 312.054 48.3906 314.862 47.9331 317.815C46.1032 315.714 43.3166 314.446 41.1331 316.671C38.6793 319.187 40.842 322.223 43.4622 323.721C41.2787 325.239 39.324 327.235 42.0273 329.793C44.0652 331.727 46.0408 330.645 47.4548 328.919C48.3074 331.332 49.9919 333.536 52.716 332.725C55.7521 331.831 55.6481 329.086 54.546 326.798C57.6029 326.757 60.7221 325.218 59.9527 321.495Z" fill="white"/>
<path d="M51.6972 320.373C51.4893 320.248 51.2605 320.123 51.011 320.061C50.7823 319.998 50.5327 319.978 50.304 319.978C50.2624 319.978 50.2416 319.978 50.2 319.957C49.7009 319.853 49.2226 319.874 48.7859 320.061C47.8294 320.31 46.9975 320.934 46.7688 322.036C46.6024 322.806 46.8312 323.7 47.2887 324.449C47.663 325.343 48.5156 326.008 49.493 326.195C50.9278 326.466 52.2795 325.613 52.7786 324.261C52.9449 323.783 52.9865 323.284 52.9242 322.827C53.1945 321.662 52.633 320.83 51.6972 320.373Z" fill="#FFC825"/>
<path d="M22.9165 276.807C25.0584 274.811 24.2474 272.627 22.6254 270.922C25.3704 270.673 27.845 269.508 26.7636 266.306C25.7031 263.207 22.5838 263.477 19.8181 264.6C20.6499 261.959 20.2963 258.902 17.2603 258.195C13.8291 257.405 12.3734 260.816 12.4566 263.852C10.0444 262.77 7.29941 262.126 6.5092 265.765C5.90614 268.51 7.86088 269.633 10.0652 269.945C8.44314 271.92 7.44498 274.499 9.54528 276.412C11.8951 278.533 14.1826 277.036 15.5551 274.915C17.1979 277.514 20.13 279.386 22.9165 276.807Z" fill="white"/>
<path d="M19.6102 269.175C19.6102 268.926 19.5894 268.676 19.527 268.426C19.4646 268.198 19.3606 267.969 19.2359 267.761C19.2151 267.719 19.2151 267.699 19.1943 267.657C19.0279 267.179 18.7576 266.763 18.3833 266.492C17.6762 265.806 16.6989 265.432 15.6383 265.806C14.8897 266.077 14.245 266.742 13.8291 267.511C13.2677 268.302 13.1221 269.362 13.4756 270.319C13.9747 271.691 15.4303 272.398 16.8236 272.107C17.3227 272.003 17.7594 271.795 18.1337 271.504C19.2774 271.109 19.6726 270.194 19.6102 269.175Z" fill="#FFC825"/>
<path d="M129.554 301.636C131.696 299.64 130.885 297.456 129.263 295.751C132.008 295.502 134.482 294.337 133.401 291.135C132.34 288.036 129.221 288.306 126.455 289.429C127.287 286.788 126.934 283.732 123.897 283.025C120.466 282.234 119.011 285.645 119.094 288.681C116.682 287.599 113.937 286.955 113.146 290.594C112.543 293.339 114.498 294.462 116.702 294.774C115.08 296.749 114.082 299.328 116.182 301.241C118.532 303.362 120.82 301.865 122.192 299.744C123.835 302.364 126.788 304.236 129.554 301.636Z" fill="white"/>
<path d="M126.247 294.004C126.247 293.755 126.227 293.505 126.164 293.256C126.102 293.027 125.998 292.798 125.873 292.59C125.852 292.549 125.852 292.528 125.831 292.486C125.665 292.008 125.395 291.592 125.02 291.322C124.313 290.636 123.336 290.261 122.276 290.636C121.527 290.906 120.882 291.571 120.466 292.341C119.905 293.131 119.759 294.192 120.113 295.148C120.612 296.521 122.068 297.228 123.461 296.937C123.96 296.833 124.397 296.625 124.771 296.333C125.915 295.959 126.331 295.044 126.247 294.004Z" fill="#FFC825"/>
<path d="M162.805 346.263C162.181 343.393 159.894 342.977 157.607 343.518C158.792 341.043 159.062 338.298 155.756 337.591C152.553 336.905 151.181 339.733 150.744 342.686C148.893 340.606 146.107 339.359 143.944 341.604C141.511 344.141 143.715 347.157 146.336 348.633C144.173 350.172 142.218 352.189 144.942 354.726C147.001 356.639 148.956 355.558 150.349 353.811C151.222 356.223 152.928 358.407 155.631 357.554C158.646 356.618 158.542 353.874 157.419 351.628C160.497 351.544 163.616 349.985 162.805 346.263Z" fill="white"/>
<path d="M154.55 345.223C154.342 345.098 154.113 344.973 153.863 344.911C153.635 344.848 153.385 344.828 153.156 344.828C153.115 344.828 153.094 344.828 153.052 344.828C152.553 344.724 152.075 344.744 151.638 344.932C150.682 345.181 149.85 345.826 149.642 346.928C149.496 347.697 149.725 348.592 150.183 349.34C150.578 350.234 151.43 350.9 152.408 351.066C153.843 351.337 155.194 350.463 155.673 349.091C155.839 348.612 155.881 348.113 155.818 347.656C156.047 346.491 155.465 345.68 154.55 345.223Z" fill="#FFC825"/>
<path d="M512.579 373.275H679.231V239.188C679.231 239.188 657.043 233.865 642.507 245.136C627.971 256.427 624.769 287.724 592.536 280.986C564.525 275.122 537.076 294.108 531.003 314.529C523.247 340.585 499.998 320.289 475.273 336.967C454.249 351.149 450.63 373.275 450.63 373.275H512.579Z" fill="#32B2A8"/>
<path d="M597.194 310.162C599.897 311.326 601.561 309.704 602.455 307.521C603.786 309.933 605.866 311.742 608.34 309.455C610.753 307.23 609.255 304.485 607.113 302.405C609.879 302.114 612.52 300.555 611.938 297.498C611.272 294.046 607.571 294.087 604.826 295.377C604.847 292.715 604.327 289.97 600.667 290.698C597.901 291.259 597.672 293.484 598.275 295.626C595.822 294.94 593.035 295.065 592.141 297.747C591.143 300.742 593.451 302.239 595.946 302.634C594.241 305.213 593.701 308.644 597.194 310.162Z" fill="white"/>
<path d="M602.85 304.048C603.079 303.965 603.287 303.84 603.516 303.674C603.703 303.528 603.869 303.341 603.994 303.133C604.015 303.112 604.036 303.071 604.057 303.05C604.431 302.717 604.701 302.301 604.784 301.844C605.138 300.908 605.096 299.868 604.327 299.057C603.786 298.475 602.913 298.163 602.039 298.101C601.083 297.914 600.064 298.205 599.336 298.912C598.275 299.931 598.213 301.532 599.045 302.717C599.336 303.133 599.71 303.445 600.126 303.674C600.916 304.526 601.935 304.527 602.85 304.048Z" fill="#FFC825"/>
<path d="M572.698 348.654C573.114 351.565 575.359 352.148 577.689 351.794C576.316 354.185 575.838 356.889 579.103 357.825C582.243 358.74 583.823 356.036 584.488 353.125C586.173 355.329 588.876 356.785 591.185 354.705C593.805 352.356 591.829 349.195 589.313 347.531C591.58 346.159 593.68 344.287 591.143 341.563C589.23 339.504 587.192 340.44 585.674 342.062C584.988 339.587 583.449 337.3 580.683 337.924C577.605 338.631 577.522 341.376 578.458 343.705C575.401 343.559 572.178 344.89 572.698 348.654Z" fill="white"/>
<path d="M580.87 350.338C581.057 350.484 581.286 350.608 581.536 350.712C581.764 350.796 581.993 350.837 582.243 350.858C582.284 350.858 582.305 350.879 582.347 350.879C582.825 351.024 583.324 351.024 583.761 350.879C584.738 350.692 585.611 350.109 585.903 349.028C586.111 348.259 585.944 347.364 585.549 346.574C585.216 345.659 584.426 344.931 583.449 344.682C582.035 344.307 580.621 345.077 580.059 346.408C579.851 346.886 579.789 347.364 579.81 347.822C579.456 348.924 579.976 349.797 580.87 350.338Z" fill="#FFC825"/>
<path d="M491.16 360.715C493.863 361.859 495.506 360.216 496.4 358.032C497.752 360.424 499.832 362.212 502.306 359.904C504.698 357.658 503.18 354.934 501.017 352.875C503.783 352.563 506.403 350.983 505.8 347.926C505.114 344.474 501.391 344.557 498.667 345.867C498.646 343.205 498.126 340.46 494.466 341.23C491.721 341.812 491.493 344.037 492.117 346.179C489.642 345.514 486.876 345.659 486.003 348.363C485.025 351.378 487.334 352.854 489.85 353.229C488.166 355.807 487.646 359.259 491.16 360.715Z" fill="white"/>
<path d="M496.754 354.56C496.983 354.456 497.191 354.352 497.419 354.165C497.606 354.019 497.752 353.832 497.898 353.624C497.918 353.603 497.939 353.561 497.96 353.541C498.334 353.208 498.584 352.792 498.688 352.314C499.021 351.378 498.979 350.338 498.189 349.527C497.648 348.966 496.775 348.633 495.901 348.591C494.945 348.404 493.926 348.716 493.198 349.423C492.158 350.442 492.096 352.043 492.948 353.229C493.26 353.645 493.635 353.957 494.05 354.165C494.841 355.059 495.839 355.059 496.754 354.56Z" fill="#FFC825"/>
<path d="M649.951 272.897C650.367 275.808 652.613 276.39 654.942 276.037C653.57 278.428 653.091 281.132 656.356 282.067C659.496 282.982 661.077 280.279 661.742 277.368C663.427 279.572 666.13 281.028 668.438 278.948C671.058 276.598 669.083 273.437 666.567 271.774C668.833 270.401 670.934 268.53 668.397 265.806C666.483 263.747 664.446 264.683 662.928 266.305C662.241 263.83 660.702 261.543 657.937 262.166C654.859 262.873 654.776 265.618 655.712 267.947C652.634 267.802 649.411 269.133 649.951 272.897Z" fill="white"/>
<path d="M658.103 274.56C658.29 274.706 658.519 274.831 658.768 274.935C658.997 275.018 659.226 275.06 659.475 275.08C659.517 275.08 659.538 275.101 659.579 275.101C660.058 275.247 660.557 275.247 660.993 275.101C661.971 274.914 662.844 274.332 663.135 273.25C663.343 272.481 663.177 271.587 662.782 270.797C662.449 269.882 661.659 269.154 660.681 268.904C659.267 268.53 657.853 269.299 657.292 270.63C657.084 271.108 657.021 271.587 657.042 272.044C656.689 273.167 657.209 274.041 658.103 274.56Z" fill="#FFC825"/>
<path d="M366.955 234.059L360.093 281.069L420.941 285.562C420.941 285.562 424.922 276.52 420.941 271.876C416.96 267.232 400.071 263.933 400.734 256.635C401.398 249.356 404.924 234.04 404.924 234.04H366.955V234.059Z" fill="#FFC825"/>
<path d="M279.683 260.086L235.649 242.21L216.788 300.234C216.788 300.234 224.617 306.243 230.076 303.494C235.535 300.746 239.402 287.477 248.236 289.107C255.439 290.434 265.808 294.073 265.808 294.073L279.683 260.086Z" fill="#FFC825"/>
<path d="M438.835 211.653C442.475 216.563 445.47 221.851 450.095 224.183C454.72 226.515 468.653 238.76 468.653 238.76C468.653 238.76 467.667 236.713 468.653 241.376C469.638 246.039 468.444 254.19 464.35 257.299C457.943 262.151 448.237 247.991 448.237 247.991C440.067 247.442 429.566 226.97 428.239 225.908L438.835 211.653Z" fill="#FEB095"/>
<path d="M346.597 110.259C346.597 110.259 355.866 110.771 369.363 126.391C382.859 142.01 407.577 177.761 420.884 190.783C434.191 203.806 442.816 211.653 442.816 211.653L429.225 231.14C429.225 231.14 388.091 217.113 373.988 203.199C359.885 189.286 347.26 158.16 347.26 158.16L252.103 159.26C252.103 159.26 266.983 127.698 273.523 117.86C283.797 102.412 300.079 102.412 313.576 102.563C324.551 102.696 346.597 110.259 346.597 110.259Z" fill="white"/>
<path d="M252.121 159.26C252.121 159.26 228.711 208.734 227.82 224.638C226.929 240.542 223.404 266.796 270.66 279.951L265.807 294.092C265.807 294.092 328.873 313.54 360.093 307.683C378.367 304.252 390.214 285.524 384.47 272.558C378.727 259.593 347.071 241.395 347.071 241.395L366.462 230.363L366.595 236.448L404.488 235.993C404.488 235.993 430.533 180.016 421.699 163.241C412.866 146.465 389.456 151.317 376.206 159.26C362.956 167.202 342.199 182.67 342.199 182.67L348.379 159.696C348.379 159.696 344.303 154.786 346.483 145.176L291.834 133.139C291.853 133.139 278.622 159.26 252.121 159.26Z" fill="#32B2A8"/>
<path d="M319.699 34.2658C319.699 34.2658 321.026 19.2528 334.712 16.163C348.398 13.0733 357.496 14.8361 362.444 18.8168C367.391 22.7975 374.007 36.9196 374.007 36.9196L319.699 34.2658Z" fill="#FEE8A5"/>
<path d="M311.889 81.7502C311.889 81.7502 283.872 77.5041 294.791 52.8048C300.042 40.9196 320.078 23.215 352.701 25.4138C385.323 27.6127 398.706 59.4773 390.783 71.5521C382.347 84.4419 362.311 102.526 311.889 81.7502Z" fill="#FEE8A5"/>
<path d="M352.606 33.7729C361.534 34.9861 379.845 40.1231 381.399 62.2634C382.954 84.4036 371.429 95.2274 360.112 98.3361C348.796 101.445 324.987 97.8432 318.77 92.0049C312.552 86.1665 301.823 57.9035 319.718 44.3123C337.612 30.721 344.076 32.6166 352.606 33.7729Z" fill="white"/>
<path d="M342.37 110.222C342.37 110.222 343.677 103.454 344.076 96.0806C344.474 88.7068 325.802 72.7651 320.362 84.8019C314.922 96.8388 315.983 94.3556 311.32 102.526C311.32 102.526 315.926 114.525 327.698 117.52C339.109 120.401 341.156 115.036 342.37 110.222Z" fill="#FEB095"/>
<path d="M361.174 47.1177C369.95 48.4446 375.561 62.2823 373.609 73.1629C371.656 84.0435 361.363 108.515 345.516 107.169C329.669 105.824 324.058 92.82 323.073 87.5503C322.106 82.2616 325.423 41.6775 361.174 47.1177Z" fill="#FEB095"/>
<path d="M344.815 107.075C338.825 105.52 333.233 103.264 329.954 98.0327" stroke="black" stroke-width="2.5" stroke-miterlimit="10" stroke-linecap="round" stroke-linejoin="round"/>
<path d="M357.875 78.7551C357.269 84.2144 357.193 88.1003 357.193 88.1003L352.606 86.8113" stroke="black" stroke-width="2.5" stroke-miterlimit="10" stroke-linecap="round" stroke-linejoin="round"/>
<path d="M340.967 66.5853C346.786 65.884 351.165 68.3482 354.426 71.2863" stroke="black" stroke-width="2.5" stroke-miterlimit="10" stroke-linecap="round" stroke-linejoin="round"/>
<path d="M363.107 74.6228C368.453 73.258 372.111 76.2909 372.111 76.2909" stroke="black" stroke-width="2.5" stroke-miterlimit="10" stroke-linecap="round" stroke-linejoin="round"/>
<path d="M340.398 71.4761C340.398 71.4761 340.247 71.3813 344.341 71.9879C349.346 73.239 350.255 77.4092 350.255 77.4092C350.255 77.4092 346.199 78.0348 343.109 76.4425C340.361 75.0397 340.398 71.4761 340.398 71.4761Z" fill="white"/>
<path d="M344.815 76.9543C346.166 76.9543 347.26 75.8595 347.26 74.509C347.26 73.1585 346.166 72.0637 344.815 72.0637C343.465 72.0637 342.37 73.1585 342.37 74.509C342.37 75.8595 343.465 76.9543 344.815 76.9543Z" fill="black"/>
<path d="M350.672 77.466C350.672 77.466 349.364 74.2435 346.294 72.6891C342.029 70.8883 339.469 71.7982 339.469 71.7982" stroke="black" stroke-width="2.5" stroke-miterlimit="10" stroke-linecap="round" stroke-linejoin="round"/>
<path d="M372.111 80.6886C372.111 80.6886 371.732 80.2715 368.813 79.1152C363.809 77.5229 362.311 81.9207 362.311 81.9207C362.311 81.9207 364.169 84.1006 367.998 84.2143C371.05 84.5745 372.111 80.6886 372.111 80.6886Z" fill="white"/>
<path d="M366.311 84.2139C367.672 84.2139 368.775 83.1106 368.775 81.7496C368.775 80.3887 367.672 79.2854 366.311 79.2854C364.95 79.2854 363.846 80.3887 363.846 81.7496C363.846 83.1106 364.95 84.2139 366.311 84.2139Z" fill="black"/>
<path d="M362.444 81.4278C362.444 81.4278 365.477 77.3902 372.111 81.75" stroke="black" stroke-width="2.5" stroke-miterlimit="10" stroke-linecap="round" stroke-linejoin="round"/>
<path d="M354.425 95.5498C350.672 96.1753 346.237 93.5026 345.346 89.9199" stroke="black" stroke-width="2.5" stroke-miterlimit="10" stroke-linecap="round" stroke-linejoin="round"/>
<path d="M371.486 56.7476C371.486 56.7476 359.771 66.7183 342.9 67.723C326.03 68.7276 325.158 81.7691 318.087 91.0195C318.087 91.0195 306.828 74.5091 309.918 62.8324C313.121 50.7197 332.418 36.8251 348.473 36.9199C362.254 36.9957 374.026 49.279 371.486 56.7476Z" fill="white"/>
<path d="M365.477 46.4736C356.624 50.4164 346.976 52.4826 338.427 57.013C329.859 61.5434 322.125 69.4859 321.727 79.1722" stroke="black" stroke-width="2.5" stroke-miterlimit="10" stroke-linecap="round" stroke-linejoin="round"/>
<path d="M300.08 41.5828C307.036 36.8439 314.088 32.0671 322.03 29.3185C324.968 28.2949 327.982 27.5746 331.034 27.0438C349.118 23.8782 368.358 27.7641 383.788 37.6969" stroke="black" stroke-width="2.5" stroke-miterlimit="10" stroke-linecap="round" stroke-linejoin="round"/>
<path d="M298.847 103.094C298.847 103.094 300.838 121.822 294.639 139.887L303.719 142.2C303.719 142.2 310.676 114.6 306.771 102.563C306.752 102.563 301.691 102.658 298.847 103.094Z" fill="#32B2A8"/>
<path d="M344.076 109.425C344.076 109.425 341.915 130.921 335.716 148.967L344.796 151.28C344.796 151.28 352.606 125.613 351.393 112.022C351.393 112.041 347.696 110.089 344.076 109.425Z" fill="#32B2A8"/>
<path d="M347.563 60.5765C355.923 57.9795 364.434 55.3068 371.524 50.1887" stroke="black" stroke-width="2.5" stroke-miterlimit="10" stroke-linecap="round" stroke-linejoin="round"/>
<path d="M315.263 64.6713C315.718 61.1076 317.822 57.9799 320.153 55.2503C327.489 46.6633 337.972 40.5786 349.232 39.6118" stroke="black" stroke-width="2.5" stroke-miterlimit="10" stroke-linecap="round" stroke-linejoin="round"/>
<path d="M374.898 56.2354C374.86 56.1027 374.822 55.951 374.784 55.8184C376.281 60.671 377.059 65.7322 377.078 70.8123" stroke="black" stroke-width="2.5" stroke-miterlimit="10" stroke-linecap="round" stroke-linejoin="round"/>
<path d="M315.263 76.2907C315.263 76.2907 305.122 73.9023 300.098 76.8973C295.075 79.9113 293.085 89.3512 296.573 94.147C300.041 98.9428 312.912 99.4736 312.912 99.4736L323.073 82.6977L315.263 76.2907Z" fill="white"/>
<path d="M314.126 78.4329C310.126 77.2387 305.52 79.0774 303.112 82.5083C300.705 85.9204 300.477 90.6404 302.165 94.4505" stroke="black" stroke-width="2.5" stroke-miterlimit="10" stroke-linecap="round" stroke-linejoin="round"/>
<path d="M316.76 82.0344C315.434 82.2998 314.372 83.2665 313.462 84.2333C310.714 87.1525 308.515 90.6024 307.036 94.3367" stroke="black" stroke-width="2.5" stroke-miterlimit="10" stroke-linecap="round" stroke-linejoin="round"/>
<path d="M292.27 104.364C292.27 104.364 265.542 107.208 253.221 130.372C244.369 147.034 222.096 176.491 227.403 188.414C232.711 200.337 244.255 206.517 254.851 197.247C271.002 183.106 277.541 155.545 279.418 148.531C281.294 141.499 292.27 104.364 292.27 104.364Z" fill="white"/>
<path d="M250.852 112.534C250.852 112.534 255.268 102.468 257.884 93.9194C259.723 87.8915 261.941 82.7166 263.059 80.2145C263.476 79.3046 262.699 78.281 261.713 78.4705C260.462 78.698 258.832 79.551 257.467 82.0532C254.775 86.9627 253.884 89.0478 253.884 89.0478C253.884 89.0478 254.301 82.0911 254.264 75.6082C254.226 70.0731 253.771 64.2727 252.539 64.121C250.624 63.8746 250.662 67.2108 249.866 72.9923C249.544 75.2481 249.354 81.276 248.198 80.9727C248.198 80.9727 248.179 76.2906 248.16 71.0588C248.141 65.8271 248.122 60.0456 246.207 59.9698C244.274 59.8939 243.781 64.14 243.648 69.0306C243.497 74.7931 243.061 80.5367 243.061 80.5367C243.061 80.5367 242.682 78.0914 242.549 68.6894C242.492 65.012 241.734 62.2255 240.464 62.3013C238.777 62.415 238.587 66.0356 238.53 71.2863C238.492 75.9873 238.189 81.2381 238.189 81.2381C238.189 81.2381 237.222 81.6361 236.786 76.9541C236.464 73.6179 236.54 69.1822 234.588 69.2201C233.166 69.2391 233.147 75.0206 233.45 81.0485C233.583 83.854 233.81 88.1759 234.076 90.5264C234.853 97.4263 236.426 111.795 236.426 111.795L250.852 112.534Z" fill="#FEB095"/>
<path d="M253.903 89.0481C248.274 90.6025 243.933 93.9766 241.146 97.8815" stroke="black" stroke-width="2.5" stroke-miterlimit="10" stroke-linecap="round" stroke-linejoin="round"/>
<path d="M255.875 107.075C255.875 107.075 273.314 200.148 244.672 201.342C204.789 203.01 232.237 107.075 232.237 107.075H255.875Z" fill="white"/>
<path d="M236.71 82.0723C241.544 82.4703 246.378 82.6788 251.231 82.6788" stroke="black" stroke-width="2.5" stroke-miterlimit="10" stroke-linecap="round" stroke-linejoin="round"/>
<path d="M259.192 125.689C262.851 145.384 263.419 165.648 260.917 185.532" stroke="black" stroke-width="2.5" stroke-miterlimit="10" stroke-linecap="round" stroke-linejoin="round"/>
<path d="M280.328 126.125C280.65 133.708 280.46 141.309 279.778 148.872" stroke="black" stroke-width="2.5" stroke-miterlimit="10" stroke-linecap="round" stroke-linejoin="round"/>
<path d="M303.074 219.387C323.85 227.482 335.678 234.761 354.008 247.461" stroke="black" stroke-width="2.5" stroke-miterlimit="10" stroke-linecap="round" stroke-linejoin="round"/>
<path d="M271.267 280.729C300.591 288.747 331.394 291.438 361.667 288.595" stroke="black" stroke-width="2.5" stroke-miterlimit="10" stroke-linecap="round" stroke-linejoin="round"/>
<path d="M347.014 242.116C369.42 229.017 391.294 215.047 412.601 200.223" stroke="black" stroke-width="2.5" stroke-miterlimit="10" stroke-linecap="round" stroke-linejoin="round"/>
<path d="M319.699 197.664C319.699 197.664 347.109 178.102 368.548 165.572" stroke="black" stroke-width="2.5" stroke-miterlimit="10" stroke-linecap="round" stroke-linejoin="round"/>
<path d="M293.085 133.708C310.998 137.214 328.759 141.385 346.35 146.199" stroke="black" stroke-width="2.5" stroke-miterlimit="10" stroke-linecap="round" stroke-linejoin="round"/>
<path d="M296.004 149.194C309.595 152.322 323.205 155.45 336.797 158.577" stroke="black" stroke-width="2.5" stroke-miterlimit="10" stroke-linecap="round" stroke-linejoin="round"/>
<path d="M263.836 209.247C260.197 220.923 255.135 232.145 248.766 242.59" stroke="black" stroke-width="2.5" stroke-miterlimit="10" stroke-linecap="round" stroke-linejoin="round"/>
<path d="M354.786 132.684C352.094 142.977 349.421 153.27 346.729 163.544" stroke="black" stroke-width="2.5" stroke-miterlimit="10" stroke-linecap="round" stroke-linejoin="round"/>
<path d="M459.383 239.025C459.383 239.025 463.686 206.403 470.965 200.223C478.244 194.043 477.259 210.592 474.282 217.89C471.306 225.169 462.151 242.589 462.151 242.589L459.383 239.025Z" fill="#32B2A8"/>
<path d="M465.677 244.712C465.677 244.712 485.884 234.438 491.855 223.52C497.826 212.582 492.518 200.337 482.585 214.251C472.652 228.164 464.028 242.589 464.028 242.589L465.677 244.712Z" fill="#32B2A8"/>
<path d="M498.47 289.675C498.47 289.675 486.206 262.265 488.859 255.65C491.513 249.015 496.138 256.237 498.47 267.364C500.801 278.491 503.19 289.675 503.19 289.675H498.47Z" fill="#32B2A8"/>
<path d="M508.081 289.675C508.081 289.675 521.008 259.687 515.36 257.507C509.73 255.309 504.763 289.675 504.763 289.675H508.081Z" fill="#32B2A8"/>
<path d="M500.214 289.675C500.214 289.675 496.973 241.016 503.19 241.376C509.389 241.736 508.744 250.759 508.081 257.507C507.417 264.255 504.763 289.675 504.763 289.675H500.214Z" fill="#32B2A8"/>
<path d="M443.138 236.334C444.162 238.116 445.659 239.613 447.441 240.618C449.811 241.945 452.597 242.419 454.891 243.859C456.71 244.997 458.113 246.703 459.857 247.935C461.62 249.186 463.724 249.963 465.885 250.152" stroke="black" stroke-width="2.5" stroke-miterlimit="10" stroke-linecap="round" stroke-linejoin="round"/>
<path d="M454.758 233.017C458.265 239.158 464.748 243.272 467.8 249.641" stroke="black" stroke-width="2.5" stroke-miterlimit="10" stroke-linecap="round" stroke-linejoin="round"/>
<path d="M450.342 250.835C449.906 249.906 450.285 248.674 451.157 248.125C452.029 247.594 453.299 247.821 453.924 248.655C453.204 247.518 453.659 245.793 454.853 245.167" stroke="black" stroke-width="2.5" stroke-miterlimit="10" stroke-linecap="round" stroke-linejoin="round"/>
<path d="M455.516 249.641C457.279 252.522 460.521 254.437 463.895 254.588" stroke="black" stroke-width="2.5" stroke-miterlimit="10" stroke-linecap="round" stroke-linejoin="round"/>
<path d="M492.366 253.735C493.617 255.802 494.717 257.944 495.721 260.142C499.74 269.033 502.015 278.7 502.356 288.462" stroke="black" stroke-width="2.5" stroke-miterlimit="10" stroke-linecap="round" stroke-linejoin="round"/>
<path d="M512.459 260.654C508.213 269.791 505.673 279.705 504.991 289.751" stroke="black" stroke-width="2.5" stroke-miterlimit="10" stroke-linecap="round" stroke-linejoin="round"/>
<path d="M464.407 241.623C469.676 232.316 475.647 223.387 482.225 214.952C484.595 211.919 487.4 208.735 491.191 208.147" stroke="black" stroke-width="2.5" stroke-miterlimit="10" stroke-linecap="round" stroke-linejoin="round"/>
<path d="M470.321 201.323C465.98 208.147 464.634 216.393 463.383 224.373C462.663 228.941 461.942 233.51 461.222 238.078" stroke="black" stroke-width="2.5" stroke-miterlimit="10" stroke-linecap="round" stroke-linejoin="round"/>
<path d="M426.882 331.415L394.712 350.713C392.071 352.293 388.64 351.399 387.101 348.737C385.604 346.117 386.477 342.79 389.077 341.251L421.871 321.932C421.871 321.932 428.172 326.965 426.882 331.415Z" fill="black"/>
<path d="M426.882 331.415L438.132 325.551C438.132 325.551 442.624 337.986 456.245 329.419C469.866 320.851 478.017 306.814 474.981 299.37C471.945 291.925 457.035 292.57 444.558 296.687C432.081 300.804 427.797 305.4 431.665 316.13L421.85 321.891L426.882 331.415Z" fill="#AB8DDB"/>
<path d="M438.257 323.637C438.257 323.637 443.165 320.976 451.421 314.841C453.022 313.656 454.81 311.805 454.145 309.829C453.729 308.582 452.398 307.896 451.171 307.896C449.944 307.896 432.809 315.59 431.686 316.151" stroke="black" stroke-width="2.5" stroke-miterlimit="10" stroke-linecap="round" stroke-linejoin="round"/>
<path d="M351.687 337.196L383.046 335.075C386.519 334.846 388.973 331.581 388.245 328.171C387.621 325.197 384.793 323.242 381.798 323.7L348.672 328.753L351.687 337.196Z" fill="black"/>
<path d="M351.687 337.196L333.2 338.444C333.2 338.444 332.265 346.159 324.05 348.529C317.812 350.339 305.626 351.274 300.136 351.628C298.576 351.732 297.246 350.547 297.121 348.987C297.017 347.51 298.077 346.2 299.533 345.992L312.676 344.038C313.902 343.851 314.693 342.644 314.402 341.459C314.152 340.482 313.237 339.816 312.239 339.879L299.367 340.752C297.828 340.856 296.497 339.692 296.393 338.153C296.289 336.614 297.453 335.283 298.992 335.179L310.596 334.389C311.657 334.326 312.468 333.391 312.405 332.33C312.343 331.269 311.407 330.458 310.346 330.521L298.992 331.29C297.329 331.394 295.873 330.147 295.769 328.462C295.665 326.882 296.788 325.488 298.348 325.26C303.567 324.49 314.838 322.951 320.079 323.43C327.045 324.054 331.599 326.778 333.055 330.438L351.126 328.483L351.687 337.196Z" fill="#AB8DDB"/>
<path d="M166.236 240.873L163.367 168.589L108.717 168.381L102.687 240.083C102.666 240.103 140.409 256.24 166.236 240.873Z" fill="#FFC825"/>
<path d="M159.374 177.802C159.374 177.802 175.469 162.788 187.032 170.399C198.594 178.01 190.442 197.931 184.827 207.102C179.213 216.293 163.304 232.264 163.304 232.264L159.686 222.116C159.686 222.116 176.925 206.956 181.604 198.534C186.262 190.112 185.118 179.236 183.039 175.618C180.668 171.521 160.996 186.577 160.996 186.577L159.374 177.802Z" fill="#FFC825"/>
<path d="M111.899 172.582C111.899 172.582 113.957 149.458 131.155 149.312C148.373 149.167 159.166 160.25 159.727 171.501L152.491 172.166C152.491 172.166 150.411 158.504 134.815 156.57C119.219 154.636 118.844 173.705 118.844 173.705L111.899 172.582Z" fill="#FFC825"/>
<path d="M108.135 234.78L72.5545 177.926L54.9202 179.444C48.5362 169.151 72.4297 148.938 81.6212 159.003L79.4169 172.228L115.143 215.482L108.135 234.78Z" fill="#FFC825"/>
<path d="M107.074 168.547C125.519 168.381 143.944 167.923 162.389 167.154" stroke="black" stroke-width="2.5" stroke-miterlimit="10" stroke-linecap="round" stroke-linejoin="round"/>
<path d="M78.6681 157.734C80.3525 160.396 79.3127 163.952 77.7115 166.676C73.3445 174.079 64.9849 178.966 56.3757 179.133" stroke="black" stroke-width="2.5" stroke-miterlimit="10" stroke-linecap="round" stroke-linejoin="round"/>
<path d="M102.915 239.646C123.003 247.673 146.024 248.151 166.424 240.977" stroke="black" stroke-width="2.5" stroke-miterlimit="10" stroke-linecap="round" stroke-linejoin="round"/>
</g>
<defs>
<clipPath id="clip0_1139_5032">
<rect width="680" height="360" rx="24" fill="white"/>
</clipPath>
</defs>
</svg>
