<svg width="55" height="56" fill="none" xmlns="http://www.w3.org/2000/svg"><path d="M45.647 44.167c3.25-4.806 5.907-10.298 7.822-15.848 1.73-5.028 2.252-10.96-.859-15.35-2.588-3.669-7.474-4.679-10.967-2.183-.8-1.753-2.205-3.111-4.074-3.622-1.37-.372-2.739-.21-3.969.36-.882-1.382-2.1-2.497-3.563-3.158-2.843-1.3-6.209-.755-8.75 1.184-1.695-2.45-5.223-3.077-7.916-1.765-4.305 2.09-6.73 7.652-8.6 12.006C2.73 20.563 1.222 25.6.42 30.745c-.684 4.39-.835 9.428 1.962 12.946 2.03 2.566 5.629 3.704 8.553 2.45.697 2.938 2.612 5.457 5.304 6.56 2.739 1.127 5.872.627 8.333-1.114 1.683 3.274 5.838 4.516 9.226 3.483 4.99-1.544 8.902-6.537 11.85-10.903z" fill="#F8CD3D"/><path d="M46.981 15.872c-3.133-2.067-5.953-3.68-10.096-4.389.325-1.022 2.773-7.35 3.423-10.299C39.171.72 38.022.29 36.815 0a74.178 74.178 0 01-4.236 9.265c-3.958-2.52-8.681-3.123-13.23-1.648-1.3.418-.848 2.229.197 2.52 2.506.707 4.84 1.868 6.951 3.436a36.243 36.243 0 00-5.744 10.322c-.418 1.173.754 2.392 1.787 1.567a41.914 41.914 0 019.076-5.503 106.956 106.956 0 014.886 7.977c.615 1.102 2.379.348 2.216-.918a59.144 59.144 0 00-1.636-8.092c3.075-.244 6.15-.5 9.215-.743.975-.059 1.601-1.719.684-2.311z" fill="#32B2A8"/><path d="M16.447 28.644A41.242 41.242 0 0010.4 46.548M35.41 31.86c-3.121 6.734-6.266 13.503-10.549 19.564" stroke="#000" stroke-width="2" stroke-miterlimit="10" stroke-linecap="round" stroke-linejoin="round"/></svg>