<svg width="226" height="636" viewBox="0 0 226 636" fill="none" xmlns="http://www.w3.org/2000/svg">
<path d="M167.444 315.559C186.408 326.136 204.243 324.497 220.936 310.613C224.081 308.005 225.667 303.96 225.291 299.887L207.147 103.55C206.622 97.8512 202.321 93.2143 196.676 92.2735C181.18 89.6929 166.046 91.0907 151.288 96.4669C145.912 98.4292 142.525 103.778 143.063 109.477L161.207 305.815C161.57 309.887 163.868 313.57 167.444 315.559Z" fill="#AB8DDB"/>
<path d="M143.278 104.491C150.186 98.4828 159.379 95.5124 168.519 95.1227C177.658 94.7463 186.758 96.8161 195.346 99.9746" stroke="black" stroke-width="1.4" stroke-miterlimit="10" stroke-linecap="round" stroke-linejoin="round"/>
<path d="M164.326 312.279C163.801 308.247 166.328 304.43 169.299 301.648C176.462 294.914 186.475 291.931 196.287 291.245C201.488 290.882 206.784 291.124 211.743 292.724C216.703 294.323 221.299 297.401 224.041 301.823" stroke="black" stroke-width="1.4" stroke-miterlimit="10" stroke-linecap="round" stroke-linejoin="round"/>
<path d="M194.647 104.948C198.8 140.108 200.144 175.523 201.475 210.898C202.416 235.736 203.356 260.574 204.297 285.398" stroke="black" stroke-width="1.4" stroke-miterlimit="10" stroke-linecap="round" stroke-linejoin="round"/>
<path d="M174.742 315.397C172.134 313.18 171.234 309.174 172.645 306.056C174.164 302.71 177.725 300.841 181.112 299.417C186.072 297.333 191.273 295.613 196.649 295.438C202.026 295.264 207.617 296.755 211.568 300.411C212.926 301.661 214.095 303.207 214.539 304.994C215.224 307.763 214.041 310.76 212.066 312.83C210.076 314.886 207.402 316.136 204.7 317.05C197.913 319.335 190.494 319.725 183.491 318.193C181.757 317.816 179.93 317.239 178.841 315.841C178.102 314.886 177.793 313.65 177.752 312.44C177.645 308.959 179.661 305.613 182.51 303.583C185.346 301.554 188.908 300.734 192.402 300.693C195.144 300.653 197.98 301.11 200.251 302.642C202.523 304.175 204.082 306.97 203.571 309.658C202.872 313.341 198.8 315.384 195.077 315.827C192.59 316.123 189.902 315.895 187.873 314.443C185.843 312.978 184.768 309.994 186.058 307.844C187.402 305.572 190.48 305.183 193.115 305.129C193.007 304.013 193.478 302.817 193.37 301.702" stroke="black" stroke-width="1.4" stroke-miterlimit="10" stroke-linecap="round" stroke-linejoin="round"/>
<path d="M144.501 136.398C144.501 136.398 170.629 116.506 209.566 129.799L210.063 135.162C210.063 135.162 164.903 122.554 146.087 142.312L144.501 136.398Z" fill="black"/>
<path d="M153.936 236.301C153.936 236.301 175.723 216.342 219.001 229.701L219.498 235.064C219.498 235.064 174.339 222.457 155.522 242.214L153.936 236.301Z" fill="black"/>
<path d="M56.7753 560.295C57.0978 562.594 58.8585 574.219 59.0064 575.846C59.0064 575.846 58.9526 588.547 51.8023 597.848C44.652 607.148 33.1739 618.022 39.1011 620.159C45.0283 622.296 59.7456 619.191 67.3797 612.336C75.0139 605.482 80.8873 596.987 81.2099 590.953C81.3846 587.66 82.3792 573.09 82.9303 563.87C74.9601 556.908 65.4846 558.091 56.7753 560.295Z" fill="#FEB095"/>
<path d="M55.4044 311.755C55.4044 311.755 33.2144 426.24 34.4778 438.861C36.1847 456.011 51.332 527.191 57.0307 561.787C65.2966 565.523 74.0866 565.416 82.9438 563.87C83.253 558.064 83.5083 551.854 83.6562 545.699C84.0863 526.358 90.0538 483.658 79.4762 448.363C76.8688 439.654 123.991 331.257 125.066 323.972C126.141 316.688 57.7162 292.602 55.4044 311.755Z" fill="#33B3A8"/>
<path d="M175.723 568.709C178.277 540.202 184.5 488.47 176.839 457.422C170.589 432.141 184.419 357.963 181.287 318.032C180.656 309.954 109.206 285.278 107.271 322.293C107.271 322.293 132.754 440.622 134.555 458.202C136.02 472.583 148.022 538.347 152.673 570.752C158.573 576.41 170.091 576.41 175.723 568.709Z" fill="#33B3A8"/>
<path d="M175.723 568.709C170.091 570.187 160.025 571.29 152.659 570.765C153.13 574.462 154.406 584.636 154.474 586.518C155.078 602.834 154.621 620.401 165.616 621.301C186.26 622.968 181.919 621.53 175.011 587.727C174.607 585.725 175.333 574.206 175.723 568.709Z" fill="#FEB095"/>
<path d="M62.5681 130.336C62.5681 130.336 30.5531 195.683 27.2333 208.143C23.9136 220.602 40.9157 234.929 62.1515 213.048C78.6832 196.019 96.5186 155.846 101.639 138.71C105.026 127.42 77.9977 107.609 62.5681 130.336Z" fill="#FEB095"/>
<path d="M123.265 15.6227C123.265 15.6227 86.8414 6.10684 84.2205 43.2023C82.6346 65.5537 99.1394 87.7035 116.518 86.5476C137.74 85.1498 148.613 53.1751 146.382 42.2078C141.799 19.6817 123.265 15.6227 123.265 15.6227Z" fill="#A16E45"/>
<path d="M90.0407 52.3287C86.9628 48.0412 82.9845 46.5627 79.7722 48.8745C76.5734 51.1728 76.4121 55.8097 79.49 60.0972C82.5678 64.3847 87.6617 65.9975 90.8606 63.6992C94.0863 61.3875 93.1185 56.6162 90.0407 52.3287Z" fill="#FEB095"/>
<path d="M82.5142 52.2344C84.1539 53.6187 85.2695 55.6079 85.592 57.7315" stroke="black" stroke-width="1.4" stroke-miterlimit="10" stroke-linecap="round" stroke-linejoin="round"/>
<path d="M134.233 54.842C136.343 50.0034 139.918 47.732 143.533 49.3046C147.149 50.8771 148.278 55.3796 146.168 60.2181C144.057 65.0567 139.421 67.7044 135.805 66.1319C132.19 64.5459 132.122 59.6805 134.233 54.842Z" fill="#FEB095"/>
<path d="M137.862 59.9491C136.034 82.6903 118.978 91.2518 104.597 91.1577C94.6912 91.0905 84.6109 73.5374 84.3018 52.315C84.154 30.1787 94.9063 16.3888 115.591 19.7893C129.771 22.101 139.448 40.1918 137.862 59.9491Z" fill="#FEB095"/>
<path d="M142.122 100.311C142.122 100.311 132.553 93.3623 137.499 63.0408L101.949 82.153C104.005 99.1417 97.6616 104.209 97.6616 104.209C97.6616 104.209 97.8363 116.896 114.758 121.923C139.891 124.853 142.122 100.311 142.122 100.311Z" fill="#FEB095"/>
<path d="M107.352 91.0639C117.782 91.0639 126.196 86.8839 132.163 76.8708" stroke="black" stroke-width="1.4" stroke-miterlimit="10" stroke-linecap="round" stroke-linejoin="round"/>
<path d="M139.717 53.9417C138.413 55.6351 137.727 57.8259 137.862 59.963" stroke="black" stroke-width="1.4" stroke-miterlimit="10" stroke-linecap="round" stroke-linejoin="round"/>
<path d="M101.64 56.6699L98.0376 67.7314L104.005 67.7582" stroke="black" stroke-width="1.4" stroke-miterlimit="10" stroke-linecap="round" stroke-linejoin="round"/>
<path d="M108.979 46.3608C114.072 44.2641 120.416 43.3636 125.631 46.1996" stroke="black" stroke-width="1.4" stroke-miterlimit="10" stroke-linecap="round" stroke-linejoin="round"/>
<path d="M124.354 52.8261C124.354 52.8261 124.542 52.7858 119.878 51.9256C113.964 51.4552 111.438 55.662 111.438 55.662C111.438 55.662 115.631 57.8394 119.582 57.248C123.09 56.7239 124.354 52.8261 124.354 52.8261Z" fill="white"/>
<path d="M118.722 57.3822C120.281 57.3822 121.545 56.1186 121.545 54.5598C121.545 53.001 120.281 51.7373 118.722 51.7373C117.164 51.7373 115.9 53.001 115.9 54.5598C115.9 56.1186 117.164 57.3822 118.722 57.3822Z" fill="black"/>
<path d="M110.954 55.5813C110.954 55.5813 113.561 52.5572 117.486 51.9793C120.604 51.7911 123.937 54.6136 126.585 53.0814" stroke="black" stroke-width="1.4" stroke-miterlimit="10" stroke-linecap="round" stroke-linejoin="round"/>
<path d="M97.6613 45.501C93.898 42.8667 88.0245 43.0279 85.8203 43.6059" stroke="black" stroke-width="1.4" stroke-miterlimit="10" stroke-linecap="round" stroke-linejoin="round"/>
<path d="M86.7881 50.7965C86.7881 50.7965 86.7881 50.7966 90.4036 50.6084C96.4383 50.7159 98.0377 55.5813 98.0377 55.5813C98.0377 55.5813 94.2609 57.2748 90.0407 55.9711C86.9762 55.0303 86.7881 50.7965 86.7881 50.7965Z" fill="white"/>
<path d="M92.1645 56.3608C93.7308 56.3608 95.0005 55.0911 95.0005 53.5249C95.0005 51.9586 93.7308 50.689 92.1645 50.689C90.5983 50.689 89.3286 51.9586 89.3286 53.5249C89.3286 55.0911 90.5983 56.3608 92.1645 56.3608Z" fill="black"/>
<path d="M98.0377 55.5815C98.0377 55.5815 95.5244 50.8505 90.8605 50.6354C87.8768 50.5145 87.5004 51.4284 84.9736 50.837" stroke="black" stroke-width="1.4" stroke-miterlimit="10" stroke-linecap="round" stroke-linejoin="round"/>
<path d="M112.554 72.3145C108.508 80.298 100.511 77.7981 96.7344 73.3628L112.554 72.3145Z" fill="white"/>
<path d="M137.713 50.0707C137.713 50.0707 122.163 40.0173 119.152 23.1496C119.152 23.1496 100.094 42.1408 84.0728 45.3531C84.0728 45.3531 84.3012 9.19839 121.854 16.8997C143.896 21.4023 137.713 50.0707 137.713 50.0707Z" fill="#A16E45"/>
<path d="M98.7365 103.751C98.7365 103.751 102.594 113.59 114.946 112.461C127.324 111.318 137.095 99.0876 137.095 99.0876C137.095 99.0876 172.82 105.741 183.519 131.251C171.758 160 163.385 194.582 156.463 231.637C169.917 253.195 187.994 279.149 181.57 341.069C181.57 341.069 136.988 322.185 107.244 322.279C79.9065 322.36 55.5122 314.887 55.5122 314.887C59.383 279.149 77.3529 233.075 78.5087 216.557C79.9065 196.571 65.3909 167.177 59.0874 139.032C59.1008 139.046 66.2914 109.343 98.7365 103.751Z" fill="#FEB095"/>
<path d="M85.0811 41.0789C96.1963 37.1678 106.277 30.3938 114.085 21.5769" stroke="black" stroke-width="1.4" stroke-miterlimit="10" stroke-linecap="round" stroke-linejoin="round"/>
<path d="M89.0728 33.1759C94.7849 31.3749 100.054 28.2029 104.314 24.0095" stroke="black" stroke-width="1.4" stroke-miterlimit="10" stroke-linecap="round" stroke-linejoin="round"/>
<path d="M123.077 19.1038C124.73 28.0819 128.668 36.6166 134.407 43.7131" stroke="black" stroke-width="1.4" stroke-miterlimit="10" stroke-linecap="round" stroke-linejoin="round"/>
<path d="M133.13 33.6194C134.112 36.4419 135.536 39.1031 137.337 41.4955" stroke="black" stroke-width="1.4" stroke-miterlimit="10" stroke-linecap="round" stroke-linejoin="round"/>
<path d="M126.316 19.0231C126.316 19.0231 132.539 2.94837 146.53 0.488782C163.801 -2.56219 185.776 8.62022 186.274 35.4338C186.717 59.5056 192.241 65.0161 195.319 71.0374C198.397 77.0587 199.862 91.1712 182.295 97.851C164.729 104.517 145.657 84.5316 148.99 64.0484C152.31 43.5787 155.925 19.0634 150.979 15.3539C146.046 11.6443 140.791 16.2006 135.751 24.0363L126.316 19.0231Z" fill="#A16E45"/>
<path d="M126.733 16.4426C130.563 18.5393 134.058 21.2274 137.055 24.3859" stroke="black" stroke-width="1.4" stroke-miterlimit="10" stroke-linecap="round" stroke-linejoin="round"/>
<path d="M150.307 6.25488C154.38 7.18227 157.632 10.2332 160.159 13.5665C165.885 21.1065 168.841 30.7029 168.384 40.165C167.739 53.3769 160.697 66.1856 162.874 79.2228" stroke="black" stroke-width="1.4" stroke-miterlimit="10" stroke-linecap="round" stroke-linejoin="round"/>
<path d="M157.323 29.2778C159.487 36.4012 159.675 44.116 157.861 51.3335" stroke="black" stroke-width="1.4" stroke-miterlimit="10" stroke-linecap="round" stroke-linejoin="round"/>
<path d="M175.803 51.6426C174.258 58.2956 173.586 65.1367 173.801 71.9645C173.989 77.9454 175.091 84.3834 179.432 88.5096" stroke="black" stroke-width="1.4" stroke-miterlimit="10" stroke-linecap="round" stroke-linejoin="round"/>
<path d="M181.906 35.6353C182.363 40.8098 183.169 45.9978 184.997 50.8632C187.645 57.8926 192.362 63.9945 194.97 71.0373C197.577 78.08 197.483 87.0717 191.758 91.9236" stroke="black" stroke-width="1.4" stroke-miterlimit="10" stroke-linecap="round" stroke-linejoin="round"/>
<path d="M158.842 4.06372C164.473 5.78409 169.057 10.1522 171.839 15.3402C174.621 20.5282 175.71 26.4823 175.857 32.3692" stroke="black" stroke-width="1.4" stroke-miterlimit="10" stroke-linecap="round" stroke-linejoin="round"/>
<path d="M185.252 66.3606C189.674 72.9464 190.709 81.6961 187.927 89.1286C187.55 90.1367 187.107 91.1178 186.488 91.9914C184.782 94.4107 181.959 95.7278 179.271 96.9509" stroke="black" stroke-width="1.4" stroke-miterlimit="10" stroke-linecap="round" stroke-linejoin="round"/>
<path d="M156.086 57.0056C154.716 63.8871 154.003 71.024 155.361 77.9189C156.718 84.8138 160.361 91.4668 166.221 95.3108" stroke="black" stroke-width="1.4" stroke-miterlimit="10" stroke-linecap="round" stroke-linejoin="round"/>
<path d="M131.154 15.9046C133.412 11.4558 137.431 7.93442 142.122 6.28125" stroke="black" stroke-width="1.4" stroke-miterlimit="10" stroke-linecap="round" stroke-linejoin="round"/>
<path d="M135.966 17.9481C138.197 14.8568 142.445 13.9026 146.221 14.3192C149.151 14.6418 152.471 16.1606 152.942 19.0771" stroke="black" stroke-width="1.4" stroke-miterlimit="10" stroke-linecap="round" stroke-linejoin="round"/>
<path d="M156.476 231.65C156.476 231.65 107.002 240.265 76.9092 226.126C76.9092 226.126 64.3559 259.243 60.3238 283.355C56.9368 303.583 53.2944 322.736 53.2944 322.736C53.2944 322.736 89.9464 324.765 109.22 331.512C128.507 338.259 180.857 355.866 180.857 355.866C180.857 355.866 189.607 300.989 178.062 272.321C166.53 243.639 156.476 231.65 156.476 231.65Z" fill="#33B3A8"/>
<path d="M195.399 617.282C195.399 617.282 199.378 622.873 198.235 625.978C197.093 629.096 190.682 632.765 184.647 633.921C178.612 635.104 169.298 633.652 165.737 632.591C162.161 631.515 160.145 625.198 159.272 621.57C159.272 621.57 154.877 620.024 152.861 618.881C150.845 617.739 151.759 612.027 153.385 608.868C154.998 605.71 192.859 614.769 195.399 617.282Z" fill="white"/>
<path d="M181.516 596.503C181.516 596.503 183.881 606.57 186.959 608.64C190.037 610.696 198.437 616.462 195.359 621.905C193.182 625.749 188.652 620.951 185.669 621.61C180.306 622.698 179.284 626.704 173.075 627.658C168.089 628.558 165.306 627.013 164.473 624.755C163.64 622.497 160.549 615.225 160.549 615.225C160.549 615.225 154.017 612.847 152.74 610.669C152.74 610.669 154.111 598.089 154.594 596.893C155.092 595.697 167.067 599.984 168.021 598.546C168.976 597.108 173.707 591.167 176.865 592.081C180.024 593.022 181.516 596.503 181.516 596.503Z" fill="#AB8DDB"/>
<path d="M180.159 594.016C177.202 591.194 171.664 591.906 169.514 595.387C168.788 596.57 168.318 598.075 167.095 598.734C164.944 599.903 162.471 597.632 160.025 597.551" stroke="black" stroke-width="1.4" stroke-miterlimit="10" stroke-linecap="round" stroke-linejoin="round"/>
<path d="M180.804 600.267C177.309 599.769 173.64 600.495 170.589 602.296" stroke="black" stroke-width="1.4" stroke-miterlimit="10" stroke-linecap="round" stroke-linejoin="round"/>
<path d="M182.712 607.054C179.903 606.651 175.038 607.753 171.987 609.231" stroke="black" stroke-width="1.4" stroke-miterlimit="10" stroke-linecap="round" stroke-linejoin="round"/>
<path d="M196.959 629.042C190.373 633.747 179.298 635.991 168.398 633.706" stroke="black" stroke-width="1.4" stroke-miterlimit="10" stroke-linecap="round" stroke-linejoin="round"/>
<path d="M82.4603 586.665C82.4603 586.665 78.4954 589.824 75.9148 594.528C73.3342 599.232 60.9422 584.595 55.8349 585.146C55.8349 585.146 39.3032 598.748 30.54 602.31C21.7769 605.871 17.0728 607.686 20.2178 612.578C23.3629 617.47 27.0455 621.314 37.986 619.796C48.9265 618.277 66.9232 615.28 76.6003 614.231C86.2908 613.183 91.3175 610.925 91.3175 610.925C91.3175 610.925 89.6106 601.718 87.7289 596.369C85.8338 591.033 84.7989 584.461 82.4603 586.665Z" fill="#AB8DDB"/>
<path d="M19.5454 608.586C19.5454 608.586 22.798 615.253 32.0718 616.53C41.3457 617.806 58.2134 610.67 66.9631 610.092C75.7128 609.514 90.2016 605.603 90.2016 605.603C90.2016 605.603 91.8279 607.215 92.9703 611.745C94.1127 616.274 78.4547 619.03 69.8931 618.653C61.3181 618.277 37.1792 624.567 30.8353 623.263C24.4915 621.933 17.2336 616.516 19.5454 608.586Z" fill="white"/>
<path d="M53.187 585.536C55.1359 584.77 57.4207 585.12 59.2486 586.141C61.0765 587.163 62.5281 588.775 63.6705 590.536C64.3963 591.638 70.4982 601.208 77.7964 592.525" stroke="black" stroke-width="1.4" stroke-miterlimit="10" stroke-linecap="round" stroke-linejoin="round"/>
<path d="M46.4937 591.987C49.2086 593.976 51.4801 596.584 53.0795 599.554" stroke="black" stroke-width="1.4" stroke-miterlimit="10" stroke-linecap="round" stroke-linejoin="round"/>
<path d="M39.7061 595.684C42.3538 597.673 44.5043 600.307 45.9155 603.304" stroke="black" stroke-width="1.4" stroke-miterlimit="10" stroke-linecap="round" stroke-linejoin="round"/>
<path d="M19.1826 615.024C22.247 622.282 31.3059 625.091 39.1551 624.5C47.0042 623.895 54.4905 620.817 62.3263 619.997C70.0948 619.191 82.581 621.193 88.562 616.167" stroke="black" stroke-width="1.4" stroke-miterlimit="10" stroke-linecap="round" stroke-linejoin="round"/>
<path d="M76.4386 197.821C103.534 204.796 130.603 206.543 161.436 206.826L169.997 168.615C169.997 168.615 155.441 165.51 152.081 151.572C148.721 137.635 159.662 117.165 163.116 109.544C159.554 107.098 155.777 105.109 151.799 103.617C151.799 103.617 136.033 146.196 103.857 144.274C71.6807 142.339 92.7418 105.149 92.7418 105.149C92.7418 105.149 82.5136 109.154 78.7906 111.278C78.7906 111.278 68.6432 142.782 65.1487 156.586C61.6541 170.389 73.2801 189.246 76.4386 197.821Z" fill="#33B3A8"/>
<path d="M154.433 155.013C154.433 155.013 180.683 209.474 188.008 220.091C195.333 230.709 216.327 232.927 213.477 202.579C211.259 178.937 189.271 139.1 179.567 124.087C173.169 114.168 147.149 128.522 154.433 155.013Z" fill="#FEB095"/>
<path d="M194.593 227.833C178.478 223.841 153.156 202.162 128.023 179.058L137.834 163.803C137.834 163.803 171.664 176.598 199.096 191.544C224.78 205.536 210.708 231.812 194.593 227.833Z" fill="#FEB095"/>
<path d="M27.6366 215.696C21.6556 200.213 24.7872 167.392 28.1339 130.565L45.2301 103.294C45.2301 103.294 56.3318 167.876 59.8398 198.909C63.1327 227.968 33.6175 231.18 27.6366 215.696Z" fill="#FEB095"/>
<path d="M161.113 237.685C161.113 237.685 115.389 204.621 112.553 165.873L116.196 167.123C116.196 167.123 124.811 205.293 163.398 232.954L161.113 237.685Z" fill="black"/>
<path d="M111.249 149.301C111.249 149.301 107.163 146.68 103.951 153.454C100.739 160.228 95.2015 167.741 104.596 172.754C113.991 177.767 133.923 179.837 133.923 179.837L140.388 166.074C140.388 166.074 125.053 147.271 115.913 143.427C115.913 143.427 111.437 145.161 117.62 153.36L111.249 149.301Z" fill="#FEB095"/>
<path d="M125.63 158.185C120.899 156.182 118.789 154.986 114.636 151.948" stroke="black" stroke-width="1.4" stroke-miterlimit="10" stroke-linecap="round" stroke-linejoin="round"/>
<path d="M110.053 157.566C107.943 157.096 106.048 155.725 104.933 153.87" stroke="black" stroke-width="1.4" stroke-miterlimit="10" stroke-linecap="round" stroke-linejoin="round"/>
<path d="M106.451 163.212C104.22 162.755 102.191 161.424 100.9 159.556" stroke="black" stroke-width="1.4" stroke-miterlimit="10" stroke-linecap="round" stroke-linejoin="round"/>
<path d="M104.193 168.373C102.634 167.916 101.196 167.042 100.053 165.873" stroke="black" stroke-width="1.4" stroke-miterlimit="10" stroke-linecap="round" stroke-linejoin="round"/>
<path d="M114.636 151.962C114.636 151.962 128.668 113.818 150.307 103.052L154.635 104.853C154.635 104.853 130.63 121.64 119.582 155.981L114.636 151.962Z" fill="black"/>
<path d="M155.697 171.41C173.868 177.284 191.032 186.248 206.233 197.807" stroke="black" stroke-width="1.4" stroke-miterlimit="10" stroke-linecap="round" stroke-linejoin="round"/>
<path d="M95.7122 223.398C95.5106 224.849 96.0751 226.395 97.1772 227.376C98.2659 228.357 99.8653 228.747 101.29 228.398" stroke="black" stroke-width="1.4" stroke-miterlimit="10" stroke-linecap="round" stroke-linejoin="round"/>
<path d="M106.881 187.055C116.128 190.052 126.289 190.106 135.563 187.229" stroke="black" stroke-width="1.4" stroke-miterlimit="10" stroke-linecap="round" stroke-linejoin="round"/>
<path d="M88.8574 298.677C94.6771 302.535 100.685 306.58 104.287 312.561C107.325 317.601 108.373 323.555 109.354 329.362C111.007 339.066 112.647 348.756 114.3 358.46" stroke="black" stroke-width="1.4" stroke-miterlimit="10" stroke-linecap="round" stroke-linejoin="round"/>
<path d="M84.4357 426.214C82.2449 434.883 78.5891 443.189 73.6968 450.675" stroke="black" stroke-width="1.4" stroke-miterlimit="10" stroke-linecap="round" stroke-linejoin="round"/>
<path d="M146.45 456.374C154.178 459.317 163.627 456.925 169.03 450.675" stroke="black" stroke-width="1.4" stroke-miterlimit="10" stroke-linecap="round" stroke-linejoin="round"/>
<path d="M7.7452 108.738C7.7452 108.738 5.13774 111.923 4.74797 113.496C4.34476 115.055 6.88499 120.324 6.88499 120.324C6.88499 120.324 11.3203 117.636 10.7827 114.222C10.2451 110.794 7.7452 108.738 7.7452 108.738Z" fill="#FEB095"/>
<path d="M40.6335 112.689C43.1738 104.8 40.4319 102.743 40.4319 102.743L41.4131 99.5312C41.4131 99.5312 44.5178 97.3672 45.4183 94.3969C46.3323 91.4266 44.4506 88.6847 44.4506 88.6847L20.9165 81.4807C20.9165 81.4807 17.8386 82.7038 16.9247 85.6741C16.0107 88.6444 17.3682 92.1793 17.3682 92.1793L16.3871 95.3915C16.3871 95.3915 12.9463 95.5528 10.648 103.523C8.3497 111.48 0.00321243 138.307 0.00321243 138.307C0.00321243 138.307 -0.319362 144.436 5.50033 146.344C8.21529 147.245 15.0565 149.395 20.9299 151.062C26.8168 152.728 29.9887 147.473 29.9887 147.473C29.9887 147.473 38.0799 120.579 40.6335 112.689Z" fill="#AB8DDB"/>
<path d="M47.2865 82.2065L46.1307 81.4673L46.5473 79.7872L39.5852 77.4755L40.3378 74.7202L41.7356 74.8815L42.2195 73.309L31.5881 70.0564L31.1043 71.6289L32.3542 72.2741L31.4403 74.9756L24.3706 72.9998L23.7793 74.6261L22.4083 74.5858C22.4083 74.5858 18.1881 78.1475 20.9299 81.4673L33.3488 85.2709L44.6791 88.7385C48.7918 87.5289 47.2865 82.2065 47.2865 82.2065Z" fill="black"/>
<path d="M18.9004 92.3809C25.6475 94.8942 32.4483 97.2597 39.3029 99.4505" stroke="black" stroke-width="1.4" stroke-miterlimit="10" stroke-linecap="round" stroke-linejoin="round"/>
<path d="M17.2339 96.6416C24.1691 98.7517 31.1044 100.862 38.0396 102.972" stroke="black" stroke-width="1.4" stroke-miterlimit="10" stroke-linecap="round" stroke-linejoin="round"/>
<path d="M42.2465 92.3138C42.2465 92.3138 46.7222 105.27 46.7222 112.085C46.7222 112.085 45.0018 115.781 39.3031 116.923C39.3031 116.923 40.1498 111.775 39.9885 106.87C39.8273 102.26 38.6445 97.9721 38.9536 95.4454C39.3434 92.1659 42.2465 92.3138 42.2465 92.3138Z" fill="#FEB095"/>
<path d="M17.7308 92.0854C17.7308 92.0854 12.1665 92.0183 11.0643 94.209C9.96223 96.3998 10.7283 99.2626 10.7283 99.2626C10.7283 99.2626 7.2876 101.534 6.77687 103.994C6.26613 106.453 6.27956 111.386 8.29562 114.813C9.94879 117.622 12.3681 113.657 12.4487 111.278C12.4487 111.278 13.6987 112.663 15.2174 111.614C18.2146 109.531 17.7711 94.1553 17.7308 92.0854Z" fill="#FEB095"/>
<path d="M11.0514 94.7332C10.3256 99.5717 10.4331 104.545 11.3605 109.356" stroke="black" stroke-width="1.4" stroke-miterlimit="10" stroke-linecap="round" stroke-linejoin="round"/>
<path d="M6.46798 107.703C6.4411 109.786 6.87119 111.883 7.7045 113.805" stroke="black" stroke-width="1.4" stroke-miterlimit="10" stroke-linecap="round" stroke-linejoin="round"/>
<path d="M53.1196 151.397C57.8641 163.01 60.9957 194.595 59.4635 204.299" stroke="black" stroke-width="1.4" stroke-miterlimit="10" stroke-linecap="round" stroke-linejoin="round"/>
</svg>
