<svg width="297" height="227" viewBox="0 0 297 227" fill="none" xmlns="http://www.w3.org/2000/svg">
<mask id="mask0_1448_10220" style="mask-type:alpha" maskUnits="userSpaceOnUse" x="15" y="35" width="258" height="179">
<path d="M48.4205 190.8C75.7226 207.1 135.294 221.739 188.293 207.363C241.292 192.987 264.691 175.552 271.466 134.574C278.241 93.5967 262.833 55.2483 212.317 42.6168C161.802 29.9854 85.9777 32.244 54.5534 59.2635C23.129 86.2831 12.0629 116.708 15.7628 142.425C19.4628 168.142 39.2973 185.351 48.4205 190.8Z" fill="#E3D0EA"/>
</mask>
<g mask="url(#mask0_1448_10220)">
<path d="M39.4762 172.915C39.4762 172.915 72.7607 173.886 92.8799 164.443L95.3252 189.802C74.1035 190.654 54.1808 190.25 37.0527 187.161C38.3627 181.266 39.4762 172.915 39.4762 172.915Z" fill="#FEB095"/>
<path d="M37.0514 187.161C37.0514 187.161 84.9532 190.064 95.9352 187.161C95.9352 187.161 98.0749 197.171 98.5006 208.251L32.3027 208.35C32.3027 208.35 33.5581 196.189 37.0514 187.161Z" fill="#32B2A8"/>
<path d="M63.6117 41.8504C63.6117 41.8504 89.997 40.0492 94.7457 65.7686C100.903 99.0749 81.9842 93.9005 65.6203 94.0642C31.0586 94.4027 39.3879 72.253 41.5712 65.0917C47.0731 47.014 63.6117 41.8504 63.6117 41.8504Z" fill="#AB8DDB"/>
<path d="M94.177 85.8116C94.177 85.8116 75.8154 84.709 44.3649 91.3572C33.7977 93.5951 39.769 114.598 49.6376 112.131C85.8586 103.092 96.1311 115.668 96.1311 115.668C96.1311 115.668 96.4477 88.8573 94.177 85.8116Z" fill="#B88884"/>
<path d="M244.826 122.185L271.572 108.005C271.572 108.005 292.739 148.298 295.992 158.232C301.974 176.528 284.486 184.017 284.486 184.017L244.826 122.185Z" fill="#FEB095"/>
<path d="M212.056 78.7594C194.688 81.4121 178.084 100.647 174.536 107.994C169.045 119.369 172.866 140.383 172.866 140.383C177.451 163.319 179.503 187.925 180.224 208.251L255.624 208.35L253.124 134.761L258.757 143.615L283.833 131.868C283.833 131.868 282.512 127.971 280.339 122.829C275.711 111.858 266.115 90.2763 254.543 85.8333C247.022 82.9513 228.267 76.2813 212.056 78.7594Z" fill="#32B2A8"/>
<path d="M178.728 76.2813C178.728 76.2813 200.856 67.0787 228.671 68.2576C237.503 68.6397 235.45 81.3684 225.342 82.5583C188.258 86.914 183.106 102.317 183.106 102.317C183.106 102.317 177.68 79.9383 178.728 76.2813Z" fill="#B88884"/>
<path d="M56.0459 69.8077C54.6377 66.5764 52.247 65.0481 49.8235 66.107C47.4109 67.155 46.6577 70.1679 48.0659 73.3992C49.4741 76.6305 52.5745 78.399 54.987 77.351C57.3996 76.303 57.4541 73.039 56.0459 69.8077Z" fill="#FEB095"/>
<path d="M53.6214 73.2135C54.8441 88.4093 66.2409 94.1296 75.8475 94.0641C82.4629 94.0204 89.1984 82.2961 89.4058 68.1046C89.5041 53.3127 82.321 44.0991 68.5006 46.3697C59.0142 47.9199 52.5625 60.0154 53.6214 73.2135Z" fill="#FEB095"/>
<path d="M50.7734 100.188C50.7734 100.188 56.985 95.396 56.985 76.4231L75.816 88.0492C74.4405 99.4024 80.4773 102.797 80.4773 102.797C80.4773 102.797 80.3573 111.28 69.0586 114.631C52.2581 116.574 50.7734 100.188 50.7734 100.188Z" fill="#FEB095"/>
<path d="M75.0948 94.0096C70.5208 94.1406 64.2656 92.656 59.5605 86.4663" stroke="black" stroke-width="0.868339" stroke-miterlimit="10" stroke-linecap="round" stroke-linejoin="round"/>
<path d="M52.3789 69.1963C53.2522 70.3316 53.7107 71.7944 53.6125 73.2136" stroke="black" stroke-width="0.868339" stroke-miterlimit="10" stroke-linecap="round" stroke-linejoin="round"/>
<path d="M77.8231 71.0303L79.9737 77.6457L76.2402 78.4426" stroke="black" stroke-width="0.868339" stroke-miterlimit="10" stroke-linecap="round" stroke-linejoin="round"/>
<path d="M72.9111 64.142C69.5051 62.7447 65.2695 62.1334 61.7871 64.0329" stroke="black" stroke-width="0.868339" stroke-miterlimit="10" stroke-linecap="round" stroke-linejoin="round"/>
<path d="M80.2266 64.2947C82.6937 62.1878 86.5691 61.893 88.5559 62.8319" stroke="black" stroke-width="0.868339" stroke-miterlimit="10" stroke-linecap="round" stroke-linejoin="round"/>
<path d="M70.5332 80.5059C72.1161 86.2589 78.5787 85.1454 81.1004 82.187L70.5332 80.5059Z" fill="white"/>
<path d="M72.1282 69.5566C71.0584 68.1374 69.1262 67.0239 67.3577 66.9803C65.6984 66.9366 64.6395 67.537 62.2051 67.9519" stroke="#AB8DDB" stroke-width="0.868339" stroke-miterlimit="10" stroke-linecap="round" stroke-linejoin="round"/>
<path d="M79.5391 69.6547C80.3032 68.05 81.9735 66.5653 83.7092 66.1723C85.5432 65.7684 87.2571 66.4998 88.709 66.1942" stroke="#AB8DDB" stroke-width="0.868339" stroke-miterlimit="10" stroke-linecap="round" stroke-linejoin="round"/>
<path d="M62.6375 68.4542C62.6375 68.4542 62.5065 68.4214 65.6286 67.8538C69.5804 67.5372 71.2725 70.3427 71.2725 70.3427C71.2725 70.3427 68.4669 71.7946 65.8361 71.4016C63.489 71.0632 62.6375 68.4542 62.6375 68.4542Z" fill="white"/>
<path d="M66.4042 71.4998C67.4472 71.4998 68.2927 70.6542 68.2927 69.6112C68.2927 68.5682 67.4472 67.7227 66.4042 67.7227C65.3612 67.7227 64.5156 68.5682 64.5156 69.6112C64.5156 70.6542 65.3612 71.4998 66.4042 71.4998Z" fill="black"/>
<path d="M71.5897 70.299C71.5897 70.299 69.8431 68.2795 67.2231 67.8974C65.138 67.7773 62.9111 69.655 61.1426 68.6288" stroke="black" stroke-width="0.868339" stroke-miterlimit="10" stroke-linecap="round" stroke-linejoin="round"/>
<path d="M87.7371 67.1003C87.7371 67.1003 87.7371 67.1003 85.3246 66.9802C81.2855 67.0457 80.2266 70.2989 80.2266 70.2989C80.2266 70.2989 82.7483 71.4233 85.5647 70.5499C87.6171 69.9277 87.7371 67.1003 87.7371 67.1003Z" fill="white"/>
<path d="M84.1444 70.812C85.1874 70.812 86.033 69.9665 86.033 68.9235C86.033 67.8805 85.1874 67.0349 84.1444 67.0349C83.1014 67.0349 82.2559 67.8805 82.2559 68.9235C82.2559 69.9665 83.1014 70.812 84.1444 70.812Z" fill="black"/>
<path d="M80.2266 70.2987C80.2266 70.2987 81.9077 67.1329 85.0189 67.0019C87.0167 66.9146 87.2677 67.5368 88.9489 67.1438" stroke="black" stroke-width="0.868339" stroke-miterlimit="10" stroke-linecap="round" stroke-linejoin="round"/>
<path d="M79.7576 102.481C79.7576 102.481 77.2141 108.463 68.9284 108.299C57.728 108.07 50.7742 100.177 50.7742 100.177C50.7742 100.177 38.0783 103.485 30.6113 111.749C25.6334 117.251 25.1858 125.558 24.3125 129.51C24.3125 129.51 38.7878 136.781 39.4756 172.914L93.8509 173.384C94.6478 162.795 96.449 151.66 97.5843 139.99L104.724 143.603C104.898 138.2 111.667 115.668 98.0756 109.915C98.0865 109.915 92.3553 105.483 79.7576 102.481Z" fill="black"/>
<path d="M41.5716 139.695C41.5716 139.695 36.2225 160.131 33.9628 175.502C33.7008 177.314 36.157 197.75 35.2291 208.35H20.8302C18.1556 198.918 14.4658 180.327 15.1645 174.858C17.2932 158.013 21.507 138.08 24.3235 129.521L41.5716 139.695Z" fill="#FEB095"/>
<path d="M72.8046 183.1C72.4989 182.161 72.6954 181.091 73.2958 180.316C73.8962 179.541 74.9005 179.093 75.8721 179.159" stroke="black" stroke-width="1.21567" stroke-miterlimit="10" stroke-linecap="round" stroke-linejoin="round"/>
<path d="M74.3218 158.134C68.143 160.131 61.3529 160.175 55.1523 158.243" stroke="black" stroke-width="1.21567" stroke-miterlimit="10" stroke-linecap="round" stroke-linejoin="round"/>
<path d="M53.636 55.3433C53.636 55.3433 56.5507 62.9084 62.6421 59.961C68.7336 57.0135 69.1047 54.6119 69.1047 54.6119C69.1047 54.6119 70.4475 60.5941 76.2332 60.6487C82.019 60.7033 82.2592 54.6119 82.2592 54.6119C82.2592 54.6119 84.7045 60.7797 89.5732 60.6487C95.1298 60.5068 95.6756 53.5093 93.7434 50.1797C91.8111 46.8611 76.9865 36.4358 63.6246 41.8613C52.4243 46.4026 53.636 55.3433 53.636 55.3433Z" fill="#AB8DDB"/>
<path d="M60.7392 48.7607C60.7392 48.7607 50.8379 47.2433 46.7878 42.1998C45.3687 40.4314 44.0587 32.637 49.517 29.3947C54.6477 26.349 62.2784 28.2048 64.2434 32.5169C66.2084 36.8289 65.2149 46.4027 65.2149 46.4027L60.7392 48.7607Z" fill="#AB8DDB"/>
<path d="M52.3457 28.194C55.7626 27.6591 59.3323 29.2747 61.4719 31.982C63.6116 34.6893 64.4412 37.7023 63.8954 41.1082" stroke="black" stroke-width="0.868339" stroke-miterlimit="10" stroke-linecap="round" stroke-linejoin="round"/>
<path d="M50.8945 32.0801C52.4883 32.2657 53.7765 33.4446 54.7917 34.6891C56.8877 37.2218 58.3942 40.2456 59.1584 43.4442" stroke="black" stroke-width="0.868339" stroke-miterlimit="10" stroke-linecap="round" stroke-linejoin="round"/>
<path d="M51.0137 38.8704C52.6839 39.9838 54.0594 41.5449 54.9436 43.3461" stroke="black" stroke-width="0.868339" stroke-miterlimit="10" stroke-linecap="round" stroke-linejoin="round"/>
<path d="M54.377 56.9153C55.2066 58.7056 57.117 59.7864 59.0492 60.1903C61.3854 60.6815 63.9289 60.3431 65.9485 59.0768C67.979 57.8105 69.4199 55.5944 69.5946 53.2146" stroke="black" stroke-width="0.868339" stroke-miterlimit="10" stroke-linecap="round" stroke-linejoin="round"/>
<path d="M71.625 59.0878C73.8956 60.638 77.1269 60.6379 79.3976 59.0769C81.6682 57.5158 82.8254 54.4919 82.1813 51.8174" stroke="black" stroke-width="0.868339" stroke-miterlimit="10" stroke-linecap="round" stroke-linejoin="round"/>
<path d="M84.9531 58.9457C85.6845 59.8409 86.8854 60.2011 88.0425 60.2994C89.2433 60.3976 90.4878 60.2448 91.5685 59.7099C92.6493 59.175 93.5554 58.2471 93.9265 57.1008" stroke="black" stroke-width="0.868339" stroke-miterlimit="10" stroke-linecap="round" stroke-linejoin="round"/>
<path d="M49.1913 57.1335C46.1675 61.4347 43.7222 66.2816 43.0672 71.4997C42.4013 76.7178 43.7112 82.3398 47.3246 86.1606" stroke="black" stroke-width="0.868339" stroke-miterlimit="10" stroke-linecap="round" stroke-linejoin="round"/>
<path d="M47.0078 77.0344C47.4991 80.5059 49.4422 83.7481 52.2696 85.8113" stroke="black" stroke-width="0.868339" stroke-miterlimit="10" stroke-linecap="round" stroke-linejoin="round"/>
<path d="M92.0923 67.6025C92.5071 70.3317 92.6381 73.1045 92.4962 75.8664C92.4089 77.4602 92.2342 79.054 91.7539 80.5714" stroke="black" stroke-width="0.868339" stroke-miterlimit="10" stroke-linecap="round" stroke-linejoin="round"/>
<path d="M53.5371 47.7346C56.8667 44.5469 61.0259 42.2217 65.4798 41.0427" stroke="black" stroke-width="0.868339" stroke-miterlimit="10" stroke-linecap="round" stroke-linejoin="round"/>
<path d="M196.629 90.2437C196.629 90.2437 196.039 75.3099 195.788 67.57C195.439 57.3085 213.015 45.0274 215.82 55.3653C218.058 63.6073 223.298 82.1873 223.298 82.1873C223.298 82.1873 222.425 91.5974 206.759 92.4707C196.269 93.0602 196.629 90.2437 196.629 90.2437Z" fill="#FEB095"/>
<path d="M180.375 52.4286C181.51 64.9389 185.254 76.0192 195.287 76.445C205.319 76.8598 214.489 70.7356 216.432 57.0354C218.626 41.5557 210.417 28.4013 195.789 28.3794C185.757 28.3576 179.119 38.641 180.375 52.4286Z" fill="#FEB095"/>
<path d="M180.616 54.7864C180.616 54.7864 179.797 44.3393 182.624 37.0362C182.624 37.0362 202.875 42.8328 214.675 42.8438C223.943 42.8438 224.959 24.2201 221.345 21.8622C217.732 19.5042 205.746 16.6441 201.794 22.67C201.794 22.67 200.571 17.1899 194.414 18.2815C188.268 19.3732 182.308 23.9472 183.771 28.0955C183.771 28.0955 174.83 27.4296 174.524 34.1214C174.219 40.8133 180.616 54.7864 180.616 54.7864Z" fill="black"/>
<path d="M220.002 34.6347L217.874 54.1972L212.077 52.0029L206.029 35.4316C206.029 35.4207 217.841 32.9645 220.002 34.6347Z" fill="black"/>
<path d="M221.034 53.5216C221.708 49.9001 220.058 46.5555 217.35 46.0513C214.641 45.5471 211.899 48.0742 211.225 51.6956C210.55 55.3171 212.2 58.6617 214.908 59.1659C217.617 59.6701 220.359 57.1431 221.034 53.5216Z" fill="#FEB095"/>
<path d="M219.087 49.1318C217.897 50.3217 217.154 51.9483 217.023 53.6294" stroke="black" stroke-width="0.868339" stroke-miterlimit="10" stroke-linecap="round" stroke-linejoin="round"/>
<path d="M190.79 52.8325L190.506 61.3693L194.687 60.9763" stroke="black" stroke-width="0.868339" stroke-miterlimit="10" stroke-linecap="round" stroke-linejoin="round"/>
<path d="M205.975 50.2781C205.975 50.2781 204.545 48.193 200.43 49.2629C197.657 49.9833 197.188 53.5203 197.188 53.5203C197.188 53.5203 199.764 53.4111 202.591 52.7234C204.633 52.2212 205.975 50.2781 205.975 50.2781Z" fill="white"/>
<path d="M202.143 52.9526C203.18 52.9526 204.021 52.1119 204.021 51.0749C204.021 50.0379 203.18 49.1973 202.143 49.1973C201.106 49.1973 200.266 50.0379 200.266 51.0749C200.266 52.1119 201.106 52.9526 202.143 52.9526Z" fill="black"/>
<path d="M197.197 53.5202C197.197 53.5202 198.496 50.0706 200.942 49.4047C203.856 48.6078 205.985 50.278 205.985 50.278" stroke="black" stroke-width="0.868339" stroke-miterlimit="10" stroke-linecap="round" stroke-linejoin="round"/>
<path d="M187.265 48.8589C184.83 48.6187 182.898 48.848 180.726 49.5139C180.125 49.6995 179.361 49.9396 178.935 49.4702C178.652 49.1536 178.673 48.6406 178.903 48.2694C179.121 47.8982 179.492 47.6581 179.874 47.4616C181.206 46.7629 182.734 46.5118 184.23 46.3481C185.442 46.2171 186.817 46.1953 187.69 47.0468C188.007 47.3524 188.236 47.7782 188.171 48.2148C188.105 48.6515 187.69 48.9026 187.265 48.8589Z" stroke="black" stroke-width="0.868339" stroke-miterlimit="10" stroke-linecap="round" stroke-linejoin="round"/>
<path d="M205.003 46.0098C202.317 45.9115 200.221 46.2718 197.885 47.156C197.241 47.3962 196.411 47.7128 195.92 47.2324C195.593 46.9049 195.582 46.3373 195.8 45.9225C196.018 45.5076 196.411 45.2129 196.815 44.9727C198.234 44.1212 199.883 43.7501 201.509 43.4771C202.83 43.2588 204.337 43.1387 205.352 44.0121C205.712 44.3286 205.996 44.7871 205.952 45.2565C205.909 45.726 205.483 46.0316 205.003 46.0098Z" stroke="black" stroke-width="0.868339" stroke-miterlimit="10" stroke-linecap="round" stroke-linejoin="round"/>
<path d="M180.418 53.2147C180.418 53.2147 181.542 52.3741 183.846 52.2104C186.662 52.003 188.256 54.8849 188.256 54.8849C188.256 54.8849 185.538 56.839 182.82 56.0748C180.844 55.5181 180.418 53.2147 180.418 53.2147Z" fill="white"/>
<path d="M184.362 56.0639C185.399 56.0639 186.24 55.2232 186.24 54.1862C186.24 53.1492 185.399 52.3086 184.362 52.3086C183.325 52.3086 182.484 53.1492 182.484 54.1862C182.484 55.2232 183.325 56.0639 184.362 56.0639Z" fill="black"/>
<path d="M188.256 54.874C188.256 54.874 186.236 52.3632 183.846 52.1995C181.946 52.0685 180.418 53.2038 180.418 53.2038" stroke="black" stroke-width="0.868339" stroke-miterlimit="10" stroke-linecap="round" stroke-linejoin="round"/>
<path d="M208.441 42.0144C208.441 42.0144 209.282 51.5009 208.125 55.8893C206.968 60.2778 201.116 63.0833 194.949 64.2186C184.207 66.1945 181.969 61.5768 181.969 61.5768C181.969 61.5768 184.218 74.4256 187.318 77.7115C191.444 82.0781 197.23 80.8445 202.667 79.6C208.092 78.3446 215.886 75.4299 216.541 68.2141C217.393 58.815 214.686 42.8441 214.686 42.8441L208.441 42.0144Z" fill="black"/>
<path d="M193.312 67.7338L202.832 64.8955C202.832 64.8955 202.602 70.1682 199.24 70.8232C195.081 71.6528 193.312 67.7338 193.312 67.7338Z" fill="white"/>
<path d="M257.217 122.829C253.145 126.443 252.032 134.554 251.879 139.99" stroke="black" stroke-width="1.21567" stroke-miterlimit="10" stroke-linecap="round" stroke-linejoin="round"/>
<path d="M272.15 208.35L273.482 167.107C273.482 167.107 272.762 144.215 288.427 149.695C305.151 155.546 295.195 186.866 289.781 208.35H272.15Z" fill="#FEB095"/>
<path d="M129.7 81.0627C129.7 81.0627 126.862 84.7525 121.611 82.9185C117.703 81.554 117.91 76.1721 117.91 76.1721C117.91 76.1721 115.367 80.2658 111.655 78.1698C110.105 77.2856 107.278 75.0805 109.308 71.7946C106.907 73.8032 103.053 72.264 101.536 71.6308C97.8131 69.8842 96.3503 67.035 96.0883 62.9303C95.8263 58.8257 98.5663 54.5683 102.573 53.6185C97.6494 52.4177 94.0906 47.145 94.822 42.1234C95.5534 37.1018 100.455 33.0627 105.509 33.2919C104.898 29.4275 106.852 25.2792 110.203 23.2706C113.566 21.2728 118.14 21.5567 121.24 23.9365C122.321 20.5633 125.356 17.8887 128.827 17.2337C132.309 16.5787 136.097 17.987 138.324 20.7488C140.158 17.6813 143.826 15.8146 147.385 16.1421C150.944 16.4696 154.208 18.9585 155.452 22.3099C157.669 21.0327 160.594 21.5457 162.657 23.0522C164.721 24.5587 166.063 26.873 167.013 29.2419C167.646 30.8139 168.148 32.4841 168.028 34.1762C167.919 35.8573 167.089 37.5821 165.616 38.4009C168.05 38.6192 170.255 40.4532 170.921 42.8003C171.587 45.1473 170.67 47.8655 168.716 49.3283C170.736 51.2606 171.402 54.481 170.288 57.0354C169.185 59.6008 166.38 61.3365 163.596 61.1837C164.753 62.8758 164.535 65.3757 163.105 66.8385C161.675 68.3013 159.186 68.596 157.45 67.4826C158.771 70.5392 157.341 74.3491 154.612 76.2485C151.883 78.1371 148.16 78.2681 145.06 77.0782C145.606 79.196 144.459 82.9622 139.787 84.0211C133.925 85.3638 130.978 83.6499 129.7 81.0627Z" fill="black"/>
<path d="M158.541 58.9917C159.582 55.7485 158.425 52.4768 155.957 51.6843C153.489 50.8918 150.644 52.8785 149.602 56.1217C148.561 59.365 149.718 62.6366 152.186 63.4291C154.654 64.2217 157.499 62.2349 158.541 58.9917Z" fill="#B88884"/>
<path d="M155.148 54.5791C153.739 56.2166 153.139 58.52 153.576 60.6269" stroke="black" stroke-width="0.868339" stroke-miterlimit="10" stroke-linecap="round" stroke-linejoin="round"/>
<path d="M149.109 70.6483C150.518 74.9385 155.135 77.2746 159.426 75.8664C163.716 74.4581 166.052 69.8404 164.644 65.5502C163.235 61.26 158.618 58.9239 154.327 60.3321" stroke="#FFC825" stroke-width="1.21567" stroke-miterlimit="10"/>
<path d="M120.589 68.4797C122.744 67.0385 122.956 63.5749 121.062 60.7435C119.169 57.9121 115.887 56.7851 113.732 58.2262C111.577 59.6674 111.365 63.131 113.259 65.9624C115.152 68.7938 118.434 69.9208 120.589 68.4797Z" fill="#B88884"/>
<path d="M113.84 60.7036C115.881 61.9481 117.562 63.7821 118.621 65.9217" stroke="black" stroke-width="0.868339" stroke-miterlimit="10" stroke-linecap="round" stroke-linejoin="round"/>
<path d="M128.271 70.7468C130.072 74.8841 128.173 79.7093 124.025 81.4996C119.876 83.2899 115.062 81.4013 113.272 77.253C111.471 73.1157 113.37 68.2906 117.518 66.5002" stroke="#FFC825" stroke-width="1.21567" stroke-miterlimit="10"/>
<path d="M128.205 71.3581C128.205 71.3581 127.735 82.3838 125.334 85.9098C123.292 88.901 120.148 90.2764 120.148 90.2764C120.148 90.2764 124.941 101.957 138.805 101.095C152.669 100.243 155.889 90.2764 155.889 90.2764C155.889 90.2764 150.409 87.5582 149.132 83.4973C147.855 79.4363 149.132 70.0153 149.132 70.0153C149.132 70.0153 130.344 65.1684 128.205 71.3581Z" fill="#B88884"/>
<path d="M138.621 82.1435C146.83 81.4012 152.747 72.5261 152.779 59.1315C152.812 47.6582 144.352 36.0102 131.165 38.7394C118.84 41.2939 116.613 54.1099 118.665 62.5374C120.696 70.965 128.326 83.0714 138.621 82.1435Z" fill="#B88884"/>
<path d="M128.467 78.7593C133.259 82.8748 139.536 82.1325 139.536 82.1325" stroke="black" stroke-width="0.868339" stroke-miterlimit="10" stroke-linecap="round" stroke-linejoin="round"/>
<path d="M135.466 58.2144C135.651 60.1138 134.952 61.8277 134.385 62.8976C133.719 64.1202 134.559 65.6594 135.946 65.7249C137.212 65.7904 138.533 65.2883 138.533 65.2883" stroke="black" stroke-width="0.868339" stroke-miterlimit="10" stroke-linecap="round" stroke-linejoin="round"/>
<path d="M130.464 54.0988C128.63 53.0399 124.122 52.3412 120.836 54.5354" stroke="black" stroke-width="0.868339" stroke-miterlimit="10" stroke-linecap="round" stroke-linejoin="round"/>
<path d="M138.936 51.8173C141.13 49.9287 145.627 48.9244 148.64 50.5291" stroke="black" stroke-width="0.868339" stroke-miterlimit="10" stroke-linecap="round" stroke-linejoin="round"/>
<path d="M121.184 57.7671C121.184 57.7671 121.053 57.7452 124.176 56.8937C128.16 56.2278 130.125 58.9351 130.125 58.9351C130.125 58.9351 127.407 60.6599 124.689 60.4853C122.276 60.3434 121.184 57.7671 121.184 57.7671Z" fill="white"/>
<path d="M125.683 60.5069C126.744 60.5069 127.604 59.6467 127.604 58.5856C127.604 57.5245 126.744 56.6643 125.683 56.6643C124.622 56.6643 123.762 57.5245 123.762 58.5856C123.762 59.6467 124.622 60.5069 125.683 60.5069Z" fill="black"/>
<path d="M130.442 58.8586C130.442 58.8586 128.488 56.9592 125.802 56.7954C122.167 56.8391 121.283 58.4438 119.602 57.5377" stroke="black" stroke-width="0.868339" stroke-miterlimit="10" stroke-linecap="round" stroke-linejoin="round"/>
<path d="M147.516 54.1099C147.516 54.1099 147.516 54.1099 145.049 54.1972C140.955 54.6229 140.158 58.018 140.158 58.018C140.158 58.018 142.811 58.9459 145.606 57.8106C147.636 56.9918 147.516 54.1099 147.516 54.1099Z" fill="white"/>
<path d="M144.022 58.2143C145.089 58.2143 145.954 57.3492 145.954 56.2821C145.954 55.2149 145.089 54.3499 144.022 54.3499C142.955 54.3499 142.09 55.2149 142.09 56.2821C142.09 57.3492 142.955 58.2143 144.022 58.2143Z" fill="black"/>
<path d="M140.158 58.0178C140.158 58.0178 141.381 53.7167 145.857 54.1315C148.662 54.3935 149.514 53.7712 149.514 53.7712" stroke="black" stroke-width="0.868339" stroke-miterlimit="10" stroke-linecap="round" stroke-linejoin="round"/>
<path d="M143.259 68.0066C141.938 74.1744 134.493 75.2988 131.928 69.5677L143.259 68.0066Z" fill="white"/>
<path d="M137.549 37.0582C136.283 40.8353 131.862 43.226 128.019 42.2326C129.515 44.3177 129.176 47.5053 127.277 49.2301C125.377 50.955 122.179 50.9768 120.236 49.2956C120.52 50.8021 119.646 52.3741 118.347 53.1928C117.048 54.0116 115.422 54.1644 113.904 53.9242C110.728 53.4221 107.758 51.0532 107.092 47.8983C106.426 44.7434 108.522 41.1082 111.699 40.5624C111.142 37.604 112.43 34.3727 114.887 32.6261C117.343 30.8794 120.814 30.7048 123.423 32.1894C123.489 30.0498 124.821 28.0084 126.753 27.0696C132.757 24.1548 139.558 31.0432 137.549 37.0582Z" fill="black"/>
<path d="M137.385 26.076C140.66 26.2943 143.52 29.3182 143.531 32.6041C144.874 30.9666 147.494 30.5736 149.273 31.7198C151.053 32.8661 151.751 35.4314 150.813 37.3309C151.948 36.7851 153.389 37.1563 154.317 38.0187C155.245 38.8811 155.703 40.1474 155.834 41.4028C156.107 44.0555 154.841 46.9156 152.461 48.1165C150.081 49.3173 146.741 48.4112 145.627 45.9877C143.378 47.0576 140.529 46.6973 138.63 45.1144C136.73 43.5315 135.846 40.7915 136.479 38.3898C134.765 38.7828 132.844 38.1497 131.687 36.8178C128.084 32.6368 132.156 25.7375 137.385 26.076Z" fill="black"/>
<path d="M123.763 87.7436C123.763 87.7436 131.24 95.4398 138.02 94.7739C144.7 94.108 148.03 90.047 150.65 86.1607C150.65 86.1607 157.964 82.1216 166.632 79.316C175.092 76.5869 181.959 75.135 181.959 75.135L184.142 101.127C175.813 122.174 172.712 143.844 173.051 165.917C173.051 165.917 129.439 173.286 101.678 164.847C102.104 150.83 101.777 119.576 91.7553 106.782L89.4082 85.8005C89.4082 85.8005 93.9277 85.2219 98.6873 85.2219C107.388 85.2328 123.763 87.7436 123.763 87.7436Z" fill="white"/>
<path d="M106.963 121.64C105.751 121.694 104.725 122.622 104.725 123.877V124.194C104.725 125.362 105.751 126.487 106.963 126.432C108.174 126.377 109.2 125.449 109.2 124.194V123.877C109.2 122.709 108.174 121.585 106.963 121.64Z" fill="#AB8DDB"/>
<path d="M114.603 110.035C111.732 110.035 111.721 114.5 114.603 114.5C117.485 114.5 117.485 110.035 114.603 110.035Z" fill="#AB8DDB"/>
<path d="M103.841 100.079C100.97 100.079 100.959 104.544 103.841 104.544C106.712 104.555 106.723 100.079 103.841 100.079Z" fill="#AB8DDB"/>
<path d="M93.9171 90.2434C91.0461 90.2434 91.0352 94.7083 93.9171 94.7083C96.7991 94.7083 96.7991 90.2434 93.9171 90.2434Z" fill="#AB8DDB"/>
<path d="M104.724 139.215C101.853 139.215 101.842 143.68 104.724 143.68C107.606 143.691 107.606 139.215 104.724 139.215Z" fill="#AB8DDB"/>
<path d="M118.839 94.7739C115.968 94.7739 115.957 99.2388 118.839 99.2388C121.71 99.2388 121.71 94.7739 118.839 94.7739Z" fill="#AB8DDB"/>
<path d="M119.767 112.262C116.896 112.262 116.885 116.727 119.767 116.727C122.649 116.738 122.649 112.262 119.767 112.262Z" fill="#AB8DDB"/>
<path d="M137.593 102.317C134.722 102.317 134.711 106.782 137.593 106.782C140.464 106.782 140.475 102.317 137.593 102.317Z" fill="#AB8DDB"/>
<path d="M128.958 114.5C126.087 114.5 126.076 118.965 128.958 118.965C131.829 118.976 131.829 114.5 128.958 114.5Z" fill="#AB8DDB"/>
<path d="M96.341 110.035C93.4699 110.035 93.459 114.5 96.341 114.5C99.2229 114.5 99.2229 110.035 96.341 110.035Z" fill="#AB8DDB"/>
<path d="M109.505 86.6084C106.634 86.6084 106.623 91.0733 109.505 91.0733C112.387 91.0842 112.387 86.6084 109.505 86.6084Z" fill="#AB8DDB"/>
<path d="M141.666 122.294C140.771 121.476 139.385 121.41 138.5 122.294C138.391 122.404 138.293 122.502 138.184 122.611C137.354 123.441 137.3 124.958 138.184 125.777C139.079 126.595 140.465 126.661 141.35 125.777L141.666 125.46C142.485 124.631 142.551 123.113 141.666 122.294Z" fill="#AB8DDB"/>
<path d="M121.644 125.384C120.432 125.438 119.406 126.366 119.406 127.622V127.938C119.406 129.106 120.432 130.231 121.644 130.176C122.856 130.122 123.882 129.194 123.882 127.938V127.622C123.882 126.454 122.856 125.34 121.644 125.384Z" fill="#AB8DDB"/>
<path d="M115.4 151.638C114.188 151.693 113.162 152.621 113.162 153.876V154.193C113.162 155.361 114.188 156.485 115.4 156.431C116.612 156.376 117.638 155.448 117.638 154.193V153.876C117.627 152.697 116.601 151.584 115.4 151.638Z" fill="#AB8DDB"/>
<path d="M131.961 137.578C130.749 137.632 129.723 138.56 129.723 139.816V140.438C129.723 141.606 130.749 142.73 131.961 142.676C133.172 142.621 134.198 141.693 134.198 140.438V139.816C134.188 138.637 133.161 137.523 131.961 137.578Z" fill="#AB8DDB"/>
<path d="M137.267 152.577C134.396 152.577 134.385 157.042 137.267 157.042C140.149 157.042 140.149 152.577 137.267 152.577Z" fill="#AB8DDB"/>
<path d="M127.584 160.382H127.267C126.099 160.382 124.975 161.408 125.029 162.62C125.084 163.832 126.012 164.858 127.267 164.858H127.584C128.752 164.858 129.876 163.832 129.822 162.62C129.767 161.408 128.839 160.382 127.584 160.382Z" fill="#AB8DDB"/>
<path d="M158.204 156.944C155.333 156.944 155.322 161.408 158.204 161.408C161.075 161.419 161.086 156.944 158.204 156.944Z" fill="#AB8DDB"/>
<path d="M147.888 140.383C145.017 140.383 145.006 144.848 147.888 144.848C150.77 144.859 150.77 140.383 147.888 140.383Z" fill="#AB8DDB"/>
<path d="M166.642 123.201C163.771 123.201 163.76 127.666 166.642 127.666C169.513 127.676 169.524 123.201 166.642 123.201Z" fill="#AB8DDB"/>
<path d="M151.021 109.14C148.15 109.14 148.139 113.605 151.021 113.605C153.892 113.616 153.892 109.14 151.021 109.14Z" fill="#AB8DDB"/>
<path d="M122.507 95.6035C119.636 95.6035 119.625 100.068 122.507 100.068C125.378 100.068 125.389 95.6035 122.507 95.6035Z" fill="#AB8DDB"/>
<path d="M158.204 131.017C155.333 131.017 155.322 135.482 158.204 135.482C161.075 135.482 161.086 131.017 158.204 131.017Z" fill="#AB8DDB"/>
<path d="M168.957 94.7739H168.64C167.472 94.7739 166.348 95.8001 166.402 97.0118C166.457 98.2235 167.385 99.2497 168.64 99.2497H168.957C170.125 99.2497 171.249 98.2235 171.195 97.0118C171.129 95.7892 170.201 94.7739 168.957 94.7739Z" fill="#AB8DDB"/>
<path d="M173.017 78.2681H172.701C171.533 78.2681 170.408 79.2942 170.463 80.506C170.517 81.7177 171.445 82.7438 172.701 82.7438H173.017C174.185 82.7438 175.31 81.7177 175.255 80.506C175.201 79.2942 174.273 78.2681 173.017 78.2681Z" fill="#AB8DDB"/>
<path d="M152.767 93.3657C149.896 93.3657 149.885 97.8306 152.767 97.8306C155.649 97.8306 155.649 93.3657 152.767 93.3657Z" fill="#AB8DDB"/>
<path d="M168.824 139.139H168.507C167.339 139.139 166.215 140.165 166.269 141.377C166.324 142.588 167.252 143.614 168.507 143.614H168.824C169.992 143.614 171.116 142.588 171.062 141.377C171.007 140.165 170.079 139.139 168.824 139.139Z" fill="#AB8DDB"/>
<path d="M172.318 110.035H172.002C170.833 110.035 169.709 111.061 169.764 112.273C169.818 113.485 170.746 114.511 172.002 114.511H172.318C173.486 114.511 174.611 113.485 174.556 112.273C174.501 111.05 173.573 110.035 172.318 110.035Z" fill="#AB8DDB"/>
<path d="M112.748 117.578C112.748 117.578 110.947 150.677 98.8728 161.419C98.8728 161.419 96.3402 174.694 89.4082 208.197L135.778 224.94L181.991 208.328C180.419 187.324 178.727 161.419 178.727 161.419C178.727 161.419 165.889 151.278 166.315 117.578H112.748Z" fill="#FFC825"/>
<path d="M114.604 86.1609L114.92 127.425H122.507L120.717 86.6085L114.604 86.1609Z" fill="#FFC825"/>
<path d="M163.421 80.5061V118.769H156.947L157.089 82.744L163.421 80.5061Z" fill="#FFC825"/>
<path d="M166.643 178.842C169.099 190.01 172.69 195.785 178.727 199.845" stroke="black" stroke-width="1.21567" stroke-miterlimit="10" stroke-linecap="round" stroke-linejoin="round"/>
<path d="M109.505 178.842C105.99 187.313 102.3 191.527 96.3398 195.785" stroke="black" stroke-width="1.21567" stroke-miterlimit="10" stroke-linecap="round" stroke-linejoin="round"/>
<path d="M158.323 149.182C158.356 153.581 156.042 157.042 151.195 160.59C143.455 163.002 136.982 163.657 129.296 161.048C127.703 160.513 126.12 159.847 124.832 158.778C121.775 156.234 121.338 152.817 120.705 148.887L121.644 130.133H158.542L158.826 145.448" stroke="black" stroke-width="1.21567" stroke-miterlimit="10" stroke-linecap="round" stroke-linejoin="round"/>
<path d="M236.847 73.3118C239.14 77.1326 239.423 79.8945 238.758 95.9091C238.299 106.902 236.541 117.622 236.541 117.622C236.541 117.622 234.249 124.401 229.926 123.506C225.603 122.611 225.374 120.973 224.61 117.567C223.846 114.172 221.771 83.7371 221.204 73.3009C220.887 67.4387 232.273 65.6702 236.847 73.3118Z" fill="#B88884"/>
<path d="M37.8601 96.1493C35.5676 99.9701 35.5021 103.813 35.2511 119.838C35 135.864 36.4956 138.44 36.4956 138.44C36.4956 138.44 38.2859 145.241 42.6088 144.346C46.9318 143.451 46.5934 142.37 47.3575 138.975C48.1217 135.58 52.9249 106.586 53.5035 96.1493C53.8201 90.2762 42.4451 88.5078 37.8601 96.1493Z" fill="#B88884"/>
<path d="M225.603 113.78C225.603 113.78 227.928 111.542 231.345 111.149C234.762 110.756 234.642 112.382 235.908 115.668C237.175 118.954 242.24 133.157 242.338 136.038C242.437 138.92 241.76 147.239 241.017 147.414C240.264 147.588 239.042 149.16 237.59 148.778C236.138 148.396 232.317 133.418 232.317 133.418C232.317 133.418 235.941 148.189 233.529 149.193C231.116 150.197 226.444 132.523 226.444 132.523C226.444 132.523 225.712 134.99 225.734 138.407C225.756 141.824 224.741 145.307 223.66 144.881C222.579 144.455 222.82 142.064 222.175 140.056C221.531 138.047 221.586 130.94 221.924 129.063C222.263 127.185 225.603 113.78 225.603 113.78Z" fill="#B88884"/>
<path d="M231.76 132.829C232.83 137.676 233.725 142.566 234.412 147.479" stroke="black" stroke-width="1.21567" stroke-miterlimit="10" stroke-linecap="round" stroke-linejoin="round"/>
<path d="M236.094 133.244C237.076 138.222 238.463 142.523 238.386 147.588" stroke="black" stroke-width="1.21567" stroke-miterlimit="10" stroke-linecap="round" stroke-linejoin="round"/>
<path d="M239.783 132.829C240.984 137.272 241.486 140.208 241.792 144.793" stroke="black" stroke-width="1.21567" stroke-miterlimit="10" stroke-linecap="round" stroke-linejoin="round"/>
<path d="M223.855 129.51C225.526 132.141 226.956 134.925 228.124 137.807" stroke="black" stroke-width="1.21567" stroke-miterlimit="10" stroke-linecap="round" stroke-linejoin="round"/>
<path d="M45.2619 134.434C45.2619 134.434 42.6092 132.6 39.1705 132.764C35.7318 132.927 36.1138 134.51 35.3933 137.96C34.6729 141.409 31.9656 156.234 32.3258 159.105C32.6861 161.965 34.6947 170.076 35.4698 170.12C36.2339 170.164 37.6967 171.528 39.0722 170.917C40.4477 170.306 41.8014 154.913 41.8014 154.913C41.8014 154.913 40.797 171.812 43.155 170.677C45.513 169.541 46.0479 153.898 46.0479 153.898C46.0479 153.898 48.1548 156.31 48.6788 159.684C49.2028 163.068 51.1896 165.426 52.1939 164.825C53.1873 164.236 52.576 161.911 52.8817 159.826C53.1873 157.741 51.9865 150.743 51.3643 148.942C50.7311 147.119 45.2619 134.434 45.2619 134.434Z" fill="#B88884"/>
<path d="M37.0976 155.994C36.9339 161.059 37.2068 164.869 38.102 169.858" stroke="black" stroke-width="1.21567" stroke-miterlimit="10" stroke-linecap="round" stroke-linejoin="round"/>
<path d="M34.3345 154.935C33.8651 159.509 33.8432 163.079 34.2799 167.653" stroke="black" stroke-width="1.21567" stroke-miterlimit="10" stroke-linecap="round" stroke-linejoin="round"/>
<path d="M101.318 113.081C103.185 124.991 103.283 137.163 101.613 149.095" stroke="black" stroke-width="1.21567" stroke-miterlimit="10" stroke-linecap="round" stroke-linejoin="round"/>
<path d="M141.971 99.0422C145.933 93.7804 150.628 89.0754 155.867 85.0908" stroke="black" stroke-width="1.21567" stroke-miterlimit="10" stroke-linecap="round" stroke-linejoin="round"/>
<path d="M179.032 98.9441C175.877 109.031 174.469 119.675 174.906 130.231" stroke="black" stroke-width="1.21567" stroke-miterlimit="10" stroke-linecap="round" stroke-linejoin="round"/>
<path d="M51.5722 91.1497C52.2053 92.678 52.2054 94.3919 52.1726 96.0512C52.0744 101.291 51.7905 106.531 51.332 111.76" stroke="black" stroke-width="1.21567" stroke-miterlimit="10" stroke-linecap="round" stroke-linejoin="round"/>
<path d="M221.749 69.7639C221.346 79.8945 221.815 90.0578 223.158 100.112" stroke="black" stroke-width="1.21567" stroke-miterlimit="10" stroke-linecap="round" stroke-linejoin="round"/>
<path d="M23.3955 176.583C23.3955 176.583 18.8324 171.768 21.2449 171.124C23.6575 170.48 24.7928 174.53 25.295 175.993" stroke="black" stroke-width="0.868339" stroke-miterlimit="10" stroke-linecap="round" stroke-linejoin="round"/>
<path d="M25.5664 175.677C25.5664 175.677 29.016 170.011 30.2714 172.172C31.5268 174.334 27.9135 176.484 26.6253 177.358" stroke="black" stroke-width="0.868339" stroke-miterlimit="10" stroke-linecap="round" stroke-linejoin="round"/>
<path d="M26.5293 177.532C26.5293 177.532 32.6426 180.109 30.6994 181.659C28.7563 183.22 26.3655 180.283 25.3066 179.137" stroke="black" stroke-width="0.868339" stroke-miterlimit="10" stroke-linecap="round" stroke-linejoin="round"/>
<path d="M23.4277 178.613C23.4277 178.613 17.3253 181.222 17.5655 178.733C17.7947 176.255 21.9867 176.593 23.5478 176.626" stroke="black" stroke-width="0.868339" stroke-miterlimit="10" stroke-linecap="round" stroke-linejoin="round"/>
<path d="M25.2178 179.563C25.2178 179.563 24.923 186.189 22.7834 184.901C20.6437 183.613 22.7616 179.989 23.4711 178.602" stroke="black" stroke-width="0.868339" stroke-miterlimit="10" stroke-linecap="round" stroke-linejoin="round"/>
<path d="M23.6039 177.106C23.5166 177.707 23.9096 178.351 24.4882 178.536C25.0668 178.733 25.7654 178.449 26.0492 177.914C26.9771 176.189 23.8987 175.076 23.6039 177.106Z" stroke="black" stroke-width="0.868339" stroke-miterlimit="10" stroke-linecap="round" stroke-linejoin="round"/>
<path d="M26.9535 166.419C26.7243 167.937 26.0583 169.367 25.2178 170.655C25.2614 170.589 24.2789 168.013 24.2462 167.631C24.1261 166.463 24.2571 165.262 24.6392 164.149C24.9558 163.221 25.4361 161.627 26.3968 162.62C27.1718 163.439 27.1063 165.426 26.9535 166.419Z" stroke="black" stroke-width="0.868339" stroke-miterlimit="10" stroke-linecap="round" stroke-linejoin="round"/>
<path d="M22.0079 167.882C22.0079 167.893 20.2613 165.502 20.1412 165.131C19.9447 164.564 19.3334 162.107 20.0648 161.747C22.0297 160.786 22.2808 166.987 22.0079 167.882Z" stroke="black" stroke-width="0.868339" stroke-miterlimit="10" stroke-linecap="round" stroke-linejoin="round"/>
<path d="M277.968 157.391C275.959 159.847 274.813 162.915 274.224 166.026C273.634 169.137 273.569 172.325 273.492 175.491" stroke="black" stroke-width="1.21567" stroke-miterlimit="10" stroke-linecap="round" stroke-linejoin="round"/>
</g>
<g clip-path="url(#clip0_1448_10220)">
<path d="M63.6117 41.8504C63.6117 41.8504 89.997 40.0492 94.7457 65.7686C100.903 99.0749 81.9842 93.9005 65.6203 94.0642C31.0586 94.4027 39.3879 72.253 41.5712 65.0917C47.0731 47.014 63.6117 41.8504 63.6117 41.8504Z" fill="#AB8DDB"/>
<path d="M94.177 85.8116C94.177 85.8116 75.8154 84.709 44.3649 91.3572C33.7977 93.5951 39.769 114.598 49.6376 112.131C85.8586 103.092 96.1311 115.668 96.1311 115.668C96.1311 115.668 96.4477 88.8573 94.177 85.8116Z" fill="#B88884"/>
<path d="M244.826 122.185L271.572 108.005C271.572 108.005 292.739 148.298 295.992 158.232C301.974 176.528 284.486 184.017 284.486 184.017L244.826 122.185Z" fill="#FEB095"/>
<path d="M212.056 78.7594C194.688 81.4121 178.084 100.647 174.536 107.994C169.045 119.369 172.866 140.383 172.866 140.383C177.451 163.319 179.503 187.925 180.224 208.251L255.624 208.35L253.124 134.761L258.757 143.615L283.833 131.868C283.833 131.868 282.512 127.971 280.339 122.829C275.711 111.858 266.115 90.2763 254.543 85.8333C247.022 82.9513 228.267 76.2813 212.056 78.7594Z" fill="#32B2A8"/>
<path d="M178.728 76.2813C178.728 76.2813 200.856 67.0787 228.671 68.2576C237.503 68.6397 235.45 81.3684 225.342 82.5583C188.258 86.914 183.106 102.317 183.106 102.317C183.106 102.317 177.68 79.9383 178.728 76.2813Z" fill="#B88884"/>
<path d="M56.0459 69.8077C54.6377 66.5764 52.247 65.0481 49.8235 66.107C47.4109 67.155 46.6577 70.1679 48.0659 73.3992C49.4741 76.6305 52.5745 78.399 54.987 77.351C57.3996 76.303 57.4541 73.039 56.0459 69.8077Z" fill="#FEB095"/>
<path d="M53.6214 73.2135C54.8441 88.4093 66.2409 94.1296 75.8475 94.0641C82.4629 94.0204 89.1984 82.2961 89.4058 68.1046C89.5041 53.3127 82.321 44.0991 68.5006 46.3697C59.0142 47.9199 52.5625 60.0154 53.6214 73.2135Z" fill="#FEB095"/>
<path d="M50.7734 100.188C50.7734 100.188 56.985 95.396 56.985 76.4231L75.816 88.0492C74.4405 99.4024 80.4773 102.797 80.4773 102.797C80.4773 102.797 80.3573 111.28 69.0586 114.631C52.2581 116.574 50.7734 100.188 50.7734 100.188Z" fill="#FEB095"/>
<path d="M75.0948 94.0096C70.5208 94.1406 64.2656 92.656 59.5605 86.4663" stroke="black" stroke-width="0.868339" stroke-miterlimit="10" stroke-linecap="round" stroke-linejoin="round"/>
<path d="M52.3789 69.1963C53.2522 70.3316 53.7107 71.7944 53.6125 73.2136" stroke="black" stroke-width="0.868339" stroke-miterlimit="10" stroke-linecap="round" stroke-linejoin="round"/>
<path d="M77.8231 71.0303L79.9737 77.6457L76.2402 78.4426" stroke="black" stroke-width="0.868339" stroke-miterlimit="10" stroke-linecap="round" stroke-linejoin="round"/>
<path d="M72.9111 64.1418C69.5051 62.7445 65.2695 62.1332 61.7871 64.0326" stroke="black" stroke-width="0.868339" stroke-miterlimit="10" stroke-linecap="round" stroke-linejoin="round"/>
<path d="M80.2266 64.2947C82.6937 62.1878 86.5691 61.893 88.5559 62.8319" stroke="black" stroke-width="0.868339" stroke-miterlimit="10" stroke-linecap="round" stroke-linejoin="round"/>
<path d="M70.5332 80.5059C72.1161 86.2589 78.5787 85.1454 81.1004 82.187L70.5332 80.5059Z" fill="white"/>
<path d="M72.1282 69.5563C71.0584 68.1372 69.1262 67.0237 67.3577 66.98C65.6984 66.9364 64.6395 67.5368 62.2051 67.9516" stroke="#AB8DDB" stroke-width="0.868339" stroke-miterlimit="10" stroke-linecap="round" stroke-linejoin="round"/>
<path d="M79.5391 69.6547C80.3032 68.05 81.9735 66.5653 83.7092 66.1723C85.5432 65.7684 87.2571 66.4998 88.709 66.1942" stroke="#AB8DDB" stroke-width="0.868339" stroke-miterlimit="10" stroke-linecap="round" stroke-linejoin="round"/>
<path d="M62.6375 68.4542C62.6375 68.4542 62.5065 68.4214 65.6286 67.8538C69.5804 67.5372 71.2725 70.3427 71.2725 70.3427C71.2725 70.3427 68.4669 71.7946 65.8361 71.4016C63.489 71.0632 62.6375 68.4542 62.6375 68.4542Z" fill="white"/>
<path d="M66.4042 71.4998C67.4472 71.4998 68.2927 70.6542 68.2927 69.6112C68.2927 68.5682 67.4472 67.7227 66.4042 67.7227C65.3612 67.7227 64.5156 68.5682 64.5156 69.6112C64.5156 70.6542 65.3612 71.4998 66.4042 71.4998Z" fill="black"/>
<path d="M71.5897 70.299C71.5897 70.299 69.8431 68.2795 67.2231 67.8974C65.138 67.7773 62.9111 69.655 61.1426 68.6288" stroke="black" stroke-width="0.868339" stroke-miterlimit="10" stroke-linecap="round" stroke-linejoin="round"/>
<path d="M87.7371 67.1003C87.7371 67.1003 87.7371 67.1003 85.3246 66.9802C81.2855 67.0457 80.2266 70.2989 80.2266 70.2989C80.2266 70.2989 82.7483 71.4233 85.5647 70.5499C87.6171 69.9277 87.7371 67.1003 87.7371 67.1003Z" fill="white"/>
<path d="M84.1444 70.812C85.1874 70.812 86.033 69.9665 86.033 68.9235C86.033 67.8805 85.1874 67.0349 84.1444 67.0349C83.1014 67.0349 82.2559 67.8805 82.2559 68.9235C82.2559 69.9665 83.1014 70.812 84.1444 70.812Z" fill="black"/>
<path d="M80.2266 70.2987C80.2266 70.2987 81.9077 67.1329 85.0189 67.0019C87.0167 66.9146 87.2677 67.5368 88.9489 67.1438" stroke="black" stroke-width="0.868339" stroke-miterlimit="10" stroke-linecap="round" stroke-linejoin="round"/>
<path d="M79.7576 102.481C79.7576 102.481 77.2141 108.463 68.9284 108.299C57.728 108.07 50.7742 100.177 50.7742 100.177C50.7742 100.177 38.0783 103.485 30.6113 111.749C25.6334 117.251 25.1858 125.558 24.3125 129.51C24.3125 129.51 38.7878 136.781 39.4756 172.914L93.8509 173.384C94.6478 162.795 96.449 151.66 97.5843 139.99L104.724 143.603C104.898 138.2 111.667 115.668 98.0756 109.915C98.0865 109.915 92.3553 105.483 79.7576 102.481Z" fill="black"/>
<path d="M53.636 55.3433C53.636 55.3433 56.5507 62.9084 62.6421 59.961C68.7336 57.0135 69.1047 54.6119 69.1047 54.6119C69.1047 54.6119 70.4475 60.5941 76.2332 60.6487C82.019 60.7033 82.2592 54.6119 82.2592 54.6119C82.2592 54.6119 84.7045 60.7797 89.5732 60.6487C95.1298 60.5068 95.6756 53.5093 93.7434 50.1797C91.8111 46.8611 76.9865 36.4358 63.6246 41.8613C52.4243 46.4026 53.636 55.3433 53.636 55.3433Z" fill="#AB8DDB"/>
<path d="M60.7392 48.7607C60.7392 48.7607 50.8379 47.2433 46.7878 42.1998C45.3687 40.4314 44.0587 32.637 49.517 29.3947C54.6477 26.349 62.2784 28.2048 64.2434 32.5169C66.2084 36.8289 65.2149 46.4027 65.2149 46.4027L60.7392 48.7607Z" fill="#AB8DDB"/>
<path d="M52.3457 28.194C55.7626 27.6591 59.3323 29.2747 61.4719 31.982C63.6116 34.6893 64.4412 37.7023 63.8954 41.1082" stroke="black" stroke-width="0.868339" stroke-miterlimit="10" stroke-linecap="round" stroke-linejoin="round"/>
<path d="M50.8945 32.0801C52.4883 32.2657 53.7765 33.4446 54.7917 34.6891C56.8877 37.2218 58.3942 40.2456 59.1584 43.4442" stroke="black" stroke-width="0.868339" stroke-miterlimit="10" stroke-linecap="round" stroke-linejoin="round"/>
<path d="M51.0137 38.8704C52.6839 39.9838 54.0594 41.5449 54.9436 43.3461" stroke="black" stroke-width="0.868339" stroke-miterlimit="10" stroke-linecap="round" stroke-linejoin="round"/>
<path d="M54.377 56.9153C55.2066 58.7056 57.117 59.7864 59.0492 60.1903C61.3854 60.6815 63.9289 60.3431 65.9485 59.0768C67.979 57.8105 69.4199 55.5944 69.5946 53.2146" stroke="black" stroke-width="0.868339" stroke-miterlimit="10" stroke-linecap="round" stroke-linejoin="round"/>
<path d="M71.625 59.0878C73.8956 60.638 77.1269 60.6379 79.3976 59.0769C81.6682 57.5158 82.8254 54.4919 82.1813 51.8174" stroke="black" stroke-width="0.868339" stroke-miterlimit="10" stroke-linecap="round" stroke-linejoin="round"/>
<path d="M84.9531 58.9457C85.6845 59.8409 86.8854 60.2011 88.0425 60.2994C89.2433 60.3976 90.4878 60.2448 91.5685 59.7099C92.6493 59.175 93.5554 58.2471 93.9265 57.1008" stroke="black" stroke-width="0.868339" stroke-miterlimit="10" stroke-linecap="round" stroke-linejoin="round"/>
<path d="M49.1913 57.1335C46.1675 61.4347 43.7222 66.2816 43.0672 71.4997C42.4013 76.7178 43.7112 82.3398 47.3246 86.1606" stroke="black" stroke-width="0.868339" stroke-miterlimit="10" stroke-linecap="round" stroke-linejoin="round"/>
<path d="M47.0078 77.0344C47.4991 80.5059 49.4422 83.7481 52.2696 85.8113" stroke="black" stroke-width="0.868339" stroke-miterlimit="10" stroke-linecap="round" stroke-linejoin="round"/>
<path d="M92.0923 67.6025C92.5071 70.3317 92.6381 73.1045 92.4962 75.8664C92.4089 77.4602 92.2342 79.054 91.7539 80.5714" stroke="black" stroke-width="0.868339" stroke-miterlimit="10" stroke-linecap="round" stroke-linejoin="round"/>
<path d="M53.5371 47.7346C56.8667 44.5469 61.0259 42.2217 65.4798 41.0427" stroke="black" stroke-width="0.868339" stroke-miterlimit="10" stroke-linecap="round" stroke-linejoin="round"/>
<path d="M196.629 90.2437C196.629 90.2437 196.039 75.3099 195.788 67.57C195.439 57.3085 213.015 45.0274 215.82 55.3653C218.058 63.6073 223.298 82.1873 223.298 82.1873C223.298 82.1873 222.425 91.5974 206.759 92.4707C196.269 93.0602 196.629 90.2437 196.629 90.2437Z" fill="#FEB095"/>
<path d="M180.375 52.4286C181.51 64.9389 185.254 76.0192 195.287 76.445C205.319 76.8598 214.489 70.7356 216.432 57.0354C218.626 41.5557 210.417 28.4013 195.789 28.3794C185.757 28.3576 179.119 38.641 180.375 52.4286Z" fill="#FEB095"/>
<path d="M180.616 54.7864C180.616 54.7864 179.797 44.3393 182.624 37.0362C182.624 37.0362 202.875 42.8328 214.675 42.8438C223.943 42.8438 224.959 24.2201 221.345 21.8622C217.732 19.5042 205.746 16.6441 201.794 22.67C201.794 22.67 200.571 17.1899 194.414 18.2815C188.268 19.3732 182.308 23.9472 183.771 28.0955C183.771 28.0955 174.83 27.4296 174.524 34.1214C174.219 40.8133 180.616 54.7864 180.616 54.7864Z" fill="black"/>
<path d="M220.002 34.6347L217.874 54.1972L212.077 52.0029L206.029 35.4316C206.029 35.4207 217.841 32.9645 220.002 34.6347Z" fill="black"/>
<path d="M221.034 53.5216C221.708 49.9001 220.058 46.5555 217.35 46.0513C214.641 45.5471 211.899 48.0742 211.225 51.6956C210.55 55.3171 212.2 58.6617 214.908 59.1659C217.617 59.6701 220.359 57.1431 221.034 53.5216Z" fill="#FEB095"/>
<path d="M219.087 49.1318C217.897 50.3217 217.154 51.9483 217.023 53.6294" stroke="black" stroke-width="0.868339" stroke-miterlimit="10" stroke-linecap="round" stroke-linejoin="round"/>
<path d="M190.79 52.8325L190.506 61.3693L194.687 60.9763" stroke="black" stroke-width="0.868339" stroke-miterlimit="10" stroke-linecap="round" stroke-linejoin="round"/>
<path d="M205.975 50.2781C205.975 50.2781 204.545 48.193 200.43 49.2629C197.657 49.9833 197.188 53.5203 197.188 53.5203C197.188 53.5203 199.764 53.4111 202.591 52.7234C204.633 52.2212 205.975 50.2781 205.975 50.2781Z" fill="white"/>
<path d="M202.143 52.9526C203.18 52.9526 204.021 52.1119 204.021 51.0749C204.021 50.0379 203.18 49.1973 202.143 49.1973C201.106 49.1973 200.266 50.0379 200.266 51.0749C200.266 52.1119 201.106 52.9526 202.143 52.9526Z" fill="black"/>
<path d="M197.197 53.5202C197.197 53.5202 198.496 50.0706 200.942 49.4047C203.856 48.6078 205.985 50.278 205.985 50.278" stroke="black" stroke-width="0.868339" stroke-miterlimit="10" stroke-linecap="round" stroke-linejoin="round"/>
<path d="M187.265 48.8589C184.83 48.6187 182.898 48.848 180.726 49.5139C180.125 49.6995 179.361 49.9396 178.935 49.4702C178.652 49.1536 178.673 48.6406 178.903 48.2694C179.121 47.8982 179.492 47.6581 179.874 47.4616C181.206 46.7629 182.734 46.5118 184.23 46.3481C185.442 46.2171 186.817 46.1953 187.69 47.0468C188.007 47.3524 188.236 47.7782 188.171 48.2148C188.105 48.6515 187.69 48.9026 187.265 48.8589Z" stroke="black" stroke-width="0.868339" stroke-miterlimit="10" stroke-linecap="round" stroke-linejoin="round"/>
<path d="M205.003 46.0098C202.317 45.9115 200.221 46.2718 197.885 47.156C197.241 47.3962 196.411 47.7128 195.92 47.2324C195.593 46.9049 195.582 46.3373 195.8 45.9225C196.018 45.5076 196.411 45.2129 196.815 44.9727C198.234 44.1212 199.883 43.7501 201.509 43.4771C202.83 43.2588 204.337 43.1387 205.352 44.0121C205.712 44.3286 205.996 44.7871 205.952 45.2565C205.909 45.726 205.483 46.0316 205.003 46.0098Z" stroke="black" stroke-width="0.868339" stroke-miterlimit="10" stroke-linecap="round" stroke-linejoin="round"/>
<path d="M180.418 53.2147C180.418 53.2147 181.542 52.3741 183.846 52.2104C186.662 52.003 188.256 54.8849 188.256 54.8849C188.256 54.8849 185.538 56.839 182.82 56.0748C180.844 55.5181 180.418 53.2147 180.418 53.2147Z" fill="white"/>
<path d="M184.362 56.0639C185.399 56.0639 186.24 55.2232 186.24 54.1862C186.24 53.1492 185.399 52.3086 184.362 52.3086C183.325 52.3086 182.484 53.1492 182.484 54.1862C182.484 55.2232 183.325 56.0639 184.362 56.0639Z" fill="black"/>
<path d="M188.256 54.874C188.256 54.874 186.236 52.3632 183.846 52.1995C181.946 52.0685 180.418 53.2038 180.418 53.2038" stroke="black" stroke-width="0.868339" stroke-miterlimit="10" stroke-linecap="round" stroke-linejoin="round"/>
<path d="M208.441 42.0144C208.441 42.0144 209.282 51.5009 208.125 55.8893C206.968 60.2778 201.116 63.0833 194.949 64.2186C184.207 66.1945 181.969 61.5768 181.969 61.5768C181.969 61.5768 184.218 74.4256 187.318 77.7115C191.444 82.0781 197.23 80.8445 202.667 79.6C208.092 78.3446 215.886 75.4299 216.541 68.2141C217.393 58.815 214.686 42.8441 214.686 42.8441L208.441 42.0144Z" fill="black"/>
<path d="M193.312 67.7338L202.832 64.8955C202.832 64.8955 202.602 70.1682 199.24 70.8232C195.081 71.6528 193.312 67.7338 193.312 67.7338Z" fill="white"/>
<path d="M129.7 81.0627C129.7 81.0627 126.862 84.7525 121.611 82.9185C117.703 81.554 117.91 76.1721 117.91 76.1721C117.91 76.1721 115.367 80.2658 111.655 78.1698C110.105 77.2856 107.278 75.0805 109.308 71.7946C106.907 73.8032 103.053 72.264 101.536 71.6308C97.8131 69.8842 96.3503 67.035 96.0883 62.9303C95.8263 58.8257 98.5663 54.5683 102.573 53.6185C97.6494 52.4177 94.0906 47.145 94.822 42.1234C95.5534 37.1018 100.455 33.0627 105.509 33.2919C104.898 29.4275 106.852 25.2792 110.203 23.2706C113.566 21.2728 118.14 21.5567 121.24 23.9365C122.321 20.5633 125.356 17.8887 128.827 17.2337C132.309 16.5787 136.097 17.987 138.324 20.7488C140.158 17.6813 143.826 15.8146 147.385 16.1421C150.944 16.4696 154.208 18.9585 155.452 22.3099C157.669 21.0327 160.594 21.5457 162.657 23.0522C164.721 24.5587 166.063 26.873 167.013 29.2419C167.646 30.8139 168.148 32.4841 168.028 34.1762C167.919 35.8573 167.089 37.5821 165.616 38.4009C168.05 38.6192 170.255 40.4532 170.921 42.8003C171.587 45.1473 170.67 47.8655 168.716 49.3283C170.736 51.2606 171.402 54.481 170.288 57.0354C169.185 59.6008 166.38 61.3365 163.596 61.1837C164.753 62.8758 164.535 65.3757 163.105 66.8385C161.675 68.3013 159.186 68.596 157.45 67.4826C158.771 70.5392 157.341 74.3491 154.612 76.2485C151.883 78.1371 148.16 78.2681 145.06 77.0782C145.606 79.196 144.459 82.9622 139.787 84.0211C133.925 85.3638 130.978 83.6499 129.7 81.0627Z" fill="black"/>
<path d="M158.543 58.9919C159.584 55.7487 158.427 52.4771 155.959 51.6846C153.491 50.892 150.646 52.8787 149.604 56.122C148.563 59.3652 149.72 62.6369 152.188 63.4294C154.656 64.2219 157.501 62.2352 158.543 58.9919Z" fill="#B88884"/>
<path d="M155.15 54.5793C153.741 56.2168 153.141 58.5202 153.578 60.6271" stroke="black" stroke-width="0.868339" stroke-miterlimit="10" stroke-linecap="round" stroke-linejoin="round"/>
<path d="M149.111 70.6485C150.52 74.9387 155.137 77.2748 159.427 75.8666C163.718 74.4584 166.054 69.8407 164.646 65.5505C163.237 61.2603 158.62 58.9241 154.329 60.3324" stroke="#FFC825" stroke-width="1.21567" stroke-miterlimit="10"/>
<path d="M120.589 68.4797C122.744 67.0385 122.956 63.5749 121.062 60.7435C119.169 57.9121 115.887 56.7851 113.732 58.2262C111.577 59.6674 111.365 63.131 113.259 65.9624C115.152 68.7938 118.434 69.9208 120.589 68.4797Z" fill="#B88884"/>
<path d="M113.84 60.7036C115.881 61.9481 117.562 63.7821 118.621 65.9217" stroke="black" stroke-width="0.868339" stroke-miterlimit="10" stroke-linecap="round" stroke-linejoin="round"/>
<path d="M128.271 70.7468C130.072 74.8841 128.173 79.7093 124.025 81.4996C119.876 83.2899 115.062 81.4013 113.272 77.253C111.471 73.1157 113.37 68.2906 117.518 66.5002" stroke="#FFC825" stroke-width="1.21567" stroke-miterlimit="10"/>
<path d="M128.205 71.3581C128.205 71.3581 127.735 82.3838 125.334 85.9098C123.292 88.901 120.148 90.2764 120.148 90.2764C120.148 90.2764 124.941 101.957 138.805 101.095C152.669 100.243 155.889 90.2764 155.889 90.2764C155.889 90.2764 150.409 87.5582 149.132 83.4973C147.855 79.4363 149.132 70.0153 149.132 70.0153C149.132 70.0153 130.344 65.1684 128.205 71.3581Z" fill="#B88884"/>
<path d="M138.621 82.1435C146.83 81.4012 152.747 72.5261 152.779 59.1315C152.812 47.6582 144.352 36.0102 131.165 38.7394C118.84 41.2939 116.613 54.1099 118.665 62.5374C120.696 70.965 128.326 83.0714 138.621 82.1435Z" fill="#B88884"/>
<path d="M128.467 78.7593C133.259 82.8748 139.536 82.1325 139.536 82.1325" stroke="black" stroke-width="0.868339" stroke-miterlimit="10" stroke-linecap="round" stroke-linejoin="round"/>
<path d="M135.466 58.2144C135.651 60.1138 134.952 61.8277 134.385 62.8976C133.719 64.1202 134.559 65.6594 135.946 65.7249C137.212 65.7904 138.533 65.2883 138.533 65.2883" stroke="black" stroke-width="0.868339" stroke-miterlimit="10" stroke-linecap="round" stroke-linejoin="round"/>
<path d="M130.464 54.0988C128.63 53.0399 124.122 52.3412 120.836 54.5354" stroke="black" stroke-width="0.868339" stroke-miterlimit="10" stroke-linecap="round" stroke-linejoin="round"/>
<path d="M138.936 51.8173C141.13 49.9287 145.627 48.9244 148.64 50.5291" stroke="black" stroke-width="0.868339" stroke-miterlimit="10" stroke-linecap="round" stroke-linejoin="round"/>
<path d="M121.184 57.7671C121.184 57.7671 121.053 57.7452 124.176 56.8937C128.16 56.2278 130.125 58.9351 130.125 58.9351C130.125 58.9351 127.407 60.6599 124.689 60.4853C122.276 60.3434 121.184 57.7671 121.184 57.7671Z" fill="white"/>
<path d="M125.683 60.5069C126.744 60.5069 127.604 59.6467 127.604 58.5856C127.604 57.5245 126.744 56.6643 125.683 56.6643C124.622 56.6643 123.762 57.5245 123.762 58.5856C123.762 59.6467 124.622 60.5069 125.683 60.5069Z" fill="black"/>
<path d="M130.442 58.8586C130.442 58.8586 128.488 56.9592 125.802 56.7954C122.167 56.8391 121.283 58.4438 119.602 57.5377" stroke="black" stroke-width="0.868339" stroke-miterlimit="10" stroke-linecap="round" stroke-linejoin="round"/>
<path d="M147.516 54.1099C147.516 54.1099 147.516 54.1099 145.049 54.1972C140.955 54.6229 140.158 58.018 140.158 58.018C140.158 58.018 142.811 58.9459 145.606 57.8106C147.636 56.9918 147.516 54.1099 147.516 54.1099Z" fill="white"/>
<path d="M144.022 58.2143C145.089 58.2143 145.954 57.3492 145.954 56.2821C145.954 55.2149 145.089 54.3499 144.022 54.3499C142.955 54.3499 142.09 55.2149 142.09 56.2821C142.09 57.3492 142.955 58.2143 144.022 58.2143Z" fill="black"/>
<path d="M140.158 58.0178C140.158 58.0178 141.381 53.7167 145.857 54.1315C148.662 54.3935 149.514 53.7712 149.514 53.7712" stroke="black" stroke-width="0.868339" stroke-miterlimit="10" stroke-linecap="round" stroke-linejoin="round"/>
<path d="M143.259 68.0066C141.938 74.1744 134.493 75.2988 131.928 69.5677L143.259 68.0066Z" fill="white"/>
<path d="M137.549 37.0582C136.283 40.8353 131.862 43.226 128.019 42.2326C129.515 44.3177 129.176 47.5053 127.277 49.2301C125.377 50.955 122.179 50.9768 120.236 49.2956C120.52 50.8021 119.646 52.3741 118.347 53.1928C117.048 54.0116 115.422 54.1644 113.904 53.9242C110.728 53.4221 107.758 51.0532 107.092 47.8983C106.426 44.7434 108.522 41.1082 111.699 40.5624C111.142 37.604 112.43 34.3727 114.887 32.6261C117.343 30.8794 120.814 30.7048 123.423 32.1894C123.489 30.0498 124.821 28.0084 126.753 27.0696C132.757 24.1548 139.558 31.0432 137.549 37.0582Z" fill="black"/>
<path d="M137.385 26.076C140.66 26.2943 143.52 29.3182 143.531 32.6041C144.874 30.9666 147.494 30.5736 149.273 31.7198C151.053 32.8661 151.751 35.4314 150.813 37.3309C151.948 36.7851 153.389 37.1563 154.317 38.0187C155.245 38.8811 155.703 40.1474 155.834 41.4028C156.107 44.0555 154.841 46.9156 152.461 48.1165C150.081 49.3173 146.741 48.4112 145.627 45.9877C143.378 47.0576 140.529 46.6973 138.63 45.1144C136.73 43.5315 135.846 40.7915 136.479 38.3898C134.765 38.7828 132.844 38.1497 131.687 36.8178C128.084 32.6368 132.156 25.7375 137.385 26.076Z" fill="black"/>
<path d="M123.763 87.7436C123.763 87.7436 131.24 95.4398 138.02 94.7739C144.7 94.108 148.03 90.047 150.65 86.1607C150.65 86.1607 157.964 82.1216 166.632 79.316C175.092 76.5869 181.959 75.135 181.959 75.135L184.142 101.127C175.813 122.174 172.712 143.844 173.051 165.917C173.051 165.917 129.439 173.286 101.678 164.847C102.104 150.83 101.777 119.576 91.7553 106.782L89.4082 85.8005C89.4082 85.8005 93.9277 85.2219 98.6873 85.2219C107.388 85.2328 123.763 87.7436 123.763 87.7436Z" fill="white"/>
<path d="M114.603 110.035C111.732 110.035 111.721 114.5 114.603 114.5C117.485 114.5 117.485 110.035 114.603 110.035Z" fill="#AB8DDB"/>
<path d="M103.841 100.079C100.97 100.079 100.959 104.544 103.841 104.544C106.712 104.555 106.723 100.079 103.841 100.079Z" fill="#AB8DDB"/>
<path d="M93.9171 90.2434C91.0461 90.2434 91.0352 94.7083 93.9171 94.7083C96.7991 94.7083 96.7991 90.2434 93.9171 90.2434Z" fill="#AB8DDB"/>
<path d="M118.839 94.7739C115.968 94.7739 115.957 99.2388 118.839 99.2388C121.71 99.2388 121.71 94.7739 118.839 94.7739Z" fill="#AB8DDB"/>
<path d="M119.767 112.262C116.896 112.262 116.885 116.727 119.767 116.727C122.649 116.738 122.649 112.262 119.767 112.262Z" fill="#AB8DDB"/>
<path d="M137.593 102.317C134.722 102.317 134.711 106.782 137.593 106.782C140.464 106.782 140.475 102.317 137.593 102.317Z" fill="#AB8DDB"/>
<path d="M128.958 114.5C126.087 114.5 126.076 118.965 128.958 118.965C131.829 118.976 131.829 114.5 128.958 114.5Z" fill="#AB8DDB"/>
<path d="M96.341 110.035C93.4699 110.035 93.459 114.5 96.341 114.5C99.2229 114.5 99.2229 110.035 96.341 110.035Z" fill="#AB8DDB"/>
<path d="M109.505 86.6084C106.634 86.6084 106.623 91.0733 109.505 91.0733C112.387 91.0842 112.387 86.6084 109.505 86.6084Z" fill="#AB8DDB"/>
<path d="M151.021 109.14C148.15 109.14 148.139 113.605 151.021 113.605C153.892 113.616 153.892 109.14 151.021 109.14Z" fill="#AB8DDB"/>
<path d="M122.507 95.6035C119.636 95.6035 119.625 100.068 122.507 100.068C125.378 100.068 125.389 95.6035 122.507 95.6035Z" fill="#AB8DDB"/>
<path d="M168.957 94.7739H168.64C167.472 94.7739 166.348 95.8001 166.402 97.0118C166.457 98.2235 167.385 99.2497 168.64 99.2497H168.957C170.125 99.2497 171.249 98.2235 171.195 97.0118C171.129 95.7892 170.201 94.7739 168.957 94.7739Z" fill="#AB8DDB"/>
<path d="M173.017 78.2681H172.701C171.533 78.2681 170.408 79.2942 170.463 80.506C170.517 81.7177 171.445 82.7438 172.701 82.7438H173.017C174.185 82.7438 175.31 81.7177 175.255 80.506C175.201 79.2942 174.273 78.2681 173.017 78.2681Z" fill="#AB8DDB"/>
<path d="M152.767 93.3657C149.896 93.3657 149.885 97.8306 152.767 97.8306C155.649 97.8306 155.649 93.3657 152.767 93.3657Z" fill="#AB8DDB"/>
<path d="M172.318 110.035H172.002C170.833 110.035 169.709 111.061 169.764 112.273C169.818 113.485 170.746 114.511 172.002 114.511H172.318C173.486 114.511 174.611 113.485 174.556 112.273C174.501 111.05 173.573 110.035 172.318 110.035Z" fill="#AB8DDB"/>
<path d="M114.604 86.1609L114.92 127.425H122.507L120.717 86.6085L114.604 86.1609Z" fill="#FFC825"/>
<path d="M163.421 80.5061V118.769H156.947L157.089 82.744L163.421 80.5061Z" fill="#FFC825"/>
<path d="M236.847 73.3118C239.14 77.1326 239.423 79.8945 238.758 95.9091C238.299 106.902 236.541 117.622 236.541 117.622C236.541 117.622 234.249 124.401 229.926 123.506C225.603 122.611 225.374 120.973 224.61 117.567C223.846 114.172 221.771 83.7371 221.204 73.3009C220.887 67.4387 232.273 65.6702 236.847 73.3118Z" fill="#B88884"/>
<path d="M37.8601 96.1493C35.5676 99.9701 35.5021 103.813 35.2511 119.838C35 135.864 36.4956 138.44 36.4956 138.44C36.4956 138.44 38.2859 145.241 42.6088 144.346C46.9318 143.451 46.5934 142.37 47.3575 138.975C48.1217 135.58 52.9249 106.586 53.5035 96.1493C53.8201 90.2762 42.4451 88.5078 37.8601 96.1493Z" fill="#B88884"/>
<path d="M225.603 113.78C225.603 113.78 227.928 111.542 231.345 111.149C234.762 110.756 234.642 112.382 235.908 115.668C237.175 118.954 242.24 133.157 242.338 136.038C242.437 138.92 241.76 147.239 241.017 147.414C240.264 147.588 239.042 149.16 237.59 148.778C236.138 148.396 232.317 133.418 232.317 133.418C232.317 133.418 235.941 148.189 233.529 149.193C231.116 150.197 226.444 132.523 226.444 132.523C226.444 132.523 225.712 134.99 225.734 138.407C225.756 141.824 224.741 145.307 223.66 144.881C222.579 144.455 222.82 142.064 222.175 140.056C221.531 138.047 221.586 130.94 221.924 129.063C222.263 127.185 225.603 113.78 225.603 113.78Z" fill="#B88884"/>
<path d="M101.318 113.081C103.185 124.991 103.283 137.163 101.613 149.095" stroke="black" stroke-width="1.21567" stroke-miterlimit="10" stroke-linecap="round" stroke-linejoin="round"/>
<path d="M141.971 99.0422C145.933 93.7804 150.628 89.0754 155.867 85.0908" stroke="black" stroke-width="1.21567" stroke-miterlimit="10" stroke-linecap="round" stroke-linejoin="round"/>
<path d="M179.032 98.9441C175.877 109.031 174.469 119.675 174.906 130.231" stroke="black" stroke-width="1.21567" stroke-miterlimit="10" stroke-linecap="round" stroke-linejoin="round"/>
<path d="M51.5722 91.1497C52.2053 92.678 52.2054 94.3919 52.1726 96.0512C52.0744 101.291 51.7905 106.531 51.332 111.76" stroke="black" stroke-width="1.21567" stroke-miterlimit="10" stroke-linecap="round" stroke-linejoin="round"/>
<path d="M221.749 69.7639C221.346 79.8945 221.815 90.0578 223.158 100.112" stroke="black" stroke-width="1.21567" stroke-miterlimit="10" stroke-linecap="round" stroke-linejoin="round"/>
</g>
<defs>
<clipPath id="clip0_1448_10220">
<rect width="263" height="103" fill="white" transform="translate(9 13.5)"/>
</clipPath>
</defs>
</svg>
