<svg width="48" height="44" viewBox="0 0 48 44" fill="none" xmlns="http://www.w3.org/2000/svg">
<path d="M1.45482 30.9393C2.01539 31.7907 2.85624 31.9326 3.83722 32.2163C5.23862 32.642 6.49988 33.0677 7.48087 34.2028C9.02241 35.9055 9.58297 38.0339 11.8252 39.169C13.2266 39.7366 14.7682 39.169 14.9083 35.4798C15.0484 33.0677 15.8893 30.7974 17.4308 28.9529C17.7111 28.6691 17.9914 28.3853 18.2717 28.1015C18.6921 27.5339 18.8322 26.9664 18.6921 26.5407C18.6921 25.8312 18.4118 25.1218 17.8513 24.6961C17.0104 23.9867 15.7492 23.9867 14.628 23.561C13.3668 22.9934 12.3858 22.284 11.4048 21.4326C9.86325 20.1556 7.90128 17.4597 5.65904 19.1624C3.83721 20.5813 4.53791 23.561 3.55693 25.4056C2.71609 26.9664 -0.0867206 28.811 1.45482 30.9393Z" fill="#FEE8A5"/>
<path d="M12.9461 25.5474C11.5447 23.2772 10.7039 20.7232 10.1433 18.0272C10.1433 23.2772 5.93909 28.8109 1.03418 29.9461C1.03418 29.9461 4.81796 31.6488 6.49965 33.6352C10.0032 37.892 10.2834 43 10.2834 43C10.2834 43 11.4046 36.7568 14.0672 33.7771C15.4686 32.2163 17.0102 31.0812 18.9721 30.2299C16.4496 29.5204 14.4877 27.8177 12.9461 25.5474Z" stroke="black" stroke-width="1.7" stroke-miterlimit="10" stroke-linecap="round" stroke-linejoin="round"/>
<path d="M32.0707 12.0048C32.5485 12.7303 33.2651 12.8513 34.1012 13.0931C35.2956 13.4559 36.3705 13.8187 37.2066 14.7861C38.5204 16.2373 38.9981 18.0513 40.9091 19.0187C42.1035 19.5024 43.4173 19.0187 43.5368 15.8745C43.6562 13.8187 44.3728 11.8838 45.6867 10.3117C45.9255 10.0699 46.1644 9.82802 46.4033 9.58616C46.7616 9.10244 46.881 8.61872 46.7616 8.25593C46.7616 7.65128 46.5227 7.04663 46.045 6.68384C45.3284 6.07919 44.2534 6.0792 43.2979 5.71641C42.223 5.23269 41.3869 4.62804 40.5508 3.90246C39.237 2.81409 37.5649 0.516416 35.6539 1.96758C34.1012 3.17687 34.6984 5.7164 33.8623 7.28849C33.1457 8.61872 30.7569 10.1908 32.0707 12.0048Z" fill="#FEE8A5"/>
<path d="M41.8636 7.40928C40.6693 5.47441 39.9526 3.29767 39.4749 1C39.4749 5.47441 35.8918 10.1907 31.7114 11.1581C31.7114 11.1581 34.9362 12.6093 36.3695 14.3023C39.3554 17.9302 39.5943 22.2837 39.5943 22.2837C39.5943 22.2837 40.5498 16.9627 42.8191 14.4232C44.0135 13.093 45.3273 12.1255 46.9995 11.4C44.8496 10.7953 43.1775 9.34416 41.8636 7.40928Z" stroke="black" stroke-width="1.7" stroke-miterlimit="10" stroke-linecap="round" stroke-linejoin="round"/>
</svg>
