<svg width="39" height="33" fill="none" xmlns="http://www.w3.org/2000/svg"><path d="M26.312 9.474C23.817 4.308 15.263 1.44 9.623 7.001 3.983 12.563-1.727 20.11.49 25.346c3.378 7.988 17.444 8.174 24.964 5.678 7.52-2.496 6.302-10.264.86-21.55z" fill="#F38059"/><path d="M26.312 9.474S28.17 3.832 31.245 0c0 0 1.613 5.77-.906 9.254 0 0 4.561-.616 8.275-1.231 0 0-4.572 5.306-7.033 6.63 0 0 5.234 2.6 7.347 4.795 0 0-6.302 1.463-9.308.476l-3.308-10.45z" fill="#32B2A8"/><path d="M18.618 10.856c.65-1.219-1.254-2.24-1.892-1.022-.673 1.231 1.23 2.253 1.892 1.022zM23.352 17.8c.65-1.22-1.253-2.242-1.891-1.023-.673 1.22 1.23 2.241 1.892 1.022zM14.219 23.674c.65-1.219-1.253-2.24-1.892-1.021-.661 1.23 1.23 2.252 1.892 1.021zM26.22 25.764c.65-1.219-1.254-2.24-1.892-1.021-.662 1.23 1.23 2.24 1.891 1.021zM20.115 27.669c.65-1.22-1.253-2.241-1.892-1.022-.661 1.219 1.23 2.24 1.892 1.022zM7.72 17.637c.65-1.22-1.254-2.241-1.892-1.022-.662 1.23 1.242 2.241 1.892 1.022zM16.03 16.545c.65-1.219-1.254-2.24-1.892-1.021-.662 1.219 1.23 2.24 1.891 1.021z" fill="#000"/><path d="M33.74 10.31a33.193 33.193 0 00-6.244 3.553M34.61 18.879a12.718 12.718 0 00-5.222-.906M29.388 4.726a16.938 16.938 0 01-3.644 6.142" stroke="#000" stroke-width="1.4" stroke-miterlimit="10" stroke-linecap="round" stroke-linejoin="round"/></svg>